<?xml version="1.0" encoding="UTF-8" standalone="no"?>
<svg
   xmlns:dc="http://purl.org/dc/elements/1.1/"
   xmlns:cc="http://creativecommons.org/ns#"
   xmlns:rdf="http://www.w3.org/1999/02/22-rdf-syntax-ns#"
   xmlns:svg="http://www.w3.org/2000/svg"
   xmlns="http://www.w3.org/2000/svg"
   xmlns:sodipodi="http://sodipodi.sourceforge.net/DTD/sodipodi-0.dtd"
   xmlns:inkscape="http://www.inkscape.org/namespaces/inkscape"
   version="1.1"
   id="svg2"
   xml:space="preserve"
   width="66.133331"
   height="66.133331"
   viewBox="0 0 66.133331 66.133331"
   sodipodi:docname="instagram.ai"><metadata
     id="metadata8"><rdf:RDF><cc:Work
         rdf:about=""><dc:format>image/svg+xml</dc:format><dc:type
           rdf:resource="http://purl.org/dc/dcmitype/StillImage" /></cc:Work></rdf:RDF></metadata><defs
     id="defs6"><clipPath
       clipPathUnits="userSpaceOnUse"
       id="clipPath18"><path
         d="M 0,49.6 H 49.6 V 0 H 0 Z"
         id="path16" /></clipPath></defs><sodipodi:namedview
     pagecolor="#ffffff"
     bordercolor="#666666"
     borderopacity="1"
     objecttolerance="10"
     gridtolerance="10"
     guidetolerance="10"
     inkscape:pageopacity="0"
     inkscape:pageshadow="2"
     inkscape:window-width="640"
     inkscape:window-height="480"
     id="namedview4" /><g
     id="g10"
     inkscape:groupmode="layer"
     inkscape:label="instagram"
     transform="matrix(1.3333333,0,0,-1.3333333,0,66.133333)"><g
       id="g12"><g
         id="g14"
         clip-path="url(#clipPath18)"><g
           id="g20"
           transform="translate(24.8,16.7)"><path
             d="m 0,0 c -4.5,0 -8.2,3.7 -8.2,8.2 0,4.5 3.7,8.2 8.2,8.2 4.5,0 8.2,-3.7 8.2,-8.2 C 8.2,3.7 4.5,0 0,0 M 0,21 C -7,21 -12.8,15.3 -12.8,8.2 -12.8,1.1 -7.1,-4.6 0,-4.6 7.1,-4.6 12.8,1.2 12.8,8.2 12.8,15.2 7,21 0,21"
             style="fill:#000000;fill-opacity:1;fill-rule:nonzero;stroke:none"
             id="path22" /></g><g
           id="g24"
           transform="translate(38.1,40.9)"><path
             d="m 0,0 c 1.602,0 2.9,-1.298 2.9,-2.9 0,-1.602 -1.298,-2.9 -2.9,-2.9 -1.602,0 -2.9,1.298 -2.9,2.9 0,1.602 1.298,2.9 2.9,2.9"
             style="fill:#000000;fill-opacity:1;fill-rule:nonzero;stroke:none"
             id="path26" /></g><g
           id="g28"
           transform="translate(45.2,14.5)"><path
             d="M 0,0 C 0,-3.1 -1.1,-5.6 -2.9,-7.3 -4.7,-9 -7.2,-9.9 -10.2,-9.9 h -20.4 c -3,0 -5.5,0.9 -7.3,2.6 -1.8,1.8 -2.7,4.3 -2.7,7.4 v 20.5 c 0,3 0.9,5.5 2.7,7.3 1.7,1.7 4.3,2.6 7.3,2.6 H -10 c 3,0 5.5,-0.9 7.3,-2.7 C -1,26 0,23.5 0,20.6 Z m 0.4,31 c -2.6,2.7 -6.3,4.1 -10.5,4.1 h -20.6 c -8.7,0 -14.5,-5.8 -14.5,-14.5 V 0.1 c 0,-4.3 1.4,-8 4.2,-10.7 2.7,-2.6 6.3,-3.9 10.4,-3.9 h 20.4 c 4.3,0 7.9,1.4 10.5,3.9 C 3,-8 4.4,-4.3 4.4,0 v 20.6 c 0,4.2 -1.4,7.8 -4,10.4"
             style="fill:#000000;fill-opacity:1;fill-rule:nonzero;stroke:none"
             id="path30" /></g></g></g></g></svg>
