<?xml version="1.0" encoding="UTF-8" standalone="no"?>
<svg
   xmlns:dc="http://purl.org/dc/elements/1.1/"
   xmlns:cc="http://creativecommons.org/ns#"
   xmlns:rdf="http://www.w3.org/1999/02/22-rdf-syntax-ns#"
   xmlns:svg="http://www.w3.org/2000/svg"
   xmlns="http://www.w3.org/2000/svg"
   xmlns:sodipodi="http://sodipodi.sourceforge.net/DTD/sodipodi-0.dtd"
   xmlns:inkscape="http://www.inkscape.org/namespaces/inkscape"
   version="1.1"
   id="svg2"
   xml:space="preserve"
   width="56.923065"
   height="33.846134"
   viewBox="0 0 56.923065 33.846134"
   sodipodi:docname="trip.ai"><metadata
     id="metadata8"><rdf:RDF><cc:Work
         rdf:about=""><dc:format>image/svg+xml</dc:format><dc:type
           rdf:resource="http://purl.org/dc/dcmitype/StillImage" /></cc:Work></rdf:RDF></metadata><defs
     id="defs6"><clipPath
       clipPathUnits="userSpaceOnUse"
       id="clipPath18"><path
         d="M 0,25.385 H 42.692 V 0 H 0 Z"
         id="path16" /></clipPath></defs><sodipodi:namedview
     pagecolor="#ffffff"
     bordercolor="#666666"
     borderopacity="1"
     objecttolerance="10"
     gridtolerance="10"
     guidetolerance="10"
     inkscape:pageopacity="0"
     inkscape:pageshadow="2"
     inkscape:window-width="640"
     inkscape:window-height="480"
     id="namedview4" /><g
     id="g10"
     inkscape:groupmode="layer"
     inkscape:label="trip"
     transform="matrix(1.3333333,0,0,-1.3333333,0,33.846133)"><g
       id="g12"><g
         id="g14"
         clip-path="url(#clipPath18)"><g
           id="g20"
           transform="translate(21.13,24.2308)"><path
             d="m 0,0 c 7.284,0 10.024,-3.086 10.024,-3.086 0,0 -7.789,1.322 -10.385,-8.452 -2.596,9.774 -10.384,8.452 -10.384,8.452 0,0 2.74,3.086 10.024,3.086 z m 8.87,-13.27 c 0,-0.955 0.775,-1.73 1.731,-1.73 0.956,0 1.731,0.775 1.731,1.73 0,0.956 -0.775,1.732 -1.731,1.732 -0.956,0 -1.731,-0.776 -1.731,-1.732 m -1.125,-2.855 c -0.763,0.763 -1.183,1.777 -1.183,2.855 0,1.08 0.42,2.093 1.183,2.856 0.763,0.763 1.777,1.183 2.856,1.183 2.227,0 4.038,-1.812 4.038,-4.039 0,-2.226 -1.811,-4.038 -4.038,-4.038 -1.079,0 -2.093,0.42 -2.856,1.183 0,0 0.763,-0.763 0,0 m -0.816,6.527 c -0.981,-0.981 -1.521,-2.284 -1.521,-3.672 0,-1.387 0.54,-2.69 1.521,-3.671 0.981,-0.981 2.285,-1.521 3.672,-1.521 2.863,0 5.192,2.33 5.192,5.192 0,2.864 -2.329,5.193 -5.192,5.193 -1.387,0 -2.691,-0.54 -3.672,-1.521 m 3.672,-12.325 c -4.772,0 -8.654,3.882 -8.654,8.653 0,4.772 3.882,8.655 8.654,8.655 4.771,0 8.654,-3.883 8.654,-8.655 0,-4.771 -3.883,-8.653 -8.654,-8.653 m -22.5,8.653 c 0,-0.955 0.775,-1.73 1.731,-1.73 0.956,0 1.73,0.775 1.73,1.73 0,0.956 -0.774,1.732 -1.73,1.732 -0.956,0 -1.731,-0.776 -1.731,-1.732 m -1.125,-2.855 c -0.763,0.763 -1.183,1.777 -1.183,2.855 0,1.08 0.42,2.093 1.183,2.856 0.763,0.763 1.777,1.183 2.856,1.183 2.227,0 4.038,-1.812 4.038,-4.039 0,-2.226 -1.811,-4.038 -4.038,-4.038 -1.079,0 -2.093,0.42 -2.856,1.183 0,0 0.763,-0.763 0,0 m -0.816,6.527 c -0.981,-0.981 -1.521,-2.284 -1.521,-3.672 0,-1.387 0.54,-2.69 1.521,-3.671 0.981,-0.981 2.285,-1.521 3.672,-1.521 2.863,0 5.192,2.33 5.192,5.192 0,2.864 -2.329,5.193 -5.192,5.193 -1.387,0 -2.691,-0.54 -3.672,-1.521 m 3.672,-12.325 c -4.772,0 -8.654,3.882 -8.654,8.653 0,4.772 3.882,8.655 8.654,8.655 4.771,0 8.653,-3.883 8.653,-8.655 0,-4.771 -3.882,-8.653 -8.653,-8.653 m 29.296,15.426 c 0.407,1.221 1.029,2.658 1.888,3.524 h -7.08 c -0.117,0.036 -0.24,0.061 -0.359,0.093 -0.385,0.609 -3.018,4.034 -13.543,4.034 -11.551,0 -13.599,-4.127 -13.599,-4.127 h -7.384 c 0.942,-0.949 1.597,-2.583 1.997,-3.868 -1.36,-1.819 -2.178,-4.073 -2.178,-6.522 0,-5.993 4.837,-10.868 10.782,-10.868 3.296,0 6.247,1.502 8.226,3.859 l 2.448,-3.455 2.112,3.589 c 1.979,-2.435 4.983,-3.993 8.342,-3.993 5.945,0 10.782,4.875 10.782,10.868 0,2.602 -0.914,4.993 -2.434,6.866"
             style="fill:#000000;fill-opacity:1;fill-rule:nonzero;stroke:none"
             id="path22" /></g></g></g></g></svg>
