<?xml version="1.0" encoding="UTF-8" standalone="no"?>
<svg
   xmlns:dc="http://purl.org/dc/elements/1.1/"
   xmlns:cc="http://creativecommons.org/ns#"
   xmlns:rdf="http://www.w3.org/1999/02/22-rdf-syntax-ns#"
   xmlns:svg="http://www.w3.org/2000/svg"
   xmlns="http://www.w3.org/2000/svg"
   xmlns:sodipodi="http://sodipodi.sourceforge.net/DTD/sodipodi-0.dtd"
   xmlns:inkscape="http://www.inkscape.org/namespaces/inkscape"
   version="1.1"
   id="svg2"
   xml:space="preserve"
   width="43.076935"
   height="36.923065"
   viewBox="0 0 43.076935 36.923065"
   sodipodi:docname="twitter.ai"><metadata
     id="metadata8"><rdf:RDF><cc:Work
         rdf:about=""><dc:format>image/svg+xml</dc:format><dc:type
           rdf:resource="http://purl.org/dc/dcmitype/StillImage" /></cc:Work></rdf:RDF></metadata><defs
     id="defs6"><clipPath
       clipPathUnits="userSpaceOnUse"
       id="clipPath18"><path
         d="M 0,27.692 H 32.308 V 0 H 0 Z"
         id="path16" /></clipPath></defs><sodipodi:namedview
     pagecolor="#ffffff"
     bordercolor="#666666"
     borderopacity="1"
     objecttolerance="10"
     gridtolerance="10"
     guidetolerance="10"
     inkscape:pageopacity="0"
     inkscape:pageshadow="2"
     inkscape:window-width="640"
     inkscape:window-height="480"
     id="namedview4" /><g
     id="g10"
     inkscape:groupmode="layer"
     inkscape:label="twitter"
     transform="matrix(1.3333333,0,0,-1.3333333,0,36.923067)"><g
       id="g12"><g
         id="g14"
         clip-path="url(#clipPath18)"><g
           id="g20"
           transform="translate(27.206,25.4095)"><path
             d="m 0,0 c -1.209,1.374 -2.932,2.25 -4.838,2.282 -3.661,0.061 -6.628,-3.032 -6.628,-6.908 0,-0.551 0.058,-1.087 0.171,-1.602 -5.509,0.357 -10.393,3.226 -13.662,7.55 -0.57,-1.036 -0.897,-2.247 -0.897,-3.544 0,-2.456 1.17,-4.636 2.948,-5.923 -1.086,0.048 -2.108,0.377 -3.002,0.917 0,-0.03 0,-0.059 0,-0.089 0,-3.43 2.284,-6.307 5.317,-6.977 -0.556,-0.158 -1.142,-0.24 -1.747,-0.236 -0.427,0.003 -0.842,0.05 -1.247,0.135 0.844,-2.813 3.292,-4.865 6.192,-4.933 -2.268,-1.883 -5.126,-3.004 -8.232,-2.998 -0.535,0.001 -1.062,0.036 -1.581,0.102 2.933,-2.013 6.417,-3.184 10.161,-3.185 12.191,-0.004 18.859,10.606 18.859,19.809 0,0.302 -0.007,0.602 -0.02,0.901 1.295,0.965 2.419,2.175 3.308,3.556 C 3.913,-1.678 2.635,-2.034 1.295,-2.183 2.663,-1.341 3.714,0.007 4.209,1.623 2.928,0.846 1.51,0.289 0,0"
             style="fill:#000000;fill-opacity:1;fill-rule:nonzero;stroke:none"
             id="path22" /></g></g></g></g></svg>
