<?xml version="1.0" encoding="utf-8"?>
<!-- Generator: Adobe Illustrator 19.0.0, SVG Export Plug-In . SVG Version: 6.00 Build 0)  -->
<svg version="1.1" id="Layer_1" xmlns="http://www.w3.org/2000/svg" xmlns:xlink="http://www.w3.org/1999/xlink" x="0px" y="0px"
	 viewBox="-370 294 59 14" style="enable-background:new -370 294 59 14;" xml:space="preserve">
<style type="text/css">
	.st0{fill:#E8E4DA;}
</style>
<g id="surface1">
	<path class="st0" d="M-332.5,301.1c0.1,0,0.2,0.1,0.2,0.1C-332.4,301.2-332.4,301.1-332.5,301.1z"/>
	<path class="st0" d="M-313.4,299.3l-0.5,3.7L-313.4,299.3z"/>
	<path class="st0" d="M-315.3,303.7l0.6-3.7L-315.3,303.7z"/>
	<path class="st0" d="M-369.1,295.1v11.8h5v-1.8h-3.1v-3.4h2.5v-1.8h-2.5v-3.2h3.1v-1.8L-369.1,295.1z"/>
	<path class="st0" d="M-331.4,305.5v-1.8c0-1.4-0.4-2.1-1.2-2.4c0.8-0.4,1.2-1.2,1.2-2.3v-1c0-1.8-0.9-2.7-2.7-2.7h-2.8v11.8h1.8
		v-4.9h0.6c0.9,0,1.2,0.4,1.2,1.5v1.8c0,1,0.1,1.1,0.2,1.5h1.8C-331.3,306.4-331.4,306-331.4,305.5z M-335,296.7h0.9
		c0.7,0,1,0.4,1,1.2v1.2c0,0.9-0.4,1.2-1.1,1.2h-0.7L-335,296.7z M-332,301.5C-332,301.5-332,301.4-332,301.5z M-331.8,301.8
		C-331.8,301.8-331.8,301.7-331.8,301.8C-331.8,301.7-331.8,301.8-331.8,301.8z M-332.4,301.2c-0.1,0-0.2-0.1-0.2-0.1
		C-332.4,301.1-332.4,301.2-332.4,301.2z"/>
	<path class="st0" d="M-359.5,296.1v6.1l-1.6-6.1h-2.1v10.6h1.6v-7.5l2,7.5h1.6v-10.5L-359.5,296.1z M-359.5,302.6v-3.1V302.6z
		 M-361.9,299.2v3.8V299.2z"/>
	<path class="st0" d="M-354.7,296c-1.7,0-2.4,1-2.4,2.7v5.5c0,1.8,0.9,2.7,2.4,2.7c1.7,0,2.4-1,2.4-2.7v-3.3h-2.3v1.6h0.8v1.8
		c0,0.7-0.3,1.1-0.9,1.1c-0.6,0-0.9-0.4-0.9-1.1v-5.7c0-0.7,0.3-1.1,0.9-1.1c0.6,0,0.9,0.4,0.9,1.1v1.1h1.6v-1
		C-352.1,297-353,296-354.7,296z"/>
	<path class="st0" d="M-351.3,296.1l-0.1,10.7h1.6v-10.7H-351.3z"/>
	<path class="st0" d="M-344.8,296.1v6.1l-1.7-6.1h-2.1v10.6h1.6v-7.5l2,7.5h1.7v-10.5L-344.8,296.1z M-344.8,302.6v-3.1V302.6z
		 M-347.1,299.2v3.8V299.2z"/>
	<path class="st0" d="M-342.3,296.1l-0.1,10.7h4.6v-1.6h-2.8v-3h2.2v-1.6h-2.2v-2.9h2.8v-1.6H-342.3z"/>
	<path class="st0" d="M-328,296c-1.6,0-2.5,1-2.5,2.7v5.5c0,1.8,1,2.7,2.5,2.7c1.6,0,2.5-1,2.5-2.7v-5.5
		C-325.5,297-326.3,296-328,296z M-328.9,298.7c0-0.7,0.3-1.1,0.9-1.1s0.9,0.4,0.9,1.1v5.7c0,0.7-0.3,1.1-0.9,1.1s-0.9-0.4-0.9-1.1
		V298.7z"/>
	<path class="st0" d="M-322.3,296c-1.6,0-2.5,1-2.5,2.7v5.5c0,1.8,1,2.7,2.5,2.7c1.6,0,2.5-1,2.5-2.7v-5.5
		C-319.7,297-320.5,296-322.3,296z M-323,298.7c0-0.7,0.3-1.1,0.9-1.1c0.6,0,0.9,0.4,0.9,1.1v5.7c0,0.7-0.3,1.1-0.9,1.1
		c-0.6,0-0.9-0.4-0.9-1.1V298.7z"/>
	<path class="st0" d="M-311.9,296.1h-2.3l-1.1,7.3l-1.2-7.3h-2.3v10.6h1.5v-7.2l1.2,7.2h1.5l1.1-7.2v7.2h1.6V296.1z M-315.3,303.7
		l0.5-3.7L-315.3,303.7z M-317.3,299.4v3.8V299.4z M-313.9,303l0.6-3.7v0.1L-313.9,303z"/>
</g>
</svg>
