<?xml version="1.0" encoding="utf-8"?>
<!-- Generator: Adobe Illustrator 19.0.0, SVG Export Plug-In . SVG Version: 6.00 Build 0)  -->
<svg version="1.1" id="Layer_1" xmlns="http://www.w3.org/2000/svg" xmlns:xlink="http://www.w3.org/1999/xlink" x="0px" y="0px"
	 viewBox="-371 272.3 56.7 56.7" style="enable-background:new -371 272.3 56.7 56.7;" xml:space="preserve">
<style type="text/css">
	.st0{fill:#003D47;}
</style>
<g>
	<path class="st0" d="M-342.6,287.8c-7,0-12.8,5.7-12.8,12.8s5.7,12.8,12.8,12.8s12.8-5.8,12.8-12.8S-335.6,287.8-342.6,287.8z
		 M-342.6,308.8c-4.5,0-8.2-3.7-8.2-8.2s3.7-8.2,8.2-8.2s8.2,3.7,8.2,8.2S-338.1,308.8-342.6,308.8z"/>
	<circle class="st0" cx="-329.4" cy="287.4" r="2.9"/>
	<path class="st0" d="M-321.9,279.9c-2.6-2.7-6.3-4.1-10.5-4.1H-353c-8.7,0-14.5,5.8-14.5,14.5v20.5c0,4.3,1.4,8,4.2,10.7
		c2.7,2.6,6.3,3.9,10.4,3.9h20.4c4.3,0,7.9-1.4,10.5-3.9c2.7-2.6,4.1-6.3,4.1-10.6v-20.6C-317.9,286.1-319.3,282.5-321.9,279.9z
		 M-322.3,310.9c0,3.1-1.1,5.6-2.9,7.3c-1.8,1.7-4.3,2.6-7.3,2.6h-20.4c-3,0-5.5-0.9-7.3-2.6c-1.8-1.8-2.7-4.3-2.7-7.4v-20.5
		c0-3,0.9-5.5,2.7-7.3c1.7-1.7,4.3-2.6,7.3-2.6h20.6c3,0,5.5,0.9,7.3,2.7c1.7,1.8,2.7,4.3,2.7,7.2V310.9L-322.3,310.9z"/>
</g>
</svg>
