<?xml version="1.0" encoding="UTF-8" standalone="no"?>
<svg
   xmlns:dc="http://purl.org/dc/elements/1.1/"
   xmlns:cc="http://creativecommons.org/ns#"
   xmlns:rdf="http://www.w3.org/1999/02/22-rdf-syntax-ns#"
   xmlns:svg="http://www.w3.org/2000/svg"
   xmlns="http://www.w3.org/2000/svg"
   xmlns:sodipodi="http://sodipodi.sourceforge.net/DTD/sodipodi-0.dtd"
   xmlns:inkscape="http://www.inkscape.org/namespaces/inkscape"
   version="1.1"
   id="svg2"
   xml:space="preserve"
   width="709.88269"
   height="264.64401"
   viewBox="0 0 709.88269 264.64401"
   sodipodi:docname="logo.ai"><metadata
     id="metadata8"><rdf:RDF><cc:Work
         rdf:about=""><dc:format>image/svg+xml</dc:format><dc:type
           rdf:resource="http://purl.org/dc/dcmitype/StillImage" /></cc:Work></rdf:RDF></metadata><defs
     id="defs6"><clipPath
       clipPathUnits="userSpaceOnUse"
       id="clipPath18"><path
         d="M 0,198.483 H 532.412 V 0 H 0 Z"
         id="path16" /></clipPath></defs><sodipodi:namedview
     pagecolor="#ffffff"
     bordercolor="#666666"
     borderopacity="1"
     objecttolerance="10"
     gridtolerance="10"
     guidetolerance="10"
     inkscape:pageopacity="0"
     inkscape:pageshadow="2"
     inkscape:window-width="640"
     inkscape:window-height="480"
     id="namedview4" /><g
     id="g10"
     inkscape:groupmode="layer"
     inkscape:label="logo"
     transform="matrix(1.3333333,0,0,-1.3333333,0,264.644)"><g
       id="g12"><g
         id="g14"
         clip-path="url(#clipPath18)"><g
           id="g20"
           transform="translate(266.2018,196.0897)"><path
             d="m 0,0 c -26.703,0 -48.428,-28.186 -48.428,-62.831 0,-34.645 21.725,-62.831 48.428,-62.831 26.703,0 48.428,28.186 48.428,62.831 C 48.428,-28.186 26.703,0 0,0"
             style="fill:#f0dbb8;fill-opacity:1;fill-rule:nonzero;stroke:none"
             id="path22" /></g><g
           id="g24"
           transform="translate(266.2018,196.0897)"><path
             d="m 0,0 c -26.625,0 -48.286,-28.186 -48.286,-62.831 0,-34.645 21.661,-62.831 48.286,-62.831 26.625,0 48.286,28.186 48.286,62.831 C 48.286,-28.186 26.625,0 0,0 m 0,-126.9 c -27.308,0 -49.524,28.741 -49.524,64.069 0,35.328 22.216,64.069 49.524,64.069 27.308,0 49.524,-28.741 49.524,-64.069 C 49.524,-98.159 27.308,-126.9 0,-126.9"
             style="fill:#003f48;fill-opacity:1;fill-rule:nonzero;stroke:none"
             id="path26" /></g><g
           id="g28"
           transform="translate(315.0479,123.5109)"><path
             d="m 0,0 c -0.129,-1.064 -0.274,-2.11 -0.437,-3.156 -0.163,-1.047 -0.344,-2.076 -0.549,-3.097 -0.206,-1.029 -0.429,-2.041 -0.669,-3.044 -0.481,-2.007 -1.038,-3.963 -1.664,-5.884 -0.198,-0.601 -0.403,-1.193 -0.609,-1.784 -0.318,-0.884 -0.644,-1.759 -0.987,-2.616 -0.343,-0.867 -0.703,-1.716 -1.072,-2.556 -0.6,-1.347 -1.226,-2.651 -1.895,-3.937 -0.163,-0.309 -0.335,-0.626 -0.506,-0.935 -0.052,-0.111 -0.112,-0.223 -0.172,-0.326 -0.42,-0.78 -0.858,-1.535 -1.312,-2.281 -9.049,-15.053 -23.158,-24.745 -38.974,-24.745 -27.241,0 -49.412,28.759 -49.412,64.104 0,20.988 7.814,39.661 19.864,51.36 0.635,0.617 1.287,1.209 1.939,1.792 0.334,0.283 0.66,0.566 0.995,0.849 1.003,0.832 2.032,1.621 3.079,2.367 2.453,1.724 5.026,3.191 7.71,4.375 0.764,0.334 1.536,0.643 2.316,0.935 4.297,1.586 8.826,2.436 13.509,2.436 4.683,0 9.212,-0.85 13.509,-2.436 0.78,-0.292 1.561,-0.601 2.324,-0.935 2.676,-1.184 5.249,-2.651 7.702,-4.375 1.047,-0.746 2.076,-1.535 3.079,-2.367 0.335,-0.283 0.669,-0.566 0.995,-0.849 0.661,-0.575 1.304,-1.175 1.939,-1.792 3.491,-3.388 6.621,-7.36 9.314,-11.802 0.498,-0.807 0.97,-1.63 1.424,-2.462 0.223,-0.42 0.455,-0.841 0.678,-1.269 0.669,-1.278 1.303,-2.591 1.895,-3.929 v -0.008 c 0.755,-1.681 1.441,-3.405 2.059,-5.164 0.206,-0.591 0.411,-1.183 0.609,-1.784 v -0.008 c 0.626,-1.913 1.183,-3.886 1.664,-5.893 0.248,-1.003 0.471,-2.015 0.669,-3.036 0.128,-0.643 0.248,-1.286 0.36,-1.93 0.094,-0.566 0.189,-1.14 0.274,-1.707 C -0.086,20.396 0.12,18.655 0.266,16.897 0.472,14.547 0.575,12.162 0.575,9.752 0.575,6.441 0.386,3.182 0,0 M 1.535,14.581 C 1.51,15.147 1.467,15.713 1.424,16.279 1.295,17.892 1.124,19.487 0.909,21.057 0.858,21.451 0.806,21.846 0.738,22.24 0.652,22.892 0.54,23.535 0.429,24.17 v 0.009 C 0.3,24.908 0.163,25.628 0.017,26.34 0,26.443 -0.026,26.546 -0.043,26.649 c -0.154,0.712 -0.309,1.406 -0.472,2.101 -0.471,2.007 -1.02,3.971 -1.638,5.892 -0.514,1.63 -1.089,3.217 -1.707,4.778 -0.317,0.789 -0.643,1.578 -0.986,2.35 -0.257,0.6 -0.523,1.192 -0.806,1.775 -0.626,1.338 -1.295,2.651 -1.999,3.929 -0.24,0.429 -0.48,0.849 -0.72,1.269 -0.395,0.678 -0.798,1.347 -1.21,1.999 -2.65,4.219 -5.695,8.002 -9.057,11.253 -0.652,0.626 -1.304,1.226 -1.973,1.809 l -0.008,0.009 c -0.669,0.583 -1.355,1.149 -2.041,1.69 l -0.009,0.008 c -0.523,0.412 -1.046,0.806 -1.578,1.192 -0.532,0.386 -1.072,0.755 -1.613,1.115 -0.008,0 -0.008,0.009 -0.008,0.009 -3.877,2.564 -8.046,4.503 -12.42,5.712 -0.849,0.24 -1.707,0.446 -2.573,0.618 -0.652,0.137 -1.304,0.248 -1.964,0.351 -1.981,0.309 -3.988,0.464 -6.021,0.464 -1.724,0 -3.422,-0.112 -5.103,-0.335 -0.283,-0.034 -0.558,-0.077 -0.832,-0.12 -0.841,-0.12 -1.673,-0.274 -2.488,-0.455 -3.285,-0.72 -6.467,-1.844 -9.512,-3.345 -1.518,-0.746 -3.002,-1.586 -4.451,-2.513 -0.961,-0.617 -1.913,-1.278 -2.839,-1.972 -0.592,-0.446 -1.184,-0.901 -1.767,-1.373 -0.575,-0.48 -1.141,-0.969 -1.698,-1.466 -0.849,-0.755 -1.673,-1.544 -2.479,-2.359 -11.776,-11.948 -19.35,-30.5 -19.35,-51.291 0,-20.79 7.574,-39.334 19.35,-51.281 0.635,-0.644 1.287,-1.27 1.947,-1.879 1.321,-1.209 2.685,-2.35 4.1,-3.396 2.822,-2.102 5.807,-3.851 8.937,-5.224 0.781,-0.343 1.57,-0.66 2.367,-0.952 4.392,-1.612 9.032,-2.478 13.818,-2.478 4.786,0 9.426,0.866 13.817,2.478 0.798,0.292 1.587,0.609 2.368,0.952 3.13,1.373 6.124,3.122 8.946,5.224 1.406,1.046 2.779,2.187 4.099,3.396 0.498,0.455 0.978,0.918 1.458,1.398 0.481,0.472 0.961,0.961 1.433,1.458 0.317,0.343 0.626,0.678 0.926,1.021 0.266,0.3 0.532,0.6 0.798,0.909 0.523,0.609 1.038,1.235 1.535,1.87 0.257,0.317 0.506,0.643 0.763,0.978 0.738,0.978 1.458,1.981 2.145,3.019 0.231,0.343 0.463,0.695 0.686,1.046 v 0.009 c 0.506,0.806 1.012,1.621 1.501,2.461 v 0.009 c 0.3,0.523 0.6,1.046 0.892,1.578 0.574,1.072 1.132,2.162 1.672,3.277 0.266,0.557 0.532,1.123 0.781,1.689 v 0.009 c 0.609,1.364 1.175,2.762 1.715,4.185 0.352,0.952 0.686,1.913 1.012,2.882 v 0.009 c 0.644,1.947 1.21,3.945 1.699,5.987 0.188,0.763 0.36,1.535 0.523,2.315 0.146,0.678 0.283,1.364 0.403,2.05 0.506,2.753 0.875,5.575 1.098,8.449 0.043,0.54 0.077,1.08 0.111,1.621 0.026,0.403 0.043,0.815 0.06,1.226 0.052,1.235 0.077,2.47 0.077,3.714 0,1.621 -0.042,3.234 -0.137,4.829"
             style="fill:#10385f;fill-opacity:1;fill-rule:nonzero;stroke:none"
             id="path30" /></g><g
           id="g32"
           transform="translate(314.6104,120.3546)"><path
             d="m 0,0 c -0.163,-1.046 -0.343,-2.076 -0.549,-3.096 -0.206,-1.03 -0.429,-2.042 -0.669,-3.045 -0.48,-2.007 -1.038,-3.963 -1.664,-5.884 -0.197,-0.6 -0.403,-1.192 -0.609,-1.784 -0.317,-0.883 -0.643,-1.758 -0.986,-2.616 -0.343,-0.866 -0.704,-1.715 -1.072,-2.556 -0.601,-1.347 -1.227,-2.65 -1.896,-3.937 -0.163,-0.309 -0.334,-0.626 -0.506,-0.935 -0.051,-0.111 -0.111,-0.223 -0.171,-0.326 -0.421,-0.78 -0.858,-1.535 -1.313,-2.281 -9.048,-15.053 -23.158,-24.745 -38.974,-24.745 -27.24,0 -49.412,28.759 -49.412,64.105 0,20.988 7.814,39.66 19.865,51.359 0.634,0.617 1.286,1.209 1.938,1.792 0.335,0.283 0.66,0.567 0.995,0.85 1.003,0.832 2.033,1.621 3.079,2.367 2.453,1.724 5.026,3.19 7.711,4.374 0.763,0.335 1.535,0.643 2.316,0.935 4.297,1.587 8.825,2.436 13.508,2.436 4.683,0 9.212,-0.849 13.509,-2.436 0.781,-0.292 1.561,-0.6 2.325,-0.935 2.676,-1.184 5.249,-2.65 7.702,-4.374 1.046,-0.746 2.075,-1.535 3.079,-2.367 0.334,-0.283 0.669,-0.567 0.995,-0.85 0.66,-0.574 1.303,-1.175 1.938,-1.792 3.491,-3.388 6.622,-7.359 9.315,-11.802 0.497,-0.806 0.969,-1.63 1.424,-2.462 0.223,-0.42 0.454,-0.84 0.677,-1.269 0.661,-1.278 1.295,-2.59 1.896,-3.928 v -0.009 c 0.737,-1.681 1.423,-3.405 2.058,-5.163 0.206,-0.592 0.412,-1.184 0.609,-1.784 v -0.009 c 0.626,-1.913 1.184,-3.885 1.664,-5.892 0.249,-1.004 0.472,-2.016 0.669,-3.037 0.129,-0.643 0.249,-1.286 0.36,-1.929 C -0.094,26.409 0,25.834 0.086,25.268 0.343,23.552 0.549,21.811 0.703,20.053 0.901,17.703 1.003,15.319 1.003,12.9 1.003,9.589 0.806,6.33 0.437,3.156 0.309,2.093 0.163,1.046 0,0 m 1.973,17.737 c -0.026,0.566 -0.069,1.132 -0.112,1.698 -0.12,1.613 -0.291,3.208 -0.514,4.778 -0.052,0.394 -0.103,0.789 -0.172,1.183 -0.086,0.652 -0.197,1.296 -0.309,1.93 v 0.009 c -0.128,0.729 -0.266,1.449 -0.411,2.161 -0.018,0.103 -0.043,0.206 -0.06,0.309 -0.155,0.712 -0.309,1.407 -0.472,2.101 -0.472,2.007 -1.021,3.972 -1.638,5.893 -0.515,1.629 -1.09,3.216 -1.707,4.777 -0.318,0.789 -0.643,1.578 -0.987,2.35 -0.257,0.601 -0.523,1.192 -0.806,1.776 -0.626,1.338 -1.295,2.65 -1.998,3.928 -0.24,0.429 -0.481,0.849 -0.721,1.269 -0.394,0.678 -0.797,1.347 -1.209,1.999 -2.65,4.22 -5.695,8.002 -9.057,11.253 -0.652,0.626 -1.304,1.226 -1.973,1.81 l -0.009,0.008 c -0.669,0.583 -1.355,1.149 -2.041,1.69 l -0.009,0.008 c -0.523,0.412 -1.046,0.807 -1.578,1.193 -0.532,0.386 -1.072,0.754 -1.612,1.115 -0.009,0 -0.009,0.008 -0.009,0.008 -3.877,2.565 -8.045,4.503 -12.419,5.713 -0.849,0.231 -1.707,0.437 -2.573,0.617 -0.652,0.137 -1.304,0.249 -1.965,0.352 -1.981,0.3 -3.988,0.454 -6.021,0.454 -1.724,0 -3.422,-0.111 -5.103,-0.326 -0.283,-0.034 -0.557,-0.077 -0.832,-0.12 -0.832,-0.128 -1.664,-0.283 -2.487,-0.454 -3.285,-0.721 -6.467,-1.844 -9.512,-3.345 -1.518,-0.747 -3.002,-1.587 -4.452,-2.513 -0.96,-0.618 -1.912,-1.278 -2.839,-1.973 -0.591,-0.446 -1.183,-0.901 -1.766,-1.372 -0.575,-0.481 -1.141,-0.97 -1.699,-1.467 -0.849,-0.755 -1.672,-1.544 -2.478,-2.359 -11.777,-11.948 -19.35,-30.5 -19.35,-51.29 0,-20.791 7.573,-39.334 19.35,-51.282 0.634,-0.643 1.286,-1.27 1.947,-1.878 1.32,-1.218 2.684,-2.351 4.099,-3.397 2.822,-2.101 5.807,-3.851 8.938,-5.223 0.78,-0.343 1.569,-0.661 2.367,-0.952 4.391,-1.613 9.031,-2.479 13.817,-2.479 4.786,0 9.427,0.866 13.818,2.479 0.798,0.291 1.587,0.609 2.367,0.952 3.131,1.372 6.124,3.122 8.946,5.223 1.415,1.046 2.779,2.179 4.1,3.397 0.497,0.454 0.978,0.917 1.458,1.398 0.48,0.471 0.961,0.96 1.432,1.458 0.318,0.343 0.626,0.677 0.927,1.02 0.265,0.301 0.531,0.601 0.797,0.909 0.523,0.609 1.038,1.236 1.536,1.87 0.257,0.318 0.506,0.644 0.763,0.978 0.738,0.978 1.458,1.981 2.144,3.019 0.232,0.343 0.463,0.695 0.686,1.047 v 0.008 c 0.523,0.806 1.021,1.621 1.501,2.462 v 0.008 c 0.3,0.523 0.601,1.047 0.892,1.578 0.584,1.073 1.141,2.162 1.673,3.277 0.266,0.557 0.532,1.124 0.78,1.69 v 0.008 c 0.618,1.364 1.184,2.762 1.716,4.186 0.36,0.943 0.694,1.912 1.012,2.882 v 0.008 c 0.643,1.947 1.209,3.946 1.698,5.987 0.189,0.763 0.36,1.535 0.523,2.316 0.146,0.677 0.283,1.363 0.403,2.05 0.506,2.753 0.875,5.575 1.098,8.448 0.043,0.54 0.077,1.081 0.112,1.621 0.025,0.403 0.043,0.815 0.06,1.227 0.06,1.226 0.085,2.453 0.085,3.705 0,1.629 -0.042,3.242 -0.145,4.837"
             style="fill:#f0dbb8;fill-opacity:1;fill-rule:nonzero;stroke:none"
             id="path34" /></g><g
           id="g36"
           transform="translate(278.6316,164.6344)"><path
             d="m 0,0 c -0.439,0 -0.796,0.357 -0.796,0.796 0,0.441 0.357,0.797 0.796,0.797 0.441,0 0.797,-0.356 0.797,-0.797 C 0.797,0.357 0.441,0 0,0 m -7.794,0.723 c -0.439,0 -0.795,0.356 -0.795,0.797 0,0.439 0.356,0.796 0.795,0.796 0.441,0 0.798,-0.357 0.798,-0.796 0,-0.441 -0.357,-0.797 -0.798,-0.797 m -9.099,0 c -0.441,0 -0.798,0.356 -0.798,0.797 0,0.439 0.357,0.796 0.798,0.796 0.439,0 0.795,-0.357 0.795,-0.796 0,-0.441 -0.356,-0.797 -0.795,-0.797 M -24.687,0 c -0.441,0 -0.797,0.357 -0.797,0.796 0,0.441 0.356,0.797 0.797,0.797 0.439,0 0.796,-0.356 0.796,-0.797 C -23.891,0.357 -24.248,0 -24.687,0 M 4.927,0.671 C 4.865,0.695 3.559,1.186 2.703,1.39 2.685,1.395 2.666,1.4 2.648,1.403 2.089,1.53 1.473,1.645 0.799,1.754 -2.575,2.295 -7.236,2.593 -12.331,2.595 h -0.025 C -17.451,2.593 -22.112,2.295 -25.486,1.754 -26.16,1.645 -26.776,1.53 -27.335,1.403 -27.353,1.4 -27.372,1.395 -27.39,1.39 c -0.856,-0.204 -2.162,-0.695 -2.224,-0.719 -0.912,-0.363 -1.494,-1.055 -1.299,-1.543 0.126,-0.318 0.552,-0.473 1.086,-0.444 0.23,0.013 0.481,0.06 0.735,0.144 0.06,0.023 0.122,0.046 0.183,0.067 0.004,0 0.007,10e-4 0.01,0.003 h 0.002 c 0.889,0.311 2.064,0.583 3.521,0.817 3.339,0.536 7.964,0.831 13.027,0.831 h 0.011 c 5.063,0 9.688,-0.295 13.027,-0.831 1.457,-0.234 2.632,-0.506 3.521,-0.817 H 4.212 C 4.215,-1.104 4.218,-1.105 4.222,-1.105 4.283,-1.126 4.345,-1.149 4.405,-1.172 4.659,-1.256 4.91,-1.303 5.141,-1.316 5.674,-1.345 6.1,-1.19 6.226,-0.872 6.421,-0.384 5.839,0.308 4.927,0.671 M 5.429,6.526 C 5.021,6.724 4.444,6.952 3.632,7.187 4.445,7.234 5.272,7.429 6.025,7.675 5.63,7.089 5.466,6.64 5.429,6.526 m -9.174,1.84 c 1.415,0.421 2.314,1.165 2.863,1.828 0.279,-0.867 0.82,-1.798 1.773,-2.394 -1.249,0.216 -2.774,0.413 -4.636,0.566 m 3.374,4.955 C 0.169,13.234 0.603,12.8 0.692,12.26 0.838,11.37 0.083,10.612 -0.809,10.756 c -0.538,0.088 -0.974,0.522 -1.063,1.062 -0.146,0.889 0.611,1.649 1.501,1.503 M -12.349,8.675 c -0.846,0 -1.653,-0.008 -2.425,-0.021 1.287,0.515 2.015,1.271 2.425,1.964 0.41,-0.693 1.138,-1.449 2.426,-1.964 -0.773,0.013 -1.58,0.021 -2.426,0.021 m -1.193,3.888 c -0.147,0.89 0.609,1.65 1.501,1.504 0.538,-0.088 0.974,-0.522 1.061,-1.062 0.148,-0.889 -0.609,-1.648 -1.499,-1.503 -0.539,0.087 -0.975,0.521 -1.063,1.061 M -25.59,7.8 c 0.953,0.596 1.495,1.527 1.773,2.394 0.551,-0.665 1.451,-1.407 2.867,-1.828 -1.863,-0.153 -3.39,-0.35 -4.64,-0.566 m 0.338,4.061 c -0.146,0.89 0.61,1.65 1.5,1.504 0.54,-0.087 0.974,-0.522 1.063,-1.061 0.146,-0.89 -0.609,-1.648 -1.5,-1.504 -0.538,0.087 -0.974,0.522 -1.063,1.061 m -4.875,-5.335 c -0.038,0.114 -0.201,0.563 -0.597,1.149 0.756,-0.246 1.58,-0.439 2.394,-0.488 -0.812,-0.235 -1.389,-0.463 -1.797,-0.661 m 43.638,7.486 c -0.29,0.522 -1.219,0.115 -1.551,0.434 -0.162,0.157 -0.057,0.024 -0.282,0.156 -1.055,0.614 -1.36,-0.882 -1.36,-0.882 0,0 -0.119,1.229 -1.145,0.885 C 8.821,14.487 8.554,13.957 8.967,12.869 9.382,11.78 9.043,11.615 8.862,11.72 8.682,11.826 8.591,11.879 8.371,12.33 8.15,12.78 7.418,13.531 6.693,13.187 6.384,13.039 6.303,12.453 6.612,12.226 6.557,12.257 5.789,12.673 5.4,12.006 5.118,11.523 5.235,10.892 5.872,10.602 c 0,0 -1.187,-0.109 -0.257,-1.061 C 5.868,9.281 6.171,9.092 6.5,8.978 5.222,8.466 3.564,8.006 2.256,8.356 1.188,8.64 0.611,9.364 0.298,10.066 0.421,10.009 0.543,9.967 0.668,9.939 c 0.915,-0.21 0.923,0.668 0.923,0.668 0,0 1.324,-0.53 1.626,0.59 0.421,1.565 -0.981,1.518 -0.981,1.518 0.483,1.522 -1.69,1.123 -1.69,1.123 0,0 0.637,0.577 1.122,0.84 0.484,0.262 0.507,1.245 -0.543,1.279 0,0 -0.106,1.037 -1.101,1.197 -0.995,0.161 -1.419,-0.792 -1.419,-0.792 -1.008,0.298 -1.295,-0.644 -0.918,-1.044 0.367,-0.389 0.777,-1.102 0.801,-1.147 -0.066,0.035 -1.938,1.029 -1.956,-0.538 0,0 -1.318,0.484 -1.408,-1.135 -0.065,-1.157 1.359,-1.069 1.359,-1.069 0,0 -0.269,-0.837 0.668,-0.924 0.287,-0.028 0.588,0.014 0.951,0.146 -0.757,-0.785 -2.173,-1.644 -4.717,-1.553 -2.832,0.104 -4.122,1.026 -4.71,1.859 0.272,-0.131 0.515,-0.196 0.757,-0.212 0.938,-0.064 0.805,0.807 0.805,0.807 0,0 1.393,-0.313 1.512,0.839 0.169,1.613 -1.209,1.344 -1.209,1.344 0.235,1.578 -1.847,0.839 -1.847,0.839 0,0 0.538,0.673 0.974,1.008 0.436,0.336 0.303,1.311 -0.739,1.177 0,0 -0.269,1.008 -1.277,1.008 -1.008,0 -1.276,-1.008 -1.276,-1.008 -1.042,0.134 -1.176,-0.841 -0.74,-1.177 0.437,-0.335 0.975,-1.008 0.975,-1.008 0,0 -2.084,0.739 -1.849,-0.839 0,0 -1.376,0.269 -1.209,-1.344 0.12,-1.152 1.512,-0.839 1.512,-0.839 0,0 -0.133,-0.871 0.807,-0.807 0.242,0.016 0.483,0.081 0.754,0.21 -0.588,-0.831 -1.878,-1.753 -4.708,-1.857 -2.544,-0.091 -3.959,0.77 -4.716,1.553 0.363,-0.132 0.663,-0.174 0.95,-0.146 0.937,0.087 0.668,0.924 0.668,0.924 0,0 1.424,-0.088 1.359,1.069 -0.091,1.619 -1.408,1.135 -1.408,1.135 -0.018,1.567 -1.89,0.573 -1.956,0.538 0.024,0.045 0.434,0.758 0.8,1.147 0.378,0.4 0.091,1.342 -0.915,1.044 0,0 -0.426,0.953 -1.422,0.792 -0.995,-0.16 -1.1,-1.197 -1.1,-1.197 -1.048,-0.034 -1.027,-1.017 -0.543,-1.279 0.485,-0.263 1.123,-0.84 1.123,-0.84 0,0 -2.175,0.399 -1.692,-1.123 0,0 -1.402,0.047 -0.98,-1.518 0.301,-1.12 1.625,-0.59 1.625,-0.59 0,0 0.008,-0.878 0.924,-0.668 0.125,0.028 0.246,0.07 0.37,0.127 -0.313,-0.702 -0.89,-1.426 -1.958,-1.71 -1.306,-0.349 -2.966,0.11 -4.245,0.622 0.329,0.114 0.633,0.303 0.885,0.563 0.931,0.952 -0.256,1.061 -0.256,1.061 0.637,0.29 0.754,0.921 0.473,1.404 -0.388,0.667 -1.158,0.251 -1.213,0.22 0.311,0.227 0.23,0.813 -0.081,0.961 -0.725,0.344 -1.457,-0.407 -1.678,-0.857 -0.22,-0.451 -0.311,-0.504 -0.491,-0.61 -0.181,-0.105 -0.518,0.06 -0.105,1.149 0.415,1.088 0.146,1.618 -0.206,1.736 -1.026,0.344 -1.146,-0.885 -1.146,-0.885 0,0 -0.304,1.496 -1.359,0.882 -0.226,-0.132 -0.12,10e-4 -0.282,-0.156 -0.331,-0.319 -1.261,0.088 -1.551,-0.434 -0.29,-0.524 0.116,-1.336 1.683,-2.498 1.122,-0.829 2.107,-1.772 2.581,-2.244 0.042,-0.094 0.111,-0.178 0.209,-0.235 0.008,-0.007 0.027,-0.018 0.056,-0.034 V 8.999 c 0.018,-0.018 0.031,-0.03 0.031,-0.03 l 0.011,0.004 c 1.984,-1.205 2.499,-2.769 2.503,-2.782 0.027,-0.088 0.074,-0.162 0.134,-0.222 l -0.013,-0.013 c -0.316,-0.334 -0.306,-0.871 0.025,-1.195 0.058,-0.056 0.123,-0.105 0.194,-0.142 0.671,0.817 2.455,1.439 5.47,1.923 3.349,0.538 7.989,0.835 13.063,0.835 5.076,0 9.714,-0.297 13.064,-0.835 C 3.731,6.072 5.497,5.473 6.212,4.69 6.236,4.708 6.26,4.729 6.283,4.75 6.448,4.907 6.542,5.118 6.549,5.346 6.555,5.573 6.473,5.79 6.316,5.956 6.311,5.961 6.306,5.965 6.301,5.972 6.361,6.03 6.41,6.103 6.435,6.188 6.44,6.204 6.957,7.768 8.941,8.973 l 0.01,-0.004 0.03,0.03 v 0.002 c 0.03,0.016 0.049,0.027 0.059,0.034 0.095,0.057 0.165,0.141 0.209,0.237 0.471,0.47 1.458,1.413 2.578,2.242 1.567,1.162 1.974,1.974 1.684,2.498 m -41.703,-9.711 1.285,-0.728 -1.222,-1.512 -1.097,0.707 z m 6.085,1.193 c 0.227,0.228 0.527,0.35 0.844,0.35 0.067,0 0.135,-0.005 0.203,-0.016 0.248,-0.039 0.472,-0.159 0.643,-0.331 0.172,-0.172 0.292,-0.395 0.333,-0.643 0.063,-0.391 -0.057,-0.773 -0.333,-1.049 -0.275,-0.275 -0.656,-0.397 -1.046,-0.334 -0.493,0.08 -0.895,0.48 -0.976,0.973 -0.065,0.392 0.057,0.774 0.332,1.05 m 9.497,0.929 0.321,0.231 0.024,-0.018 2.039,-1.474 -2.063,-1.498 -2.066,1.498 z M -4.612,4.855 C -4.531,5.35 -4.129,5.748 -3.637,5.828 -3.246,5.891 -2.864,5.769 -2.59,5.494 -2.314,5.218 -2.193,4.836 -2.258,4.445 -2.339,3.953 -2.739,3.552 -3.232,3.471 -3.624,3.408 -4.005,3.53 -4.28,3.805 -4.556,4.082 -4.677,4.465 -4.612,4.855 M 3.494,4.301 4.53,2.768 3.432,2.061 2.211,3.573 Z M -28.11,1.694 h 0.002 c 0.036,0.009 0.071,0.019 0.107,0.029 0,0 0.002,0 0.003,10e-4 0.738,0.198 1.613,0.38 2.622,0.542 3.339,0.536 7.964,0.831 13.027,0.831 5.063,0 9.69,-0.295 13.026,-0.831 C 1.689,2.104 2.564,1.922 3.301,1.724 3.303,1.723 3.303,1.723 3.304,1.723 3.34,1.713 3.376,1.703 3.411,1.694 H 3.413 C 4.116,1.497 4.69,1.285 5.134,1.057 5.141,1.232 5.157,1.416 5.188,1.608 L 5.212,1.836 5.355,3.141 5.458,4.09 C 5.103,4.442 4.009,5.063 0.651,5.601 -0.384,5.768 -1.548,5.912 -2.81,6.029 c -0.324,0.03 -0.658,0.06 -0.995,0.087 h -0.002 c -2.299,0.183 -4.886,0.287 -7.618,0.305 l -0.772,0.557 c -0.055,0.041 -0.129,0.041 -0.186,0 l -0.773,-0.559 c -2.763,-0.018 -5.374,-0.126 -7.688,-0.316 -0.37,-0.029 -0.73,-0.061 -1.083,-0.095 -1.18,-0.114 -2.269,-0.25 -3.246,-0.407 -4.202,-0.674 -4.859,-1.475 -4.961,-1.72 l 0.106,-0.966 0.103,-0.956 V 1.958 l 0.039,-0.35 c -0.008,-0.216 -0.026,-0.418 -0.05,-0.606 0.457,0.249 1.066,0.479 1.826,0.692 m -1.132,-3.443 c 0.769,-0.434 2.114,-0.873 4.45,-1.248 3.157,-0.507 7.528,-0.786 12.308,-0.786 4.783,0 9.154,0.279 12.311,0.786 2.448,0.394 3.81,0.856 4.558,1.313 -2.465,0.958 -8.163,1.736 -16.734,1.736 -8.763,0 -14.521,-0.814 -16.893,-1.801"
             style="fill:#003f48;fill-opacity:1;fill-rule:nonzero;stroke:none"
             id="path38" /></g><g
           id="g40"
           transform="translate(304.172,97.4316)"><path
             d="m 0,0 -0.246,-1.274 c -8.805,0.422 -15.282,0.168 -20.101,5.281 -5.482,5.875 -9.8,13.373 -11.545,17.036 -3.323,7.072 -6.314,5.027 -12.128,6.047 V 13.377 c 0,-9.37 0.168,-11.074 11.546,-12.693 v -1.278 h -29.151 v 1.278 c 9.964,1.36 10.046,3.917 10.296,12.693 v 13.156 l -0.045,10.711 v 8.537 l -0.021,0.058 -0.07,0.016 -0.094,0.111 h 0.07 c 0,0 0,0.024 -0.062,0.045 -0.012,0.004 -0.024,0.012 -0.032,0.02 -0.033,0.037 -0.037,0.082 -0.037,0.082 l -0.041,0.009 -0.053,0.077 -0.05,0.009 -0.094,0.094 h 0.221 v 2.134 l -0.065,0.111 h 0.065 v 0.209 l -0.065,0.111 h -0.033 l -0.074,0.184 h 0.172 v 0.004 h -0.172 c 0.054,0 0.09,0.057 0.14,0.246 0.053,0.188 0.192,0.262 0.315,0.303 0.127,0.037 0.193,0.143 0.221,0.209 0.029,0.062 0.062,0.467 0.066,0.52 -0.025,0 -0.041,0.004 -0.041,0.013 0,0.004 0.025,0.008 0.057,0.012 v 0.147 c -0.037,0.025 -0.065,0.07 -0.069,0.115 -0.021,0.004 -0.033,0.008 -0.033,0.017 0,0.004 0.012,0.008 0.033,0.012 0.004,0.065 0.049,0.115 0.11,0.131 v 0.016 l 0.017,0.189 0.016,0.156 c 0,0.028 0.012,0.028 0.012,0 l 0.017,-0.156 0.016,-0.189 V 50.78 c 0.062,-0.016 0.107,-0.066 0.111,-0.131 0.024,-0.004 0.037,-0.008 0.037,-0.012 0,-0.009 -0.013,-0.013 -0.037,-0.017 -0.004,-0.049 -0.033,-0.09 -0.074,-0.115 v -0.147 c 0.041,-0.004 0.066,-0.008 0.066,-0.012 0,-0.009 -0.021,-0.013 -0.05,-0.017 0.004,-0.053 0.041,-0.454 0.066,-0.516 0.029,-0.066 0.098,-0.172 0.221,-0.209 0.123,-0.041 0.262,-0.115 0.316,-0.303 0.049,-0.189 0.09,-0.246 0.139,-0.246 h -0.139 v -0.004 h 0.164 l -0.074,-0.184 h -0.025 l -0.065,-0.111 v -0.209 h 0.065 l -0.065,-0.111 v -0.528 h 0.372 v -0.484 h 0.357 v -0.422 h 0.422 v 0.422 h 0.356 v 0.484 h 0.357 v 0.946 h -0.037 v 0.099 h 0.037 v 0.127 h -0.037 v 0.09 h -0.021 l -0.077,0.156 h 0.135 v 0.016 h 0.098 v 0.09 h 0.361 v -0.09 h 0.098 v -0.016 h 0.135 l -0.078,-0.156 h -0.02 v -0.09 h -0.037 v -0.127 h 0.037 v -0.099 h -0.037 v -0.946 h 0.316 v 0.946 h -0.041 v 0.099 h 0.041 v 0.131 h -0.041 v 0.09 h -0.021 l -0.078,0.152 h 0.14 v 0.016 h 0.098 v 0.09 h 0.36 v -0.09 h 0.095 v -0.016 h 0.139 l -0.078,-0.152 h -0.02 v -0.09 h -0.041 v -0.131 h 0.041 v -0.099 h -0.041 v -0.946 h 0.36 v -0.484 h 0.357 v -0.422 h 0.422 v 0.422 h 0.356 v 0.484 h 0.373 v 0.532 l -0.066,0.107 h 0.066 v 0.213 l -0.066,0.107 h 0.066 v 0.004 h -0.09 l -0.074,0.184 h 0.025 c 0.049,0 0.086,0.057 0.139,0.246 0.049,0.188 0.188,0.262 0.315,0.303 0.123,0.041 0.189,0.148 0.222,0.213 0.024,0.062 0.061,0.463 0.065,0.516 -0.032,0.004 -0.049,0.009 -0.049,0.013 0,0.008 0.025,0.012 0.062,0.016 v 0.148 c -0.041,0.02 -0.066,0.065 -0.07,0.114 -0.025,0.004 -0.037,0.009 -0.037,0.013 0,0.004 0.012,0.012 0.037,0.012 0.004,0.065 0.049,0.119 0.111,0.135 -0.005,0.004 0,0.008 0,0.016 l 0.016,0.189 0.012,0.152 c 0.004,0.032 0.012,0.032 0.017,0 l 0.012,-0.152 0.02,-0.189 v -0.016 c 0.058,-0.016 0.103,-0.07 0.111,-0.135 0.02,0 0.033,-0.008 0.033,-0.012 0,-0.004 -0.013,-0.009 -0.033,-0.013 -0.004,-0.049 -0.033,-0.09 -0.07,-0.114 v -0.148 c 0.033,-0.004 0.054,-0.008 0.054,-0.016 0,-0.004 -0.013,-0.009 -0.037,-0.013 0.004,-0.049 0.037,-0.454 0.065,-0.516 0.029,-0.065 0.095,-0.172 0.217,-0.213 0.009,-0.004 0.017,-0.004 0.025,-0.008 0.119,-0.041 0.246,-0.119 0.295,-0.295 0.049,-0.189 0.086,-0.246 0.135,-0.246 l -0.069,-0.184 h -0.099 v -0.004 h 0.066 l -0.066,-0.107 v -0.213 h 0.066 l -0.066,-0.107 v -2.138 h 0.029 l 0.193,0.004 -0.099,-0.094 -0.045,-0.009 -0.053,-0.077 -0.041,-0.009 c 0,0 -0.008,-0.077 -0.07,-0.102 -0.061,-0.025 -0.061,-0.049 -0.061,-0.049 h 0.069 l -0.094,-0.107 -0.069,-0.016 -0.021,-0.062 V 28.537 c 7.973,0.086 17.278,3.835 17.278,13.291 0,9.841 -8.346,13.873 -16.958,13.885 h -0.32 l -17.028,-0.086 v 1.193 l 20.269,0.68 c 20.928,0.684 22.592,-9.797 22.592,-13.882 0,-7.157 -4.319,-11.246 -10.301,-13.971 l 0.414,-0.598 C -21.678,17.548 -13.705,2.897 0,0"
             style="fill:#003f48;fill-opacity:1;fill-rule:nonzero;stroke:none"
             id="path42" /></g><g
           id="g44"
           transform="translate(0,8.3386)"><path
             d="M 0,0 0.028,0.714 C 0.455,0.922 1.166,1.111 2.163,1.273 3.159,1.44 3.846,1.606 4.224,1.772 4.602,1.938 4.916,2.157 5.167,2.429 5.341,3.287 5.428,4.832 5.428,7.073 V 29.8 l 0.088,3.767 c 0,0.778 -0.153,1.315 -0.455,1.605 -0.302,0.295 -1.096,0.56 -2.38,0.805 -1.285,0.242 -2.044,0.442 -2.275,0.597 -0.232,0.155 -0.347,0.321 -0.347,0.499 0,0.094 0.028,0.223 0.086,0.378 0.254,0.155 0.516,0.234 0.788,0.234 0.293,0 0.886,-0.019 1.782,-0.06 h 0.816 c 0.272,0 1.041,0.019 2.307,0.06 h 4.056 l 8.376,0.144 8.874,0.351 h 0.787 l 1.255,0.03 c 0.349,0 0.661,-0.098 0.933,-0.291 0.117,-0.313 0.185,-0.536 0.204,-0.672 l -0.028,-1.168 0.262,-5.225 c 0,-0.216 -0.019,-0.488 -0.058,-0.816 -0.312,-0.136 -0.593,-0.204 -0.847,-0.204 -0.175,0 -0.311,0.056 -0.408,0.174 -0.157,0.215 -0.253,0.623 -0.293,1.227 -0.077,0.835 -0.377,1.916 -0.903,3.238 -0.253,0.624 -0.67,1.051 -1.252,1.285 -1.166,0.446 -3.129,0.673 -5.887,0.673 -1.301,0 -2.516,-0.034 -3.642,-0.102 -1.128,-0.072 -1.817,-0.102 -2.069,-0.102 l -2.274,0.026 c -0.932,0 -1.699,-0.136 -2.301,-0.408 -0.408,-0.174 -0.612,-0.593 -0.612,-1.254 v -0.439 c 0.058,-0.993 0.087,-2.093 0.087,-3.298 l -0.087,-7.938 c 0,-0.779 0.058,-1.519 0.173,-2.218 l 0.847,-0.057 1.63,0.087 h 5.564 c 2.233,0 3.788,0.155 4.66,0.465 0.584,0.215 1.021,0.536 1.311,0.963 0.099,0.136 0.34,0.907 0.73,2.309 l 0.377,2.422 c 0.235,0.117 0.41,0.173 0.526,0.173 0.098,0 0.253,-0.049 0.468,-0.147 0.078,-0.446 0.125,-1.126 0.146,-2.04 l 0.349,-10.742 c -0.33,-0.136 -0.584,-0.204 -0.759,-0.204 l -0.32,0.057 c -0.311,1.945 -0.799,3.476 -1.46,4.583 -0.234,0.389 -0.497,0.612 -0.788,0.672 -0.506,0.117 -2.822,0.174 -6.946,0.174 -1.285,0 -2.169,-0.007 -2.656,-0.03 -1.168,-0.057 -1.869,-0.087 -2.101,-0.087 h -0.293 c -0.584,0 -1.001,-0.076 -1.254,-0.234 -0.078,-0.231 -0.117,-0.397 -0.117,-0.495 v -2.014 c 0,-0.234 0.009,-1.205 0.03,-2.917 L 10.069,3.975 c 0,-0.272 0.078,-0.612 0.233,-1.02 0.41,-0.333 1.154,-0.552 2.233,-0.658 1.08,-0.109 2.097,-0.366 3.051,-0.774 C 16.13,1.27 16.402,0.986 16.402,0.676 16.402,0.54 16.364,0.416 16.286,0.298 16.207,0.181 16.073,0.094 15.878,0.034 14.286,0.367 12.081,0.529 9.264,0.529 7.768,0.529 6.185,0.393 4.515,0.121 3.37,-0.053 2.059,-0.14 0.582,-0.14 Z"
             style="fill:#f0dbb8;fill-opacity:1;fill-rule:nonzero;stroke:none"
             id="path46" /></g><g
           id="g48"
           transform="translate(38.1687,8.6068)"><path
             d="M 0,0 C 0.019,0.291 0.096,0.555 0.234,0.786 1.751,1.198 3.229,1.47 4.67,1.606 5.622,1.685 6.236,1.897 6.508,2.248 6.703,2.501 6.82,3.435 6.858,5.052 l 0.206,7.711 -0.031,5.229 0.031,6.835 v 1.81 c 0.018,4.111 -0.002,6.669 -0.061,7.682 -0.019,0.196 -0.096,0.468 -0.234,0.819 -0.508,0.235 -0.933,0.39 -1.275,0.469 -0.342,0.076 -1.872,0.359 -4.589,0.846 -0.021,0.212 -0.03,0.371 -0.03,0.465 0,0.117 0.009,0.272 0.03,0.469 0.37,0 0.975,-0.023 1.812,-0.068 l 4.443,-0.167 2.573,-0.056 0.759,0.026 c 0.099,0 0.38,-0.019 0.849,-0.057 1.15,0 1.813,0.012 1.987,0.031 l 2.339,0.173 c 1.579,0 2.69,-0.03 3.332,-0.086 -0.019,-0.352 -0.087,-0.73 -0.204,-1.138 -0.213,-0.041 -1.226,-0.094 -3.036,-0.162 -1.808,-0.068 -2.85,-0.178 -3.122,-0.336 -0.448,-0.254 -0.671,-1.032 -0.671,-2.335 0,-0.31 -0.019,-0.941 -0.059,-1.897 v -1.75 l 0.031,-5.399 v -1.84 l 0.056,-9.661 -0.087,-8.229 0.031,-1.81 c 0,-0.582 0.096,-0.945 0.291,-1.081 0.485,-0.019 1.915,-0.037 4.29,-0.056 h 1.985 l 5.048,0.173 c 1.325,0.038 2.267,0.171 2.832,0.393 0.563,0.227 1.508,0.881 2.83,1.973 0.799,0.699 1.421,1.42 1.868,2.161 0.099,0.155 0.263,0.385 0.497,0.699 0.369,0.506 0.866,1.519 1.489,3.034 h 0.963 C 33.914,9.223 33.788,8.562 33.652,7.938 33.087,5.195 32.698,2.909 32.484,1.081 32.445,0.691 32.405,0.329 32.367,0 L 21.451,0.321 C 12.074,0.321 6.508,0.234 4.757,0.057 4.213,0.019 3.639,0 3.036,0 Z"
             style="fill:#f0dbb8;fill-opacity:1;fill-rule:nonzero;stroke:none"
             id="path50" /></g><g
           id="g52"
           transform="translate(101.059,9.2793)"><path
             d="m 0,0 c 1.634,0 3.331,0.227 5.093,0.684 1.761,0.457 3.321,1.216 4.683,2.278 1.363,1.058 2.428,2.263 3.197,3.616 0.769,1.353 1.387,3.091 1.853,5.21 0.467,2.124 0.701,4.243 0.701,6.363 0,2.645 -0.389,5.263 -1.167,7.851 -0.605,1.965 -1.587,3.722 -2.949,5.267 -1.363,1.55 -3.006,2.744 -4.931,3.594 -1.927,0.846 -3.981,1.269 -6.159,1.269 -1.772,0 -3.502,-0.295 -5.195,-0.876 -1.693,-0.586 -3.085,-1.33 -4.173,-2.233 -1.09,-0.907 -2.103,-2.188 -3.036,-3.854 -0.933,-1.663 -1.646,-3.499 -2.131,-5.502 -0.486,-2.002 -0.729,-3.774 -0.729,-5.312 0,-1.613 0.243,-3.442 0.729,-5.486 0.485,-2.044 1.152,-3.812 1.999,-5.312 C -11.369,6.06 -10.328,4.73 -9.093,3.574 -7.857,2.414 -6.47,1.53 -4.933,0.918 -3.397,0.306 -1.751,0 0,0 m -20.256,18.151 c 0,1.984 0.238,3.752 0.716,5.297 0.476,1.549 1.279,3.227 2.407,5.037 1.128,1.81 2.49,3.321 4.086,4.538 1.597,1.216 3.805,2.289 6.626,3.223 1.985,0.642 4.494,0.963 7.53,0.963 2.042,0 4.043,-0.272 5.998,-0.816 1.955,-0.544 3.729,-1.304 5.326,-2.275 1.596,-0.974 3.19,-2.474 4.787,-4.496 1.109,-1.402 1.946,-2.909 2.509,-4.523 0.74,-2.123 1.108,-4.311 1.108,-6.566 0,-2.57 -0.247,-4.701 -0.744,-6.393 C 19.598,10.447 18.767,8.773 17.599,7.118 16.683,5.834 15.117,4.356 12.899,2.683 11.42,1.557 9.582,0.646 7.383,-0.045 5.184,-0.737 2.811,-1.081 0.263,-1.081 c -2.589,0 -4.893,0.303 -6.919,0.903 -2.023,0.605 -3.71,1.338 -5.062,2.203 -1.353,0.869 -2.744,2.146 -4.174,3.839 -1.43,1.693 -2.514,3.563 -3.255,5.603 -0.738,2.044 -1.109,4.274 -1.109,6.684"
             style="fill:#f0dbb8;fill-opacity:1;fill-rule:nonzero;stroke:none"
             id="path54" /></g><g
           id="g56"
           transform="translate(153.7327,9.2793)"><path
             d="m 0,0 c 1.634,0 3.331,0.227 5.093,0.684 1.761,0.457 3.321,1.216 4.683,2.278 1.363,1.058 2.428,2.263 3.197,3.616 0.769,1.353 1.387,3.091 1.853,5.21 0.467,2.124 0.701,4.243 0.701,6.363 0,2.645 -0.389,5.263 -1.167,7.851 -0.605,1.965 -1.587,3.722 -2.949,5.267 -1.363,1.55 -3.006,2.744 -4.931,3.594 -1.927,0.846 -3.981,1.269 -6.159,1.269 -1.772,0 -3.502,-0.295 -5.195,-0.876 -1.693,-0.586 -3.085,-1.33 -4.173,-2.233 -1.09,-0.907 -2.103,-2.188 -3.036,-3.854 -0.933,-1.663 -1.646,-3.499 -2.131,-5.502 -0.486,-2.002 -0.729,-3.774 -0.729,-5.312 0,-1.613 0.243,-3.442 0.729,-5.486 0.485,-2.044 1.152,-3.812 1.999,-5.312 C -11.369,6.06 -10.328,4.73 -9.093,3.574 -7.857,2.414 -6.47,1.53 -4.933,0.918 -3.397,0.306 -1.751,0 0,0 m -20.256,18.151 c 0,1.984 0.238,3.752 0.716,5.297 0.476,1.549 1.279,3.227 2.407,5.037 1.128,1.81 2.49,3.321 4.086,4.538 1.597,1.216 3.805,2.289 6.626,3.223 1.985,0.642 4.494,0.963 7.53,0.963 2.042,0 4.043,-0.272 5.998,-0.816 1.955,-0.544 3.729,-1.304 5.326,-2.275 1.596,-0.974 3.19,-2.474 4.787,-4.496 1.109,-1.402 1.946,-2.909 2.509,-4.523 0.74,-2.123 1.108,-4.311 1.108,-6.566 0,-2.57 -0.247,-4.701 -0.744,-6.393 C 19.598,10.447 18.767,8.773 17.599,7.118 16.683,5.834 15.117,4.356 12.899,2.683 11.42,1.557 9.582,0.646 7.383,-0.045 5.184,-0.737 2.811,-1.081 0.263,-1.081 c -2.589,0 -4.893,0.303 -6.919,0.903 -2.023,0.605 -3.71,1.338 -5.062,2.203 -1.353,0.869 -2.744,2.146 -4.174,3.839 -1.43,1.693 -2.514,3.563 -3.255,5.603 -0.738,2.044 -1.109,4.274 -1.109,6.684"
             style="fill:#f0dbb8;fill-opacity:1;fill-rule:nonzero;stroke:none"
             id="path58" /></g><g
           id="g60"
           transform="translate(201.334,44.807)"><path
             d="M 0,0 C -3.765,0 -4.481,-0.178 -4.481,-2.928 V -18.4 h 8.662 c 3.704,1.552 6.633,4.719 6.633,9.079 C 10.814,-4.542 7.228,0 0,0 m 37.281,-44.807 c -15.714,0 -29.755,22.103 -36.505,24.971 h -5.257 v -12.125 c 0,-2.392 0.956,-3.227 3.882,-3.525 0.299,-0.061 0.42,-0.061 0.658,-0.061 l 0.06,-0.778 -0.837,0.061 c -2.091,0.177 -3.525,0.298 -4.66,0.298 h -2.269 c -1.136,0 -2.57,-0.121 -4.661,-0.298 l -0.837,-0.061 0.061,0.778 c 0.238,0 0.357,0 0.657,0.061 2.926,0.298 3.882,1.133 3.882,3.525 v 29.033 c 0,2.391 -0.956,3.226 -3.882,3.525 -0.3,0.06 -0.419,0.06 -0.657,0.06 l -0.061,0.779 0.837,-0.061 c 2.091,-0.181 3.106,-0.298 4.661,-0.298 1.492,0 6.332,0.298 9.319,0.298 8.244,0 13.084,-4.182 13.084,-9.321 0,-5.199 -3.704,-9.2 -8.843,-11.051 4.721,-3.106 16.372,-18.76 28.559,-23.124 4.362,-1.553 9.379,-0.476 12.189,0.779 -0.42,-1.077 -4.78,-3.465 -9.38,-3.465"
             style="fill:#f0dbb8;fill-opacity:1;fill-rule:nonzero;stroke:none"
             id="path62" /></g><g
           id="g64"
           transform="translate(254.31,44.7957)"><path
             d="M 0,0 C 0.155,-1.285 0.234,-2.021 0.234,-2.218 L 0.117,-4.814 c -0.04,-1.11 -0.089,-1.821 -0.145,-2.131 -0.176,-0.079 -0.321,-0.117 -0.439,-0.117 l -0.262,0.057 c -0.624,2.724 -1.68,4.712 -3.166,5.955 -1.489,1.246 -3.305,1.87 -5.445,1.87 -2.218,0 -4.037,-0.624 -5.458,-1.87 -1.42,-1.243 -2.129,-2.694 -2.129,-4.349 0,-1.266 0.495,-2.422 1.487,-3.473 0.994,-1.05 3.533,-2.622 7.619,-4.715 3.111,-1.609 5.341,-2.924 6.682,-3.948 1.343,-1.024 2.356,-2.207 3.036,-3.548 0.682,-1.345 1.022,-2.845 1.022,-4.5 0,-2.086 -0.541,-4.043 -1.621,-5.872 -1.079,-1.832 -2.534,-3.211 -4.362,-4.133 -1.829,-0.926 -4.253,-1.391 -7.268,-1.391 -2.626,0 -5.146,0.42 -7.558,1.255 -1.421,0.506 -2.288,0.914 -2.598,1.228 -0.312,0.31 -0.467,0.642 -0.467,0.994 0,0.211 0.019,0.483 0.057,0.816 0.274,2.293 0.419,4.182 0.438,5.66 0.04,0.914 0.108,1.45 0.204,1.605 0.078,0.136 0.225,0.204 0.439,0.204 0.175,0 0.315,-0.06 0.423,-0.189 0.108,-0.124 0.179,-0.362 0.219,-0.714 0.213,-2.395 1.322,-4.534 3.327,-6.423 1.985,-1.885 4.232,-2.83 6.742,-2.83 1.536,0 2.953,0.321 4.247,0.964 1.294,0.642 2.305,1.572 3.034,2.788 0.731,1.217 1.096,2.396 1.096,3.544 0,1.576 -0.556,3.015 -1.665,4.323 -1.109,1.299 -3.336,2.822 -6.683,4.564 -3.346,1.742 -5.526,3.011 -6.537,3.808 -1.634,1.304 -2.86,2.687 -3.678,4.145 -0.603,1.13 -0.905,2.445 -0.905,3.941 0,2.705 1.071,4.995 3.212,6.873 2.138,1.878 5.01,2.818 8.608,2.818 1.986,0 3.698,-0.226 5.137,-0.672 C -2.19,1.372 -1.109,0.797 0,0"
             style="fill:#f0dbb8;fill-opacity:1;fill-rule:nonzero;stroke:none"
             id="path66" /></g><g
           id="g68"
           transform="translate(321.2224,44.5047)"><path
             d="m 0,0 c 0.234,-1.5 0.348,-3.034 0.348,-4.61 0,-0.313 -0.008,-0.733 -0.027,-1.258 -0.272,-0.056 -0.476,-0.087 -0.612,-0.087 -0.117,0 -0.283,0.019 -0.499,0.061 -0.816,2.274 -2.15,4.027 -3.997,5.252 -1.848,1.228 -4.134,1.84 -6.858,1.84 -1.439,0 -2.656,-0.167 -3.65,-0.499 -1.749,-0.601 -3.287,-1.432 -4.609,-2.494 -1.326,-1.061 -2.445,-2.323 -3.359,-3.793 -0.915,-1.47 -1.64,-3.25 -2.173,-5.343 -0.536,-2.089 -0.805,-4.228 -0.805,-6.404 0,-4.164 0.635,-7.606 1.901,-10.319 1.262,-2.712 2.996,-4.651 5.195,-5.807 2.195,-1.16 4.413,-1.738 6.654,-1.738 l 1.371,0.03 c 1.557,0.193 2.615,0.378 3.182,0.556 1.42,0.408 2.592,0.888 3.517,1.443 0.922,0.555 1.829,1.338 2.713,2.35 0.884,1.013 1.64,2.188 2.263,3.533 l 0.348,0.117 c 0.098,0 0.246,-0.06 0.438,-0.178 -0.019,-0.464 -0.038,-0.767 -0.056,-0.903 -0.82,-3.291 -1.413,-5.535 -1.784,-6.744 -0.31,-0.075 -0.699,-0.193 -1.163,-0.348 -2.279,-0.778 -5.324,-1.167 -9.136,-1.167 -3.076,0 -5.377,0.208 -6.904,0.627 -1.526,0.416 -3.192,1.069 -4.991,1.954 -1.798,0.887 -3.381,2.059 -4.741,3.517 -1.364,1.459 -2.464,3.302 -3.299,5.532 -0.839,2.229 -1.254,4.655 -1.254,7.281 0,2.489 0.328,4.666 0.99,6.525 0.661,1.855 1.685,3.74 3.064,5.645 1.383,1.908 3.011,3.494 4.889,4.756 1.878,1.266 3.967,2.162 6.261,2.687 1.617,0.351 3.903,0.525 6.857,0.525 2.162,0 4.194,-0.287 6.102,-0.861 C -1.916,1.103 -0.642,0.544 0,0"
             style="fill:#f0dbb8;fill-opacity:1;fill-rule:nonzero;stroke:none"
             id="path70" /></g><g
           id="g72"
           transform="translate(344.1909,27.2264)"><path
             d="m 0,0 c 2.082,-0.117 4.455,-0.174 7.122,-0.174 1.519,0 2.849,0.049 3.998,0.144 C 10.927,0.729 10.704,1.44 10.451,2.101 9.185,5.486 8.486,7.353 8.35,7.704 L 5.698,14.441 5.407,14.966 C 5.29,14.732 4.863,13.73 4.122,11.962 2.875,8.928 1.98,6.563 1.432,4.874 1.179,4.115 0.914,3.359 0.642,2.611 0.37,1.863 0.2,1.338 0.132,1.035 0.064,0.733 -0.038,0.427 -0.174,0.117 Z m -13.927,-17.513 c 0.272,0.159 0.518,0.235 0.729,0.235 h 0.673 c 0.136,0 0.37,0.011 0.699,0.03 1.5,0.136 2.384,0.272 2.656,0.408 0.68,0.37 1.262,1.013 1.749,1.927 1.013,1.984 2.15,4.795 3.416,8.433 0.604,1.734 0.982,2.785 1.141,3.155 0.484,1.168 0.952,2.392 1.398,3.676 l 2.747,7.674 c 0.427,1.209 1.458,3.971 3.094,8.29 0.408,1.088 0.903,2.55 1.489,4.379 l 0.858,0.057 1.02,-0.027 c 0.835,-1.655 1.575,-3.434 2.218,-5.342 0.347,-1.013 0.922,-2.521 1.719,-4.523 l 4.432,-11.996 2.357,-6.51 c 1.247,-3.696 2.063,-5.966 2.453,-6.813 0.389,-0.846 0.751,-1.405 1.08,-1.681 0.098,-0.076 0.461,-0.193 1.096,-0.348 0.631,-0.155 1.073,-0.272 1.326,-0.351 0.896,-0.253 1.519,-0.465 1.87,-0.642 0.076,-0.216 0.118,-0.378 0.118,-0.495 0,-0.099 -0.031,-0.246 -0.091,-0.439 -0.62,-0.018 -1.058,-0.03 -1.311,-0.03 -0.994,0 -2.743,0.03 -5.256,0.087 l -2.917,0.068 -3.533,-0.045 c -0.234,0 -0.472,0.011 -0.714,0.034 -0.241,0.022 -0.453,0.034 -0.627,0.034 H 11.32 c -0.216,0.019 -0.408,0.075 -0.586,0.174 0,0.272 0.049,0.536 0.148,0.789 0.234,0.114 0.449,0.182 0.642,0.204 l 3.064,0.204 c 0.797,0.038 1.402,0.144 1.81,0.321 0.117,0.352 0.174,0.613 0.174,0.79 0,0.352 -0.253,1.258 -0.76,2.721 -0.347,0.974 -0.653,1.9 -0.918,2.777 -0.261,0.876 -1.296,3.759 -3.102,8.652 -0.801,0.14 -1.5,0.208 -2.101,0.208 L 3.442,-1.489 1.606,-1.458 c -0.661,0 -1.391,-0.05 -2.192,-0.148 -0.253,-0.582 -0.415,-1.001 -0.495,-1.254 l -2.573,-8.025 c -1.088,-3.057 -1.632,-4.738 -1.632,-5.048 0,-0.178 0.087,-0.469 0.261,-0.877 0.408,-0.117 0.956,-0.223 1.636,-0.321 l 3.967,-0.351 c 0.215,-0.174 0.321,-0.329 0.321,-0.465 0,-0.098 -0.026,-0.246 -0.087,-0.438 -0.876,-0.019 -1.545,-0.031 -2.014,-0.031 -1.556,0 -3.366,0.05 -5.429,0.148 -0.952,0.038 -1.632,0.056 -2.04,0.056 -0.408,0 -1.119,-0.018 -2.131,-0.056 -0.661,-0.042 -1.138,-0.061 -1.432,-0.061 -0.465,0 -1.07,0.031 -1.81,0.087 v 0.178 c 0,0.136 0.041,0.321 0.117,0.551"
             style="fill:#f0dbb8;fill-opacity:1;fill-rule:nonzero;stroke:none"
             id="path74" /></g><g
           id="g76"
           transform="translate(400.2462,44.7957)"><path
             d="M 0,0 C 0.155,-1.285 0.234,-2.021 0.234,-2.218 L 0.117,-4.814 C 0.076,-5.924 0.026,-6.635 -0.03,-6.945 -0.204,-7.024 -0.351,-7.062 -0.469,-7.062 l -0.26,0.057 c -0.624,2.724 -1.682,4.712 -3.166,5.955 -1.489,1.246 -3.307,1.87 -5.445,1.87 -2.218,0 -4.039,-0.624 -5.46,-1.87 -1.42,-1.243 -2.127,-2.694 -2.127,-4.349 0,-1.266 0.495,-2.422 1.485,-3.473 0.994,-1.05 3.533,-2.622 7.621,-4.715 3.109,-1.609 5.339,-2.924 6.68,-3.948 1.345,-1.024 2.358,-2.207 3.038,-3.548 0.68,-1.345 1.02,-2.845 1.02,-4.5 0,-2.086 -0.54,-4.043 -1.621,-5.872 -1.077,-1.832 -2.532,-3.211 -4.36,-4.133 -1.829,-0.926 -4.255,-1.391 -7.27,-1.391 -2.626,0 -5.146,0.42 -7.556,1.255 -1.421,0.506 -2.29,0.914 -2.6,1.228 -0.31,0.31 -0.465,0.642 -0.465,0.994 0,0.211 0.019,0.483 0.057,0.816 0.272,2.293 0.419,4.182 0.438,5.66 0.038,0.914 0.106,1.45 0.204,1.605 0.076,0.136 0.223,0.204 0.439,0.204 0.173,0 0.313,-0.06 0.423,-0.189 0.106,-0.124 0.177,-0.362 0.219,-0.714 0.212,-2.395 1.322,-4.534 3.325,-6.423 1.987,-1.885 4.232,-2.83 6.744,-2.83 1.534,0 2.951,0.321 4.247,0.964 1.292,0.642 2.305,1.572 3.034,2.788 0.729,1.217 1.096,2.396 1.096,3.544 0,1.576 -0.556,3.015 -1.666,4.323 -1.108,1.299 -3.337,2.822 -6.684,4.564 -3.344,1.742 -5.524,3.011 -6.537,3.808 -1.632,1.304 -2.86,2.687 -3.676,4.145 -0.605,1.13 -0.907,2.445 -0.907,3.941 0,2.705 1.073,4.995 3.212,6.873 2.138,1.878 5.01,2.818 8.61,2.818 1.984,0 3.696,-0.226 5.135,-0.672 C -2.191,1.372 -1.111,0.797 0,0"
             style="fill:#f0dbb8;fill-opacity:1;fill-rule:nonzero;stroke:none"
             id="path78" /></g><g
           id="g80"
           transform="translate(412.7034,41.7617)"><path
             d="M 0,0 1.198,4.406 C 1.273,4.991 1.379,5.365 1.519,5.531 1.651,5.694 1.81,5.777 1.984,5.777 2.335,5.777 2.732,5.361 3.181,4.523 3.51,3.922 3.782,3.537 3.997,3.37 4.213,3.204 4.523,3.094 4.931,3.034 L 5.225,3.064 6.48,2.947 13.368,2.86 21.51,2.887 h 2.392 l 4.526,0.087 c 0.193,0 0.435,-0.019 0.729,-0.057 1.323,-0.117 2.139,-0.174 2.449,-0.174 0.294,0 0.529,0.095 0.703,0.287 0.056,0.076 0.377,0.718 0.963,1.927 0.253,0.548 0.563,0.82 0.933,0.82 0.155,0 0.352,-0.038 0.582,-0.113 0.098,-0.386 0.147,-0.733 0.147,-1.043 l -0.03,-1.16 0.03,-2.46 c 0,-0.6 -0.049,-2.531 -0.147,-5.792 0,-0.215 -0.038,-0.408 -0.113,-0.582 -0.216,-0.136 -0.401,-0.2 -0.556,-0.2 -0.155,0 -0.291,0.072 -0.408,0.215 -0.117,0.144 -0.264,0.594 -0.438,1.345 -0.389,1.735 -0.877,2.982 -1.458,3.733 -0.393,0.48 -0.949,0.828 -1.682,1.043 -0.729,0.212 -2.475,0.318 -5.237,0.318 H 19.961 C 19.923,0.302 19.904,-0.412 19.904,-1.054 l 0.234,-18.14 c 0,-0.718 -0.041,-2.082 -0.117,-4.088 l 0.031,-3.884 -0.031,-2.161 c 0,-0.684 0.117,-1.172 0.352,-1.463 0.23,-0.291 0.865,-0.574 1.896,-0.846 1.788,-0.45 2.985,-0.722 3.59,-0.82 0.37,-0.038 0.669,-0.117 0.903,-0.234 v -0.873 l -4.145,0.102 c -2.274,0.019 -3.986,0.061 -5.135,0.132 l -4.262,-0.207 -3.121,-0.174 c -0.876,0 -1.413,0.019 -1.605,0.06 l -0.408,0.174 c 0.037,0.446 0.124,0.733 0.26,0.861 0.136,0.125 0.495,0.227 1.081,0.306 0.816,0.118 1.78,0.325 2.89,0.628 1.107,0.302 1.837,0.608 2.188,0.918 0.193,0.177 0.329,0.468 0.408,0.876 0.174,0.858 0.265,2.539 0.265,5.048 v 4.965 l -0.118,10.825 -0.117,2.335 -0.03,7.795 h -4.7 c -2.8,0 -4.504,-0.17 -5.105,-0.51 C 4.152,0.042 2.732,-1.508 0.846,-4.073 0.223,-5.037 -0.321,-5.516 -0.79,-5.516 l -0.26,0.056 c -0.08,0.117 -0.118,0.227 -0.118,0.321 0,0.235 0.155,0.938 0.465,2.105 C -0.314,-1.538 -0.079,-0.525 0,0"
             style="fill:#f0dbb8;fill-opacity:1;fill-rule:nonzero;stroke:none"
             id="path82" /></g><g
           id="g84"
           transform="translate(454.6957,8.6068)"><path
             d="M 0,0 C 0.019,0.291 0.094,0.555 0.234,0.786 1.749,1.198 3.227,1.47 4.67,1.606 5.622,1.685 6.234,1.897 6.506,2.248 6.703,2.501 6.82,3.435 6.858,5.052 l 0.204,7.711 -0.031,5.229 0.031,6.835 v 1.81 c 0.019,4.111 0,6.669 -0.061,7.682 -0.019,0.196 -0.094,0.468 -0.234,0.819 -0.506,0.235 -0.933,0.39 -1.273,0.469 -0.344,0.076 -1.874,0.359 -4.591,0.846 -0.019,0.212 -0.03,0.371 -0.03,0.465 0,0.117 0.011,0.272 0.03,0.469 0.37,0 0.975,-0.023 1.814,-0.068 l 4.443,-0.167 2.573,-0.056 0.759,0.026 c 0.099,0 0.378,-0.019 0.847,-0.057 1.152,0 1.813,0.012 1.987,0.031 l 2.339,0.173 c 1.579,0 2.69,-0.03 3.332,-0.086 -0.018,-0.352 -0.086,-0.73 -0.204,-1.138 -0.211,-0.041 -1.224,-0.094 -3.034,-0.162 -1.809,-0.068 -2.852,-0.178 -3.124,-0.336 -0.446,-0.254 -0.669,-1.032 -0.669,-2.335 0,-0.31 -0.019,-0.941 -0.06,-1.897 v -1.75 l 0.03,-5.399 v -1.84 l 0.056,-9.661 -0.086,-8.229 0.03,-1.81 c 0,-0.582 0.098,-0.945 0.291,-1.081 0.487,-0.019 1.915,-0.037 4.292,-0.056 h 1.984 l 5.047,0.173 c 1.327,0.038 2.267,0.171 2.834,0.393 0.563,0.227 1.508,0.881 2.83,1.973 0.797,0.699 1.421,1.42 1.867,2.161 0.098,0.155 0.264,0.385 0.498,0.699 0.367,0.506 0.866,1.519 1.489,3.034 h 0.963 C 33.914,9.223 33.786,8.562 33.65,7.938 33.087,5.195 32.698,2.909 32.482,1.081 32.445,0.691 32.403,0.329 32.365,0 L 21.45,0.321 C 12.072,0.321 6.506,0.234 4.757,0.057 4.213,0.019 3.639,0 3.034,0 Z"
             style="fill:#f0dbb8;fill-opacity:1;fill-rule:nonzero;stroke:none"
             id="path86" /></g><g
           id="g88"
           transform="translate(496.0458,9.2265)"><path
             d="M 0,0 C 0.193,0.17 0.359,0.276 0.495,0.314 0.827,0.412 1.39,0.491 2.188,0.548 4.077,0.665 5.244,0.839 5.69,1.073 5.962,1.462 6.098,2.01 6.098,2.713 l -0.026,2.044 0.026,7.424 -0.056,3.51 0.03,7.338 -0.148,8.331 c -0.018,1.988 -0.147,3.11 -0.377,3.363 -0.352,0.37 -1.395,0.586 -3.125,0.642 -0.741,0.019 -1.391,0.08 -1.953,0.178 -0.254,0.136 -0.382,0.31 -0.382,0.525 0,0.155 0.049,0.34 0.147,0.552 0.174,0.098 0.329,0.147 0.465,0.147 0.272,0 0.605,-0.011 0.994,-0.03 1.148,-0.117 2.335,-0.174 3.559,-0.174 l 2.161,0.057 5.139,-0.118 c 2.565,0 4.571,0.031 6.011,0.091 1.44,0.057 2.411,0.087 2.917,0.087 0.449,0 1.556,-0.042 3.329,-0.117 l 4.144,0.03 0.495,-0.091 2.422,0.091 0.291,-0.147 c 0.098,-0.155 0.166,-0.321 0.204,-0.495 0,-0.272 -0.041,-0.692 -0.128,-1.255 -0.087,-0.566 -0.133,-0.918 -0.133,-1.054 0,-2.021 0.068,-3.733 0.205,-5.134 -0.019,-0.118 -0.076,-0.197 -0.171,-0.235 -0.211,0 -0.404,0.03 -0.574,0.087 -0.215,0.37 -0.502,1.024 -0.861,1.957 -0.359,0.934 -0.9,2.014 -1.621,3.238 -0.488,0.82 -0.865,1.304 -1.141,1.463 -0.272,0.154 -0.835,0.23 -1.693,0.23 -0.174,0 -1.062,0.019 -2.656,0.061 -0.431,0.018 -0.846,0.03 -1.258,0.03 L 14.01,35.161 h -0.729 c -1.069,0 -1.712,-0.136 -1.927,-0.408 -0.333,-0.468 -0.499,-1.84 -0.499,-4.115 0,-0.234 0.049,-2.569 0.148,-7.005 v -4.057 c 0.215,-0.057 0.449,-0.087 0.702,-0.087 H 12.2 c 0.329,0 0.816,-0.012 1.459,-0.031 1.012,-0.037 1.692,-0.056 2.044,-0.056 0.234,0 0.438,0.007 0.612,0.03 2.101,0.076 4.806,0.117 8.112,0.117 1.031,0.174 1.636,0.378 1.81,0.612 0.294,0.348 0.51,1.262 0.657,2.743 0.148,1.478 0.472,2.316 0.979,2.509 0.253,0 0.487,-0.049 0.699,-0.144 0.041,-0.158 0.06,-0.302 0.06,-0.438 0,-0.136 -0.019,-0.363 -0.06,-0.672 -0.098,-0.722 -0.144,-2.978 -0.144,-6.771 0,-1.013 0.053,-2.142 0.159,-3.386 0.106,-1.246 0.162,-1.915 0.162,-2.013 0,-0.174 -0.03,-0.408 -0.09,-0.699 -0.155,-0.08 -0.28,-0.117 -0.378,-0.117 h -0.204 c -0.31,0.544 -0.612,1.39 -0.903,2.539 -0.507,1.964 -1.039,3.192 -1.591,3.691 -0.555,0.495 -1.458,0.744 -2.701,0.744 -0.273,0 -0.767,-0.015 -1.489,-0.045 -0.722,-0.03 -1.791,-0.042 -3.212,-0.042 h -1.896 c -2.706,0 -4.474,-0.06 -5.313,-0.177 l -0.026,-0.964 0.026,-5.38 -0.026,-3.389 0.026,-3.306 c 0.019,-1.988 0.148,-3.136 0.382,-3.45 0.329,-0.427 1.05,-0.642 2.157,-0.642 l 1.784,0.03 c 0.155,0 0.763,-0.015 1.821,-0.045 1.062,-0.03 2.369,-0.042 3.926,-0.042 3.755,0 6.256,0.159 7.503,0.48 1.243,0.325 2.271,0.896 3.076,1.715 0.808,0.82 1.825,2.585 3.053,5.301 0.366,0.798 0.737,1.198 1.107,1.198 0.177,0 0.37,-0.075 0.585,-0.23 C 35.8,7.232 35.479,5.966 35.403,5.361 35.188,4.001 35.063,2.611 35.021,1.19 c 0,-0.642 -0.155,-1.179 -0.464,-1.606 h -0.643 l -8.202,-0.087 -3.677,0.031 -8.754,-0.117 H 9.718 c -0.446,0 -0.865,-0.012 -1.255,-0.031 -3.502,-0.155 -6.079,-0.234 -7.734,-0.234 -0.291,0 -0.491,0.049 -0.597,0.144 -0.109,0.094 -0.162,0.238 -0.162,0.427 z"
             style="fill:#f0dbb8;fill-opacity:1;fill-rule:nonzero;stroke:none"
             id="path90" /></g></g></g></g></svg>
