<?xml version="1.0" encoding="UTF-8" standalone="no"?>
<svg
   xmlns:dc="http://purl.org/dc/elements/1.1/"
   xmlns:cc="http://creativecommons.org/ns#"
   xmlns:rdf="http://www.w3.org/1999/02/22-rdf-syntax-ns#"
   xmlns:svg="http://www.w3.org/2000/svg"
   xmlns="http://www.w3.org/2000/svg"
   xmlns:sodipodi="http://sodipodi.sourceforge.net/DTD/sodipodi-0.dtd"
   xmlns:inkscape="http://www.inkscape.org/namespaces/inkscape"
   version="1.1"
   id="svg2"
   xml:space="preserve"
   width="363.81732"
   height="75.079468"
   viewBox="0 0 363.81732 75.079468"
   sodipodi:docname="logo-copy.ai"><metadata
     id="metadata8"><rdf:RDF><cc:Work
         rdf:about=""><dc:format>image/svg+xml</dc:format><dc:type
           rdf:resource="http://purl.org/dc/dcmitype/StillImage" /></cc:Work></rdf:RDF></metadata><defs
     id="defs6"><clipPath
       clipPathUnits="userSpaceOnUse"
       id="clipPath18"><path
         d="M 0,56.31 H 272.863 V 0 H 0 Z"
         id="path16" /></clipPath></defs><sodipodi:namedview
     pagecolor="#ffffff"
     bordercolor="#666666"
     borderopacity="1"
     objecttolerance="10"
     gridtolerance="10"
     guidetolerance="10"
     inkscape:pageopacity="0"
     inkscape:pageshadow="2"
     inkscape:window-width="640"
     inkscape:window-height="480"
     id="namedview4" /><g
     id="g10"
     inkscape:groupmode="layer"
     inkscape:label="logo-copy"
     transform="matrix(1.3333333,0,0,-1.3333333,0,75.079467)"><g
       id="g12"><g
         id="g14"
         clip-path="url(#clipPath18)"><g
           id="g20"
           transform="translate(177.0527,25.9092)"><path
             d="M 0,0 C -0.057,0.06 -0.105,0.128 -0.166,0.185 -0.105,0.128 -0.057,0.06 0,0"
             style="fill:#252525;fill-opacity:1;fill-rule:nonzero;stroke:none"
             id="path22" /></g><g
           id="g24"
           transform="translate(178.6992,23.4658)"><path
             d="M 0,0 C 0.018,-0.039 0.031,-0.083 0.047,-0.122 0.031,-0.083 0.018,-0.039 0,0"
             style="fill:#252525;fill-opacity:1;fill-rule:nonzero;stroke:none"
             id="path26" /></g><g
           id="g28"
           transform="translate(177.9023,24.8828)"><path
             d="M 0,0 C 0.039,-0.055 0.068,-0.118 0.105,-0.175 0.068,-0.118 0.039,-0.056 0,0"
             style="fill:#252525;fill-opacity:1;fill-rule:nonzero;stroke:none"
             id="path30" /></g><g
           id="g32"
           transform="translate(104.9765,36.9351)"><path
             d="m 0,0 0.064,-17.845 v 17.61 z"
             style="fill:#252525;fill-opacity:1;fill-rule:nonzero;stroke:none"
             id="path34" /></g><g
           id="g36"
           transform="translate(46.125,20.8125)"><path
             d="M 0,0 -0.064,14.746 V 0.235 Z"
             style="fill:#252525;fill-opacity:1;fill-rule:nonzero;stroke:none"
             id="path38" /></g><g
           id="g40"
           transform="translate(115.9716,20.8125)"><path
             d="M 0,0 -0.063,14.746 V 0.235 Z"
             style="fill:#252525;fill-opacity:1;fill-rule:nonzero;stroke:none"
             id="path42" /></g><g
           id="g44"
           transform="translate(35.1298,36.9351)"><path
             d="m 0,0 0.063,-17.845 v 17.61 z"
             style="fill:#252525;fill-opacity:1;fill-rule:nonzero;stroke:none"
             id="path46" /></g><g
           id="g48"
           transform="translate(174.1855,27.8418)"><path
             d="M 0,0 C 0.344,-0.139 0.65,-0.315 0.963,-0.486 0.656,-0.314 0.361,-0.133 0.021,0.012 0.014,0.008 0.008,0.003 0,0"
             style="fill:#252525;fill-opacity:1;fill-rule:nonzero;stroke:none"
             id="path50" /></g><g
           id="g52"
           transform="translate(246.498,36.0845)"><path
             d="M 0,0 0.064,-17.69 V -0.395 Z"
             style="fill:#252525;fill-opacity:1;fill-rule:nonzero;stroke:none"
             id="path54" /></g><g
           id="g56"
           transform="translate(265.2285,36.5952)"><path
             d="m 0,0 -2.619,-17.741 2.621,17.31 z"
             style="fill:#252525;fill-opacity:1;fill-rule:nonzero;stroke:none"
             id="path58" /></g><g
           id="g60"
           transform="translate(256.4629,15.4326)"><path
             d="M 0,0 0.033,-0.204 2.588,17.154 Z"
             style="fill:#252525;fill-opacity:1;fill-rule:nonzero;stroke:none"
             id="path62" /></g><g
           id="g64"
           transform="translate(175.6171,27.1065)"><path
             d="M 0,0 C 0.127,-0.079 0.233,-0.183 0.352,-0.268 0.233,-0.182 0.127,-0.082 0,0"
             style="fill:#252525;fill-opacity:1;fill-rule:nonzero;stroke:none"
             id="path66" /></g><g
           id="g68"
           transform="translate(0.0654,56.3096)"><path
             d="m 0,0 h -0.065 v -0.066 -55.605 -0.065 H 0 23.83 23.896 v 0.065 7.942 0.067 H 23.83 8.804 v 16.153 h 11.928 0.066 v 0.067 7.942 0.065 H 20.732 8.804 V -8.076 H 23.83 23.896 V -8.01 -0.066 0 L 23.83,0 Z"
             style="fill:#252525;fill-opacity:1;fill-rule:nonzero;stroke:none"
             id="path70" /></g><g
           id="g72"
           transform="translate(175.9687,26.7715)"><path
             d="M 0,0 C -0.119,0.087 -0.225,0.189 -0.352,0.269 -0.225,0.187 -0.119,0.088 0,0 m -0.82,0.517 c -0.313,0.172 -0.619,0.349 -0.963,0.486 0.008,0.004 0.013,0.01 0.021,0.014 0.34,-0.146 0.635,-0.327 0.942,-0.5 M 2.039,-2.13 C 2.002,-2.072 1.973,-2.01 1.934,-1.955 1.973,-2.011 2.002,-2.072 2.039,-2.13 M 2.777,-3.493 C 2.762,-3.455 2.748,-3.411 2.73,-3.372 2.748,-3.411 2.762,-3.455 2.777,-3.493 m -1.693,2.564 c -0.057,0.06 -0.105,0.128 -0.166,0.186 0.061,-0.059 0.109,-0.126 0.166,-0.186 m -14.49,22.391 h 4.144 c 3.071,0 4.381,-1.691 4.381,-5.653 v -5.481 c 0,-4.02 -1.596,-5.813 -5.176,-5.813 h -3.349 z M 4.07,-19.381 v 8.578 c 0,6.378 -1.814,10.146 -5.707,11.84 3.785,1.841 5.625,5.531 5.625,11.277 v 4.369 c 0,8.771 -4.134,12.855 -13.011,12.855 h -13.188 -0.066 v -0.066 -55.605 -0.065 h 0.066 8.738 0.067 v 0.065 22.572 h 2.953 c 4.016,0 5.652,-2.03 5.652,-7.003 v -8.738 c 0,-4.465 0.309,-5.387 0.774,-6.782 l 0.023,-0.069 0.016,-0.045 h 0.049 8.894 0.1 l -0.039,0.091 c -0.877,2.078 -0.946,4.099 -0.946,6.726"
             style="fill:#252525;fill-opacity:1;fill-rule:nonzero;stroke:none"
             id="path74" /></g><g
           id="g76"
           transform="translate(35.1298,36.9351)"><path
             d="m 0,0 0.063,-0.235 v -17.61 z m 10.995,-16.123 -0.064,0.236 v 14.51 z M 10.931,13.949 H 10.799 V 13.816 -15.14 L 2.98,13.851 2.953,13.949 h -0.1 -9.868 -0.132 v -0.133 -50.046 -0.132 h 0.132 7.078 0.133 v 0.132 35.25 l 9.534,-35.285 0.027,-0.097 h 0.101 8.079 0.133 v 0.132 50.046 0.133 h -0.133 z"
             style="fill:#252525;fill-opacity:1;fill-rule:nonzero;stroke:none"
             id="path78" /></g><g
           id="g80"
           transform="translate(69.081,51.4561)"><path
             d="M 0,0 C -7.647,0 -11.859,-4.516 -11.859,-12.716 V -38.74 c 0,-8.199 4.212,-12.716 11.859,-12.716 7.646,0 11.857,4.517 11.857,12.716 v 15.872 0.133 H 11.724 0.715 0.581 v -0.133 -7.15 -0.132 h 0.134 3.441 v -9.09 c 0,-3.226 -1.253,-4.73 -3.942,-4.73 -2.691,0 -3.944,1.504 -3.944,4.73 v 27.024 c 0,3.231 1.291,4.801 3.944,4.801 2.652,0 3.942,-1.57 3.942,-4.801 v -5.361 -0.134 h 0.132 7.436 0.133 v 0.134 4.861 C 11.857,-4.516 7.646,0 0,0"
             style="fill:#252525;fill-opacity:1;fill-rule:nonzero;stroke:none"
             id="path82" /></g><g
           id="g84"
           transform="translate(85.166,50.8843)"><path
             d="m 0,0 h -0.132 v -0.133 -50.046 -0.132 H 0 7.865 7.997 V -50.179 -0.133 0 H 7.865 Z"
             style="fill:#252525;fill-opacity:1;fill-rule:nonzero;stroke:none"
             id="path86" /></g><g
           id="g88"
           transform="translate(104.9765,36.9351)"><path
             d="m 0,0 0.064,-0.235 v -17.61 z m 10.995,-16.123 -0.063,0.236 v 14.51 z M 10.932,13.949 H 10.799 V 13.816 -15.14 L 2.98,13.851 2.954,13.949 H 2.853 -7.015 -7.146 v -0.133 -50.046 -0.132 h 0.131 7.079 0.132 v 0.132 35.25 l 9.534,-35.285 0.028,-0.097 h 0.1 8.079 0.133 v 0.132 50.046 0.133 h -0.133 z"
             style="fill:#252525;fill-opacity:1;fill-rule:nonzero;stroke:none"
             id="path90" /></g><g
           id="g92"
           transform="translate(127.8457,50.8843)"><path
             d="m 0,0 h -0.132 v -0.133 -50.046 -0.132 H 0 21.447 21.58 v 0.132 7.148 0.132 H 21.447 7.997 v 14.393 h 10.663 0.133 v 0.131 7.151 0.133 H 18.66 7.997 v 13.676 h 13.45 0.133 v 0.132 7.15 V 0 h -0.133 z"
             style="fill:#252525;fill-opacity:1;fill-rule:nonzero;stroke:none"
             id="path94" /></g><g
           id="g96"
           transform="translate(191.9316,39.2402)"><path
             d="M 0,0 C 0,3.231 1.291,4.801 3.943,4.801 6.596,4.801 7.887,3.231 7.887,0 v -27.024 c 0,-3.232 -1.291,-4.802 -3.944,-4.802 -2.652,0 -3.943,1.57 -3.943,4.802 z M 3.943,12.216 C -3.842,12.216 -8.127,7.7 -8.127,-0.5 v -26.024 c 0,-8.2 4.285,-12.716 12.07,-12.716 7.785,0 12.073,4.516 12.073,12.716 V -0.5 c 0,8.2 -4.288,12.716 -12.073,12.716"
             style="fill:#252525;fill-opacity:1;fill-rule:nonzero;stroke:none"
             id="path98" /></g><g
           id="g100"
           transform="translate(219.5273,39.2402)"><path
             d="M 0,0 C 0,3.231 1.291,4.801 3.943,4.801 6.598,4.801 7.887,3.231 7.887,0 v -27.024 c 0,-3.232 -1.289,-4.802 -3.944,-4.802 -2.652,0 -3.943,1.57 -3.943,4.802 z M 3.943,12.216 C -3.84,12.216 -8.127,7.7 -8.127,-0.5 v -26.024 c 0,-8.2 4.287,-12.716 12.07,-12.716 7.786,0 12.073,4.516 12.073,12.716 V -0.5 c 0,8.2 -4.287,12.716 -12.073,12.716"
             style="fill:#252525;fill-opacity:1;fill-rule:nonzero;stroke:none"
             id="path102" /></g><g
           id="g104"
           transform="translate(262.6093,18.8545)"><path
             d="M 0,0 2.619,17.741 2.621,17.31 Z m -16.111,17.23 0.064,-0.395 V -0.46 Z M -6.146,-3.422 -3.559,13.732 -6.113,-3.626 Z M 10.123,32.03 H -0.818 -0.932 l -0.017,-0.113 -5.235,-34.7 -5.656,34.702 -0.019,0.111 h -0.112 -10.939 -0.131 v -0.133 -50.046 -0.132 h 0.131 6.863 0.133 v 0.132 33.781 l 5.6,-33.804 0.019,-0.109 h 0.111 7.436 0.115 l 0.016,0.112 5.17,34.151 v -34.131 -0.132 h 0.133 7.437 0.131 v 0.132 50.046 0.133 z"
             style="fill:#252525;fill-opacity:1;fill-rule:nonzero;stroke:none"
             id="path106" /></g></g></g></g></svg>
