<?xml version="1.0" encoding="utf-8"?>
<!-- Generator: Adobe Illustrator 19.0.0, SVG Export Plug-In . SVG Version: 6.00 Build 0)  -->
<svg version="1.1" id="Layer_1" xmlns="http://www.w3.org/2000/svg" xmlns:xlink="http://www.w3.org/1999/xlink" x="0px" y="0px"
	 viewBox="-215 9 334 302" style="enable-background:new -215 9 334 302;" xml:space="preserve">
<style type="text/css">
	.st0{opacity:0.2;fill:#003D47;enable-background:new    ;}
	.st1{opacity:0.6;fill:#003D47;enable-background:new    ;}
	.st2{fill:#003D47;}
</style>
<g id="Padding__x26__Artboard">
</g>
<g>
	<path class="st0" d="M80.5,39.7h-257c-17.7,0-31.6,13.9-31.6,31.6v29.1h321.5V71.4C113.4,54.9,99.5,39.7,80.5,39.7z"/>
	<path class="st0" d="M60.2,58.7H-179c-16.5,0-30.4,10.1-30.4,22.8V103H89.3V81.5C90.6,68.9,76.7,58.7,60.2,58.7z"/>
	<path class="st0" d="M-163.8,277.7H62.8c15.2,0,27.8-12.7,27.8-27.8V100.5h-294.9c2.5,34.2,5.1,69.6,7.6,103.8
		C-194.2,228.4-199.3,277.7-163.8,277.7z"/>
	<path class="st1" d="M-151.2,66.3L-151.2,66.3c-6.3,0-10.1-5.1-10.1-10.1V25.8c0-6.3,5.1-10.1,10.1-10.1l0,0
		c6.3,0,10.1,5.1,10.1,10.1v30.4C-141,61.3-144.8,66.3-151.2,66.3z"/>
	<path class="st1" d="M56.4,66.3L56.4,66.3c-6.3,0-10.1-5.1-10.1-10.1V25.8c0-6.3,5.1-10.1,10.1-10.1l0,0c6.3,0,10.1,5.1,10.1,10.1
		v30.4C66.6,61.3,62.8,66.3,56.4,66.3z"/>
	<g>
		<path class="st2" d="M46.3,44.2H-141c-2.4,0-4.4-2-4.4-4.4s2-4.4,4.4-4.4H46.3c2.4,0,4.4,2,4.4,4.4S48.8,44.2,46.3,44.2z"/>
	</g>
	<g>
		<path class="st2" d="M84.3,310h-264.6c-18.8,0-33.5-14.7-33.5-33.5V68.9c0-18.8,14.7-33.5,33.5-33.5h17.7c2.4,0,4.4,2,4.4,4.4
			s-2,4.4-4.4,4.4h-17.7c-14.1,0-24.7,10.6-24.7,24.7v207.6c0,14.1,10.6,24.7,24.7,24.7H84.3c14.1,0,24.7-10.6,24.7-24.7V68.9
			c0-13.4-11.3-24.7-24.7-24.7H66.6c-2.4,0-4.4-2-4.4-4.4s2-4.4,4.4-4.4h17.7c18.2,0,33.5,15.4,33.5,33.5v207.6
			C117.8,295.3,103.1,310,84.3,310z"/>
	</g>
	<g>
		<path class="st2" d="M112.1,104.9h-319c-2.4,0-4.4-2-4.4-4.4s2-4.4,4.4-4.4h319c2.4,0,4.4,2,4.4,4.4S114.6,104.9,112.1,104.9z"/>
	</g>
	<g>
		<path class="st2" d="M-151.2,69.5c-9.1,0-14.6-7.4-14.6-14.6V24.6c0-9.1,7.4-14.6,14.6-14.6c9.1,0,14.6,7.4,14.6,14.6v30.4
			C-136.6,62.1-142.1,69.5-151.2,69.5z M-151.2,18.9c-2.8,0-5.7,2-5.7,5.7v30.4c0,2.8,2,5.7,5.7,5.7c3.7,0,5.7-2.9,5.7-5.7V24.6
			C-145.5,21.8-147.5,18.9-151.2,18.9z"/>
	</g>
	<g>
		<path class="st2" d="M56.4,69.5c-9.1,0-14.5-7.4-14.5-14.6V24.6c0-9.1,7.4-14.6,14.5-14.6C65.5,10,71,17.4,71,24.6v30.4
			C71,62.1,65.5,69.5,56.4,69.5z M56.4,18.9c-2.8,0-5.7,2-5.7,5.7v30.4c0,2.8,2,5.7,5.7,5.7s5.7-2.9,5.7-5.7V24.6
			C62.1,21.8,60.1,18.9,56.4,18.9z"/>
	</g>
	<g>
		<path class="st2" d="M-34.7,63.2h-59.5c-2.4,0-4.4-2-4.4-4.4s2-4.4,4.4-4.4h59.5c2.4,0,4.4,2,4.4,4.4S-32.3,63.2-34.7,63.2z"/>
	</g>
	<g>
		<path class="st2" d="M-0.5,63.2h-17.7c-2.4,0-4.4-2-4.4-4.4s2-4.4,4.4-4.4h17.7c2.4,0,4.4,2,4.4,4.4S1.9,63.2-0.5,63.2z"/>
	</g>
	<rect x="-128.4" y="152.4" class="st1" width="57" height="31.6"/>
	<rect x="-24.6" y="152.4" class="st1" width="57" height="31.6"/>
	<rect x="-24.6" y="215.7" class="st1" width="57" height="31.6"/>
	<rect x="-127.1" y="215.7" class="st1" width="57" height="31.6"/>
	<g>
		<path class="st2" d="M-71.4,188.5h-57c-2.4,0-4.4-2-4.4-4.4v-31.6c0-2.4,2-4.4,4.4-4.4h57c2.4,0,4.4,2,4.4,4.4v31.6
			C-67,186.5-69,188.5-71.4,188.5z M-123.9,179.6h48.1v-22.8h-48.1V179.6z"/>
	</g>
	<g>
		<path class="st2" d="M32.4,188.5h-57c-2.4,0-4.4-2-4.4-4.4v-31.6c0-2.4,2-4.4,4.4-4.4h57c2.4,0,4.4,2,4.4,4.4v31.6
			C36.8,186.5,34.8,188.5,32.4,188.5z M-20.2,179.6H28v-22.8h-48.1V179.6z"/>
	</g>
	<g>
		<path class="st2" d="M32.4,251.8h-57c-2.4,0-4.4-2-4.4-4.4v-31.6c0-2.4,2-4.4,4.4-4.4h57c2.4,0,4.4,2,4.4,4.4v31.6
			C36.8,249.8,34.8,251.8,32.4,251.8z M-20.2,242.9H28v-22.8h-48.1V242.9z"/>
	</g>
	<g>
		<path class="st2" d="M-70.1,251.8h-57c-2.4,0-4.4-2-4.4-4.4v-31.6c0-2.4,2-4.4,4.4-4.4h57c2.4,0,4.4,2,4.4,4.4v31.6
			C-65.7,249.8-67.7,251.8-70.1,251.8z M-122.7,242.9h48.1v-22.8h-48.1V242.9z"/>
	</g>
</g>
</svg>
