<?xml version="1.0" encoding="utf-8"?>
<!-- Generator: Adobe Illustrator 19.0.0, SVG Export Plug-In . SVG Version: 6.00 Build 0)  -->
<svg version="1.1" id="Layer_1" xmlns="http://www.w3.org/2000/svg" xmlns:xlink="http://www.w3.org/1999/xlink" x="0px" y="0px"
	 viewBox="-239 45 320 434" style="enable-background:new -239 45 320 434;" xml:space="preserve">
<style type="text/css">
	.st0{fill:#FFFFFF;}
</style>
<path class="st0" d="M-227,478c-2.2,0-4-1.8-4-4v-40c0-2.2,1.8-4,4-4h44V286h-36c-2.2,0-4-1.8-4-4v-40c0-2.2,1.8-4,4-4h36v-74
	c0-33.2,13-63.2,36.6-84.5C-122.5,57.9-88.6,46-51.1,46c45.8,0,80.3,20.9,96.8,33.3c1.2,0.9,1.5,2.1,1.6,2.7c0.1,0.6,0.1,1.9-0.9,3
	l-28.5,35.5c-0.8,1-1.9,1.5-3.1,1.5c-0.7,0-1.5-0.2-2.1-0.6c-12-7.5-36-20.1-61.9-20.1c-40.4,0-69.8,27.4-69.8,65.1V238h92
	c2.2,0,4,1.8,4,4v40c0,2.2-1.8,4-4,4h-92v142.8H19.5V370c0-2.2,1.8-4,4-4H69c2.2,0,4,1.8,4,4v104c0,2.2-1.8,4-4,4H-227z"/>
</svg>
