<?xml version="1.0" encoding="utf-8"?>
<!-- Generator: Adobe Illustrator 19.0.0, SVG Export Plug-In . SVG Version: 6.00 Build 0)  -->
<svg version="1.1" id="Layer_1" xmlns="http://www.w3.org/2000/svg" xmlns:xlink="http://www.w3.org/1999/xlink" x="0px" y="0px"
	 viewBox="0 0 538.6 204.1" style="enable-background:new 0 0 538.6 204.1;" xml:space="preserve">
<style type="text/css">
	.st0{fill:#F1DCB8;}
	.st1{fill:#003F48;}
	.st2{fill:#11385F;}
</style>
<g>
	<path class="st0" d="M269.3,5.2c-26.7,0-48.4,28.2-48.4,62.8c0,34.6,21.7,62.8,48.4,62.8c26.7,0,48.4-28.2,48.4-62.8
		C317.7,33.4,296,5.2,269.3,5.2"/>
	<path class="st1" d="M269.3,132.1c-27.3,0-49.5-28.7-49.5-64.1S242,4,269.3,4c27.3,0,49.5,28.7,49.5,64.1S296.6,132.1,269.3,132.1
		 M269.3,5.2C242.7,5.2,221,33.4,221,68c0,34.6,21.7,62.8,48.3,62.8s48.3-28.2,48.3-62.8C317.6,33.4,295.9,5.2,269.3,5.2"/>
	<path class="st2" d="M319.7,63.2c0-0.6-0.1-1.1-0.1-1.7c-0.1-1.6-0.3-3.2-0.5-4.8c-0.1-0.4-0.1-0.8-0.2-1.2
		c-0.1-0.7-0.2-1.3-0.3-1.9v0c-0.1-0.7-0.3-1.4-0.4-2.2c0-0.1,0-0.2-0.1-0.3c-0.2-0.7-0.3-1.4-0.5-2.1c-0.5-2-1-4-1.6-5.9
		c-0.5-1.6-1.1-3.2-1.7-4.8c-0.3-0.8-0.6-1.6-1-2.4c-0.3-0.6-0.5-1.2-0.8-1.8c-0.6-1.3-1.3-2.7-2-3.9c-0.2-0.4-0.5-0.8-0.7-1.3
		c-0.4-0.7-0.8-1.3-1.2-2c-2.6-4.2-5.7-8-9.1-11.3c-0.7-0.6-1.3-1.2-2-1.8l0,0c-0.7-0.6-1.4-1.1-2-1.7l0,0c-0.5-0.4-1-0.8-1.6-1.2
		c-0.5-0.4-1.1-0.8-1.6-1.1c0,0,0,0,0,0c-3.9-2.6-8-4.5-12.4-5.7c-0.8-0.2-1.7-0.4-2.6-0.6c-0.7-0.1-1.3-0.2-2-0.4
		c-2-0.3-4-0.5-6-0.5c-1.7,0-3.4,0.1-5.1,0.3c-0.3,0-0.6,0.1-0.8,0.1c-0.8,0.1-1.7,0.3-2.5,0.5c-3.3,0.7-6.5,1.8-9.5,3.3
		c-1.5,0.7-3,1.6-4.5,2.5c-1,0.6-1.9,1.3-2.8,2c-0.6,0.4-1.2,0.9-1.8,1.4c-0.6,0.5-1.1,1-1.7,1.5c-0.8,0.8-1.7,1.5-2.5,2.4
		c-11.8,11.9-19.3,30.5-19.3,51.3c0,20.8,7.6,39.3,19.3,51.3c0.6,0.6,1.3,1.3,1.9,1.9c1.3,1.2,2.7,2.3,4.1,3.4
		c2.8,2.1,5.8,3.9,8.9,5.2c0.8,0.3,1.6,0.7,2.4,1c4.4,1.6,9,2.5,13.8,2.5c4.8,0,9.4-0.9,13.8-2.5c0.8-0.3,1.6-0.6,2.4-1
		c3.1-1.4,6.1-3.1,8.9-5.2c1.4-1,2.8-2.2,4.1-3.4c0.5-0.5,1-0.9,1.5-1.4c0.5-0.5,1-1,1.4-1.5c0.3-0.3,0.6-0.7,0.9-1
		c0.3-0.3,0.5-0.6,0.8-0.9c0.5-0.6,1-1.2,1.5-1.9c0.3-0.3,0.5-0.6,0.8-1c0.7-1,1.5-2,2.1-3c0.2-0.3,0.5-0.7,0.7-1v0
		c0.5-0.8,1-1.6,1.5-2.5v0c0.3-0.5,0.6-1,0.9-1.6c0.6-1.1,1.1-2.2,1.7-3.3c0.3-0.6,0.5-1.1,0.8-1.7v0c0.6-1.4,1.2-2.8,1.7-4.2
		c0.4-1,0.7-1.9,1-2.9v0c0.6-1.9,1.2-3.9,1.7-6c0.2-0.8,0.4-1.5,0.5-2.3c0.1-0.7,0.3-1.4,0.4-2c0.5-2.8,0.9-5.6,1.1-8.4
		c0-0.5,0.1-1.1,0.1-1.6c0-0.4,0-0.8,0.1-1.2c0.1-1.2,0.1-2.5,0.1-3.7C319.8,66.4,319.8,64.8,319.7,63.2 M318.1,77.8
		c-0.1,1.1-0.3,2.1-0.4,3.2c-0.2,1-0.3,2.1-0.5,3.1c-0.2,1-0.4,2-0.7,3c-0.5,2-1,4-1.7,5.9c-0.2,0.6-0.4,1.2-0.6,1.8
		c-0.3,0.9-0.6,1.8-1,2.6c-0.3,0.9-0.7,1.7-1.1,2.6c-0.6,1.3-1.2,2.7-1.9,3.9c-0.2,0.3-0.3,0.6-0.5,0.9c-0.1,0.1-0.1,0.2-0.2,0.3
		c-0.4,0.8-0.9,1.5-1.3,2.3c-9,15.1-23.2,24.7-39,24.7c-27.2,0-49.4-28.8-49.4-64.1c0-21,7.8-39.7,19.9-51.4
		c0.6-0.6,1.3-1.2,1.9-1.8c0.3-0.3,0.7-0.6,1-0.8c1-0.8,2-1.6,3.1-2.4c2.5-1.7,5-3.2,7.7-4.4c0.8-0.3,1.5-0.6,2.3-0.9
		c4.3-1.6,8.8-2.4,13.5-2.4c4.7,0,9.2,0.9,13.5,2.4c0.8,0.3,1.6,0.6,2.3,0.9c2.7,1.2,5.2,2.7,7.7,4.4c1,0.7,2.1,1.5,3.1,2.4
		c0.3,0.3,0.7,0.6,1,0.8c0.7,0.6,1.3,1.2,1.9,1.8c3.5,3.4,6.6,7.4,9.3,11.8c0.5,0.8,1,1.6,1.4,2.5c0.2,0.4,0.5,0.8,0.7,1.3
		c0.7,1.3,1.3,2.6,1.9,3.9v0c0.8,1.7,1.4,3.4,2.1,5.2c0.2,0.6,0.4,1.2,0.6,1.8v0c0.6,1.9,1.2,3.9,1.7,5.9c0.2,1,0.5,2,0.7,3
		c0.1,0.6,0.2,1.3,0.4,1.9c0.1,0.6,0.2,1.1,0.3,1.7c0.3,1.7,0.5,3.5,0.6,5.2c0.2,2.3,0.3,4.7,0.3,7.1
		C318.7,71.3,318.5,74.6,318.1,77.8"/>
	<path class="st0" d="M319.7,63.2c0-0.6-0.1-1.1-0.1-1.7c-0.1-1.6-0.3-3.2-0.5-4.8c-0.1-0.4-0.1-0.8-0.2-1.2
		c-0.1-0.7-0.2-1.3-0.3-1.9v0c-0.1-0.7-0.3-1.4-0.4-2.2c0-0.1,0-0.2-0.1-0.3c-0.2-0.7-0.3-1.4-0.5-2.1c-0.5-2-1-4-1.6-5.9
		c-0.5-1.6-1.1-3.2-1.7-4.8c-0.3-0.8-0.6-1.6-1-2.4c-0.3-0.6-0.5-1.2-0.8-1.8c-0.6-1.3-1.3-2.6-2-3.9c-0.2-0.4-0.5-0.8-0.7-1.3
		c-0.4-0.7-0.8-1.3-1.2-2c-2.7-4.2-5.7-8-9.1-11.3c-0.7-0.6-1.3-1.2-2-1.8l0,0c-0.7-0.6-1.4-1.1-2-1.7l0,0c-0.5-0.4-1-0.8-1.6-1.2
		c-0.5-0.4-1.1-0.8-1.6-1.1c0,0,0,0,0,0c-3.9-2.6-8-4.5-12.4-5.7c-0.8-0.2-1.7-0.4-2.6-0.6c-0.7-0.1-1.3-0.2-2-0.4
		c-2-0.3-4-0.5-6-0.5c-1.7,0-3.4,0.1-5.1,0.3c-0.3,0-0.6,0.1-0.8,0.1c-0.8,0.1-1.7,0.3-2.5,0.5c-3.3,0.7-6.5,1.8-9.5,3.3
		c-1.5,0.7-3,1.6-4.5,2.5c-1,0.6-1.9,1.3-2.8,2c-0.6,0.4-1.2,0.9-1.8,1.4c-0.6,0.5-1.1,1-1.7,1.5c-0.8,0.8-1.7,1.5-2.5,2.4
		c-11.8,11.9-19.3,30.5-19.3,51.3c0,20.8,7.6,39.3,19.3,51.3c0.6,0.6,1.3,1.3,1.9,1.9c1.3,1.2,2.7,2.4,4.1,3.4
		c2.8,2.1,5.8,3.9,8.9,5.2c0.8,0.3,1.6,0.7,2.4,1c4.4,1.6,9,2.5,13.8,2.5c4.8,0,9.4-0.9,13.8-2.5c0.8-0.3,1.6-0.6,2.4-1
		c3.1-1.4,6.1-3.1,8.9-5.2c1.4-1,2.8-2.2,4.1-3.4c0.5-0.5,1-0.9,1.5-1.4c0.5-0.5,1-1,1.4-1.5c0.3-0.3,0.6-0.7,0.9-1
		c0.3-0.3,0.5-0.6,0.8-0.9c0.5-0.6,1-1.2,1.5-1.9c0.3-0.3,0.5-0.6,0.8-1c0.7-1,1.5-2,2.1-3c0.2-0.3,0.5-0.7,0.7-1v0
		c0.5-0.8,1-1.6,1.5-2.5v0c0.3-0.5,0.6-1,0.9-1.6c0.6-1.1,1.1-2.2,1.7-3.3c0.3-0.6,0.5-1.1,0.8-1.7v0c0.6-1.4,1.2-2.8,1.7-4.2
		c0.4-0.9,0.7-1.9,1-2.9v0c0.6-1.9,1.2-3.9,1.7-6c0.2-0.8,0.4-1.5,0.5-2.3c0.1-0.7,0.3-1.4,0.4-2c0.5-2.8,0.9-5.6,1.1-8.4
		c0-0.5,0.1-1.1,0.1-1.6c0-0.4,0-0.8,0.1-1.2c0.1-1.2,0.1-2.5,0.1-3.7C319.8,66.4,319.8,64.8,319.7,63.2 M317.7,80.9
		c-0.2,1-0.3,2.1-0.5,3.1c-0.2,1-0.4,2-0.7,3c-0.5,2-1,4-1.7,5.9c-0.2,0.6-0.4,1.2-0.6,1.8c-0.3,0.9-0.6,1.8-1,2.6
		c-0.3,0.9-0.7,1.7-1.1,2.6c-0.6,1.3-1.2,2.7-1.9,3.9c-0.2,0.3-0.3,0.6-0.5,0.9c-0.1,0.1-0.1,0.2-0.2,0.3c-0.4,0.8-0.9,1.5-1.3,2.3
		c-9,15.1-23.2,24.7-39,24.7c-27.2,0-49.4-28.8-49.4-64.1c0-21,7.8-39.7,19.9-51.4c0.6-0.6,1.3-1.2,1.9-1.8c0.3-0.3,0.7-0.6,1-0.9
		c1-0.8,2-1.6,3.1-2.4c2.5-1.7,5-3.2,7.7-4.4c0.8-0.3,1.5-0.6,2.3-0.9c4.3-1.6,8.8-2.4,13.5-2.4c4.7,0,9.2,0.8,13.5,2.4
		c0.8,0.3,1.6,0.6,2.3,0.9c2.7,1.2,5.2,2.7,7.7,4.4c1,0.7,2.1,1.5,3.1,2.4c0.3,0.3,0.7,0.6,1,0.9c0.7,0.6,1.3,1.2,1.9,1.8
		c3.5,3.4,6.6,7.4,9.3,11.8c0.5,0.8,1,1.6,1.4,2.5c0.2,0.4,0.5,0.8,0.7,1.3c0.7,1.3,1.3,2.6,1.9,3.9v0c0.7,1.7,1.4,3.4,2.1,5.2
		c0.2,0.6,0.4,1.2,0.6,1.8v0c0.6,1.9,1.2,3.9,1.7,5.9c0.2,1,0.5,2,0.7,3c0.1,0.6,0.2,1.3,0.4,1.9c0.1,0.6,0.2,1.1,0.3,1.7
		c0.3,1.7,0.5,3.5,0.6,5.2c0.2,2.4,0.3,4.7,0.3,7.2c0,3.3-0.2,6.6-0.6,9.7C318,78.8,317.9,79.9,317.7,80.9"/>
	<path class="st1" d="M252.5,38.4c0.8,0.4,2.1,0.9,4.4,1.2c3.2,0.5,7.5,0.8,12.3,0.8c4.8,0,9.2-0.3,12.3-0.8
		c2.4-0.4,3.8-0.9,4.6-1.3c-2.5-1-8.2-1.7-16.7-1.7C260.6,36.6,254.8,37.4,252.5,38.4 M253.6,35L253.6,35c0,0,0.1,0,0.1,0
		c0,0,0,0,0,0c0.7-0.2,1.6-0.4,2.6-0.5c3.3-0.5,8-0.8,13-0.8c5.1,0,9.7,0.3,13,0.8c1,0.2,1.9,0.3,2.6,0.5c0,0,0,0,0,0
		c0,0,0.1,0,0.1,0h0c0.7,0.2,1.3,0.4,1.7,0.6c0-0.2,0-0.4,0.1-0.6l0-0.2l0.1-1.3l0.1-0.9c-0.4-0.4-1.4-1-4.8-1.5
		c-1-0.2-2.2-0.3-3.5-0.4c-0.3,0-0.7-0.1-1-0.1h0c-2.3-0.2-4.9-0.3-7.6-0.3l-0.8-0.6c-0.1,0-0.1,0-0.2,0l-0.8,0.6
		c-2.8,0-5.4,0.1-7.7,0.3c-0.4,0-0.7,0.1-1.1,0.1c-1.2,0.1-2.3,0.3-3.2,0.4c-4.2,0.7-4.9,1.5-5,1.7l0.1,1l0.1,1v0l0,0.4
		c0,0.2,0,0.4,0,0.6C252.2,35.4,252.8,35.2,253.6,35 M285.2,32.4l1,1.5l-1.1,0.7l-1.2-1.5L285.2,32.4z M277.1,31.8
		c0.1-0.5,0.5-0.9,1-1c0.4-0.1,0.8,0.1,1,0.3c0.3,0.3,0.4,0.7,0.3,1c-0.1,0.5-0.5,0.9-1,1c-0.4,0.1-0.8-0.1-1-0.3
		C277.2,32.6,277,32.2,277.1,31.8 M269.1,30.2l0.3-0.2l0,0l2,1.5l-2.1,1.5l-2.1-1.5L269.1,30.2z M259.6,31.2
		c0.2-0.2,0.5-0.4,0.8-0.4c0.1,0,0.1,0,0.2,0c0.2,0,0.5,0.2,0.6,0.3c0.2,0.2,0.3,0.4,0.3,0.6c0.1,0.4-0.1,0.8-0.3,1
		c-0.3,0.3-0.7,0.4-1,0.3c-0.5-0.1-0.9-0.5-1-1C259.2,31.8,259.3,31.4,259.6,31.2 M253.5,32.4l1.3,0.7l-1.2,1.5l-1.1-0.7L253.5,32.4
		z M295.2,22.6c-0.3-0.5-1.2-0.1-1.6-0.4c-0.2-0.2-0.1,0-0.3-0.2c-1.1-0.6-1.4,0.9-1.4,0.9s-0.1-1.2-1.1-0.9
		c-0.4,0.1-0.6,0.6-0.2,1.7c0.4,1.1,0.1,1.3-0.1,1.1c-0.2-0.1-0.3-0.2-0.5-0.6c-0.2-0.5-1-1.2-1.7-0.9c-0.3,0.1-0.4,0.7-0.1,1
		c-0.1,0-0.8-0.4-1.2,0.2c-0.3,0.5-0.2,1.1,0.5,1.4c0,0-1.2,0.1-0.3,1.1c0.3,0.3,0.6,0.4,0.9,0.6c-1.3,0.5-2.9,1-4.2,0.6
		c-1.1-0.3-1.6-1-2-1.7c0.1,0.1,0.2,0.1,0.4,0.1c0.9,0.2,0.9-0.7,0.9-0.7s1.3,0.5,1.6-0.6c0.4-1.6-1-1.5-1-1.5
		c0.5-1.5-1.7-1.1-1.7-1.1s0.6-0.6,1.1-0.8c0.5-0.3,0.5-1.2-0.5-1.3c0,0-0.1-1-1.1-1.2c-1-0.2-1.4,0.8-1.4,0.8c-1-0.3-1.3,0.6-0.9,1
		c0.4,0.4,0.8,1.1,0.8,1.1c-0.1,0-1.9-1-2,0.5c0,0-1.3-0.5-1.4,1.1c-0.1,1.2,1.4,1.1,1.4,1.1s-0.3,0.8,0.7,0.9c0.3,0,0.6,0,1-0.1
		c-0.8,0.8-2.2,1.6-4.7,1.6c-2.8-0.1-4.1-1-4.7-1.9c0.3,0.1,0.5,0.2,0.8,0.2c0.9,0.1,0.8-0.8,0.8-0.8s1.4,0.3,1.5-0.8
		c0.2-1.6-1.2-1.3-1.2-1.3c0.2-1.6-1.8-0.8-1.8-0.8s0.5-0.7,1-1c0.4-0.3,0.3-1.3-0.7-1.2c0,0-0.3-1-1.3-1c-1,0-1.3,1-1.3,1
		c-1-0.1-1.2,0.8-0.7,1.2c0.4,0.3,1,1,1,1s-2.1-0.7-1.8,0.8c0,0-1.4-0.3-1.2,1.3c0.1,1.2,1.5,0.8,1.5,0.8s-0.1,0.9,0.8,0.8
		c0.2,0,0.5-0.1,0.8-0.2c-0.6,0.8-1.9,1.8-4.7,1.9c-2.5,0.1-4-0.8-4.7-1.6c0.4,0.1,0.7,0.2,0.9,0.1c0.9-0.1,0.7-0.9,0.7-0.9
		s1.4,0.1,1.4-1.1c-0.1-1.6-1.4-1.1-1.4-1.1c0-1.6-1.9-0.6-2-0.5c0,0,0.4-0.8,0.8-1.1c0.4-0.4,0.1-1.3-0.9-1c0,0-0.4-1-1.4-0.8
		c-1,0.2-1.1,1.2-1.1,1.2c-1,0-1,1-0.5,1.3c0.5,0.3,1.1,0.8,1.1,0.8s-2.2-0.4-1.7,1.1c0,0-1.4,0-1,1.5c0.3,1.1,1.6,0.6,1.6,0.6
		s0,0.9,0.9,0.7c0.1,0,0.2-0.1,0.4-0.1c-0.3,0.7-0.9,1.4-2,1.7c-1.3,0.3-3-0.1-4.2-0.6c0.3-0.1,0.6-0.3,0.9-0.6
		c0.9-1-0.3-1.1-0.3-1.1c0.6-0.3,0.8-0.9,0.5-1.4c-0.4-0.7-1.2-0.3-1.2-0.2c0.3-0.2,0.2-0.8-0.1-1c-0.7-0.3-1.5,0.4-1.7,0.9
		c-0.2,0.5-0.3,0.5-0.5,0.6c-0.2,0.1-0.5-0.1-0.1-1.1c0.4-1.1,0.1-1.6-0.2-1.7c-1-0.3-1.1,0.9-1.1,0.9s-0.3-1.5-1.4-0.9
		c-0.2,0.1-0.1,0-0.3,0.2c-0.3,0.3-1.3-0.1-1.6,0.4c-0.3,0.5,0.1,1.3,1.7,2.5c1.1,0.8,2.1,1.8,2.6,2.2c0,0.1,0.1,0.2,0.2,0.2
		c0,0,0,0,0.1,0v0c0,0,0,0,0,0l0,0c2,1.2,2.5,2.8,2.5,2.8c0,0.1,0.1,0.2,0.1,0.2l0,0c-0.3,0.3-0.3,0.9,0,1.2
		c0.1,0.1,0.1,0.1,0.2,0.1c0.7-0.8,2.5-1.4,5.5-1.9c3.3-0.5,8-0.8,13.1-0.8c5.1,0,9.7,0.3,13.1,0.8c2.9,0.5,4.7,1.1,5.4,1.9
		c0,0,0,0,0.1-0.1c0.2-0.2,0.3-0.4,0.3-0.6c0-0.2-0.1-0.4-0.2-0.6c0,0,0,0,0,0c0.1-0.1,0.1-0.1,0.1-0.2c0,0,0.5-1.6,2.5-2.8l0,0l0,0
		v0c0,0,0,0,0.1,0c0.1-0.1,0.2-0.1,0.2-0.2c0.5-0.5,1.5-1.4,2.6-2.2C295.1,24,295.5,23.2,295.2,22.6 M251.6,30.1
		c0-0.1-0.2-0.6-0.6-1.1c0.8,0.2,1.6,0.4,2.4,0.5C252.6,29.7,252,29.9,251.6,30.1 M256.5,24.8c-0.1-0.9,0.6-1.6,1.5-1.5
		c0.5,0.1,1,0.5,1.1,1.1c0.1,0.9-0.6,1.6-1.5,1.5C257,25.8,256.6,25.3,256.5,24.8 M256.1,28.9c1-0.6,1.5-1.5,1.8-2.4
		c0.6,0.7,1.5,1.4,2.9,1.8C258.9,28.4,257.4,28.6,256.1,28.9 M268.2,24.1c-0.1-0.9,0.6-1.6,1.5-1.5c0.5,0.1,1,0.5,1.1,1.1
		c0.1,0.9-0.6,1.6-1.5,1.5C268.7,25.1,268.3,24.6,268.2,24.1 M269.4,28c-0.8,0-1.7,0-2.4,0c1.3-0.5,2-1.3,2.4-2
		c0.4,0.7,1.1,1.4,2.4,2C271,28,270.2,28,269.4,28 M281.3,23.3c0.5,0.1,1,0.5,1.1,1.1c0.1,0.9-0.6,1.6-1.5,1.5
		c-0.5-0.1-1-0.5-1.1-1.1C279.7,23.9,280.5,23.2,281.3,23.3 M278,28.3c1.4-0.4,2.3-1.2,2.9-1.8c0.3,0.9,0.8,1.8,1.8,2.4
		C281.4,28.6,279.8,28.4,278,28.3 M287.1,30.1c-0.4-0.2-1-0.4-1.8-0.7c0.8,0,1.6-0.2,2.4-0.5C287.3,29.6,287.2,30,287.1,30.1
		 M286.6,36c-0.1,0-1.4-0.5-2.2-0.7c0,0,0,0-0.1,0c-0.6-0.1-1.2-0.2-1.8-0.4c-3.4-0.5-8-0.8-13.1-0.8h0c-5.1,0-9.8,0.3-13.1,0.8
		c-0.7,0.1-1.3,0.2-1.8,0.4c0,0,0,0-0.1,0c-0.9,0.2-2.2,0.7-2.2,0.7c-0.9,0.4-1.5,1.1-1.3,1.5c0.1,0.3,0.6,0.5,1.1,0.4
		c0.2,0,0.5-0.1,0.7-0.1c0.1,0,0.1,0,0.2-0.1c0,0,0,0,0,0h0c0.9-0.3,2.1-0.6,3.5-0.8c3.3-0.5,8-0.8,13-0.8h0c5.1,0,9.7,0.3,13,0.8
		c1.5,0.2,2.6,0.5,3.5,0.8h0c0,0,0,0,0,0c0.1,0,0.1,0,0.2,0.1c0.3,0.1,0.5,0.1,0.7,0.1c0.5,0,1-0.1,1.1-0.4
		C288.1,37,287.6,36.3,286.6,36 M257,36.7c-0.4,0-0.8-0.4-0.8-0.8c0-0.4,0.4-0.8,0.8-0.8c0.4,0,0.8,0.4,0.8,0.8
		C257.8,36.3,257.5,36.7,257,36.7 M264.8,35.9c-0.4,0-0.8-0.4-0.8-0.8c0-0.4,0.4-0.8,0.8-0.8c0.4,0,0.8,0.4,0.8,0.8
		C265.6,35.6,265.3,35.9,264.8,35.9 M273.9,35.9c-0.4,0-0.8-0.4-0.8-0.8c0-0.4,0.4-0.8,0.8-0.8c0.4,0,0.8,0.4,0.8,0.8
		C274.7,35.6,274.4,35.9,273.9,35.9 M281.7,36.7c-0.4,0-0.8-0.4-0.8-0.8c0-0.4,0.4-0.8,0.8-0.8c0.4,0,0.8,0.4,0.8,0.8
		C282.5,36.3,282.2,36.7,281.7,36.7"/>
	<path class="st1" d="M307.3,103.9l-0.2,1.3c-8.8-0.4-15.3-0.2-20.1-5.3c-5.5-5.9-9.8-13.4-11.5-17c-3.3-7.1-6.3-5-12.1-6v13.7
		c0,9.4,0.2,11.1,11.5,12.7v1.3h-29.2v-1.3c10-1.4,10-3.9,10.3-12.7V77.3l0-10.7v-8.5l0-0.1l-0.1,0l-0.1-0.1h0.1c0,0,0,0-0.1,0
		c0,0,0,0,0,0c0,0,0-0.1,0-0.1l0,0l-0.1-0.1l0,0l-0.1-0.1h0.2v-2.1l-0.1-0.1h0.1v-0.2l-0.1-0.1h0l-0.1-0.2h0.2v0h-0.2
		c0.1,0,0.1-0.1,0.1-0.2c0.1-0.2,0.2-0.3,0.3-0.3c0.1,0,0.2-0.1,0.2-0.2c0-0.1,0.1-0.5,0.1-0.5c0,0,0,0,0,0c0,0,0,0,0.1,0v-0.1
		c0,0-0.1-0.1-0.1-0.1c0,0,0,0,0,0c0,0,0,0,0,0c0-0.1,0-0.1,0.1-0.1v0l0-0.2l0-0.2c0,0,0,0,0,0l0,0.2l0,0.2v0c0.1,0,0.1,0.1,0.1,0.1
		c0,0,0,0,0,0c0,0,0,0,0,0c0,0,0,0.1-0.1,0.1v0.1c0,0,0.1,0,0.1,0c0,0,0,0-0.1,0c0,0.1,0,0.5,0.1,0.5c0,0.1,0.1,0.2,0.2,0.2
		c0.1,0,0.3,0.1,0.3,0.3c0,0.2,0.1,0.2,0.1,0.2H257v0h0.2l-0.1,0.2h0l-0.1,0.1v0.2h0.1l-0.1,0.1v0.5h0.4v0.5h0.4v0.4h0.4v-0.4h0.4
		v-0.5h0.4V55h0v-0.1h0v-0.1h0v-0.1h0l-0.1-0.2h0.1v0h0.1v-0.1h0.4v0.1h0.1v0h0.1l-0.1,0.2h0v0.1h0v0.1h0V55h0v0.9h0.3V55h0v-0.1h0
		v-0.1h0v-0.1h0l-0.1-0.2h0.1v0h0.1v-0.1h0.4v0.1h0.1v0h0.1l-0.1,0.2h0v0.1h0v0.1h0V55h0v0.9h0.4v0.5h0.4v0.4h0.4v-0.4h0.4v-0.5h0.4
		v-0.5l-0.1-0.1h0.1v-0.2l-0.1-0.1h0.1v0H262l-0.1-0.2h0c0,0,0.1-0.1,0.1-0.2c0-0.2,0.2-0.3,0.3-0.3c0.1,0,0.2-0.1,0.2-0.2
		c0-0.1,0.1-0.5,0.1-0.5c0,0,0,0,0,0c0,0,0,0,0.1,0v-0.1c0,0-0.1-0.1-0.1-0.1c0,0,0,0,0,0s0,0,0,0c0-0.1,0-0.1,0.1-0.1c0,0,0,0,0,0
		l0-0.2l0-0.2c0,0,0,0,0,0l0,0.2l0,0.2v0c0.1,0,0.1,0.1,0.1,0.1c0,0,0,0,0,0s0,0,0,0c0,0,0,0.1-0.1,0.1v0.1c0,0,0.1,0,0.1,0
		c0,0,0,0,0,0c0,0,0,0.5,0.1,0.5c0,0.1,0.1,0.2,0.2,0.2c0,0,0,0,0,0c0.1,0,0.2,0.1,0.3,0.3c0,0.2,0.1,0.2,0.1,0.2l-0.1,0.2h-0.1v0
		h0.1l-0.1,0.1v0.2h0.1l-0.1,0.1v2.1h0l0.2,0l-0.1,0.1l0,0l-0.1,0.1l0,0c0,0,0,0.1-0.1,0.1c-0.1,0-0.1,0-0.1,0h0.1l-0.1,0.1l-0.1,0
		l0,0.1v17.2c8-0.1,17.3-3.8,17.3-13.3c0-9.8-8.3-13.9-17-13.9h-0.3l-17,0.1V47l20.3-0.7c20.9-0.7,22.6,9.8,22.6,13.9
		c0,7.2-4.3,11.2-10.3,14l0.4,0.6C285.6,86.3,293.6,101,307.3,103.9"/>
	<path class="st0" d="M3.1,193l0-0.7c0.4-0.2,1.1-0.4,2.1-0.6c1-0.2,1.7-0.3,2.1-0.5s0.7-0.4,0.9-0.7c0.2-0.9,0.3-2.4,0.3-4.6v-22.7
		l0.1-3.8c0-0.8-0.2-1.3-0.5-1.6c-0.3-0.3-1.1-0.6-2.4-0.8c-1.3-0.2-2-0.4-2.3-0.6c-0.2-0.2-0.3-0.3-0.3-0.5c0-0.1,0-0.2,0.1-0.4
		c0.3-0.2,0.5-0.2,0.8-0.2c0.3,0,0.9,0,1.8,0.1h0.8c0.3,0,1,0,2.3-0.1H13l8.4-0.1l8.9-0.4H31l1.3,0c0.3,0,0.7,0.1,0.9,0.3
		c0.1,0.3,0.2,0.5,0.2,0.7l0,1.2l0.3,5.2c0,0.2,0,0.5-0.1,0.8c-0.3,0.1-0.6,0.2-0.8,0.2c-0.2,0-0.3-0.1-0.4-0.2
		c-0.2-0.2-0.3-0.6-0.3-1.2c-0.1-0.8-0.4-1.9-0.9-3.2c-0.3-0.6-0.7-1.1-1.3-1.3c-1.2-0.4-3.1-0.7-5.9-0.7c-1.3,0-2.5,0-3.6,0.1
		c-1.1,0.1-1.8,0.1-2.1,0.1l-2.3,0c-0.9,0-1.7,0.1-2.3,0.4c-0.4,0.2-0.6,0.6-0.6,1.3v0.4c0.1,1,0.1,2.1,0.1,3.3l-0.1,7.9
		c0,0.8,0.1,1.5,0.2,2.2l0.8,0.1l1.6-0.1h5.6c2.2,0,3.8-0.2,4.7-0.5c0.6-0.2,1-0.5,1.3-1c0.1-0.1,0.3-0.9,0.7-2.3l0.4-2.4
		c0.2-0.1,0.4-0.2,0.5-0.2c0.1,0,0.3,0,0.5,0.1c0.1,0.4,0.1,1.1,0.1,2l0.3,10.7c-0.3,0.1-0.6,0.2-0.8,0.2l-0.3-0.1
		c-0.3-1.9-0.8-3.5-1.5-4.6c-0.2-0.4-0.5-0.6-0.8-0.7c-0.5-0.1-2.8-0.2-6.9-0.2c-1.3,0-2.2,0-2.7,0c-1.2,0.1-1.9,0.1-2.1,0.1h-0.3
		c-0.6,0-1,0.1-1.3,0.2c-0.1,0.2-0.1,0.4-0.1,0.5v2c0,0.2,0,1.2,0,2.9l-0.1,9.7c0,0.3,0.1,0.6,0.2,1c0.4,0.3,1.2,0.6,2.2,0.7
		c1.1,0.1,2.1,0.4,3.1,0.8c0.5,0.3,0.8,0.5,0.8,0.8c0,0.1,0,0.3-0.1,0.4c-0.1,0.1-0.2,0.2-0.4,0.3c-1.6-0.3-3.8-0.5-6.6-0.5
		c-1.5,0-3.1,0.1-4.7,0.4c-1.1,0.2-2.5,0.3-3.9,0.3L3.1,193z"/>
	<path class="st0" d="M41.3,192.7c0-0.3,0.1-0.6,0.2-0.8c1.5-0.4,3-0.7,4.4-0.8c1-0.1,1.6-0.3,1.8-0.6c0.2-0.3,0.3-1.2,0.3-2.8
		l0.2-7.7l0-5.2l0-6.8V166c0-4.1,0-6.7-0.1-7.7c0-0.2-0.1-0.5-0.2-0.8c-0.5-0.2-0.9-0.4-1.3-0.5c-0.3-0.1-1.9-0.4-4.6-0.8
		c0-0.2,0-0.4,0-0.5c0-0.1,0-0.3,0-0.5c0.4,0,1,0,1.8,0.1l4.4,0.2l2.6,0.1l0.8,0c0.1,0,0.4,0,0.8,0.1c1.2,0,1.8,0,2,0l2.3-0.2
		c1.6,0,2.7,0,3.3,0.1c0,0.4-0.1,0.7-0.2,1.1c-0.2,0-1.2,0.1-3,0.2c-1.8,0.1-2.8,0.2-3.1,0.3c-0.4,0.3-0.7,1-0.7,2.3
		c0,0.3,0,0.9-0.1,1.9v1.8l0,5.4v1.8l0.1,9.7l-0.1,8.2l0,1.8c0,0.6,0.1,0.9,0.3,1.1c0.5,0,1.9,0,4.3,0.1h2l5-0.2
		c1.3,0,2.3-0.2,2.8-0.4c0.6-0.2,1.5-0.9,2.8-2c0.8-0.7,1.4-1.4,1.9-2.2c0.1-0.2,0.3-0.4,0.5-0.7c0.4-0.5,0.9-1.5,1.5-3h1
		c-0.1,0.7-0.2,1.4-0.4,2c-0.6,2.7-1,5-1.2,6.9c0,0.4-0.1,0.8-0.1,1.1l-10.9-0.3c-9.4,0-14.9,0.1-16.7,0.3c-0.5,0-1.1,0.1-1.7,0.1
		H41.3z"/>
	<path class="st0" d="M83.9,173.9c0-2,0.2-3.8,0.7-5.3c0.5-1.5,1.3-3.2,2.4-5c1.1-1.8,2.5-3.3,4.1-4.5c1.6-1.2,3.8-2.3,6.6-3.2
		c2-0.6,4.5-1,7.5-1c2,0,4,0.3,6,0.8c2,0.5,3.7,1.3,5.3,2.3c1.6,1,3.2,2.5,4.8,4.5c1.1,1.4,1.9,2.9,2.5,4.5c0.7,2.1,1.1,4.3,1.1,6.6
		c0,2.6-0.2,4.7-0.7,6.4c-0.5,1.7-1.3,3.4-2.5,5c-0.9,1.3-2.5,2.8-4.7,4.4c-1.5,1.1-3.3,2-5.5,2.7c-2.2,0.7-4.6,1-7.1,1
		c-2.6,0-4.9-0.3-6.9-0.9c-2-0.6-3.7-1.3-5.1-2.2c-1.4-0.9-2.7-2.1-4.2-3.8c-1.4-1.7-2.5-3.6-3.3-5.6
		C84.3,178.5,83.9,176.3,83.9,173.9 M104.1,192c1.6,0,3.3-0.2,5.1-0.7c1.8-0.5,3.3-1.2,4.7-2.3c1.4-1.1,2.4-2.3,3.2-3.6
		c0.8-1.4,1.4-3.1,1.9-5.2c0.5-2.1,0.7-4.2,0.7-6.4c0-2.6-0.4-5.3-1.2-7.9c-0.6-2-1.6-3.7-2.9-5.3c-1.4-1.6-3-2.7-4.9-3.6
		c-1.9-0.8-4-1.3-6.2-1.3c-1.8,0-3.5,0.3-5.2,0.9c-1.7,0.6-3.1,1.3-4.2,2.2c-1.1,0.9-2.1,2.2-3,3.9c-0.9,1.7-1.6,3.5-2.1,5.5
		c-0.5,2-0.7,3.8-0.7,5.3c0,1.6,0.2,3.4,0.7,5.5c0.5,2,1.2,3.8,2,5.3c0.8,1.5,1.9,2.8,3.1,4c1.2,1.2,2.6,2,4.2,2.7
		C100.7,191.7,102.4,192,104.1,192"/>
	<path class="st0" d="M136.6,173.9c0-2,0.2-3.8,0.7-5.3c0.5-1.5,1.3-3.2,2.4-5c1.1-1.8,2.5-3.3,4.1-4.5c1.6-1.2,3.8-2.3,6.6-3.2
		c2-0.6,4.5-1,7.5-1c2,0,4,0.3,6,0.8c2,0.5,3.7,1.3,5.3,2.3c1.6,1,3.2,2.5,4.8,4.5c1.1,1.4,1.9,2.9,2.5,4.5c0.7,2.1,1.1,4.3,1.1,6.6
		c0,2.6-0.2,4.7-0.7,6.4c-0.5,1.7-1.3,3.4-2.5,5c-0.9,1.3-2.5,2.8-4.7,4.4c-1.5,1.1-3.3,2-5.5,2.7c-2.2,0.7-4.6,1-7.1,1
		c-2.6,0-4.9-0.3-6.9-0.9c-2-0.6-3.7-1.3-5.1-2.2c-1.4-0.9-2.7-2.1-4.2-3.8c-1.4-1.7-2.5-3.6-3.3-5.6
		C136.9,178.5,136.6,176.3,136.6,173.9 M156.8,192c1.6,0,3.3-0.2,5.1-0.7c1.8-0.5,3.3-1.2,4.7-2.3c1.4-1.1,2.4-2.3,3.2-3.6
		c0.8-1.4,1.4-3.1,1.9-5.2c0.5-2.1,0.7-4.2,0.7-6.4c0-2.6-0.4-5.3-1.2-7.9c-0.6-2-1.6-3.7-2.9-5.3c-1.4-1.6-3-2.7-4.9-3.6
		c-1.9-0.8-4-1.3-6.2-1.3c-1.8,0-3.5,0.3-5.2,0.9c-1.7,0.6-3.1,1.3-4.2,2.2c-1.1,0.9-2.1,2.2-3,3.9c-0.9,1.7-1.6,3.5-2.1,5.5
		c-0.5,2-0.7,3.8-0.7,5.3c0,1.6,0.2,3.4,0.7,5.5c0.5,2,1.2,3.8,2,5.3c0.8,1.5,1.9,2.8,3.1,4c1.2,1.2,2.6,2,4.2,2.7
		C153.4,191.7,155.1,192,156.8,192"/>
	<path class="st0" d="M241.7,201.3c-15.7,0-29.8-22.1-36.5-25h-5.3v12.1c0,2.4,1,3.2,3.9,3.5c0.3,0.1,0.4,0.1,0.7,0.1l0.1,0.8
		l-0.8-0.1c-2.1-0.2-3.5-0.3-4.7-0.3h-2.3c-1.1,0-2.6,0.1-4.7,0.3l-0.8,0.1l0.1-0.8c0.2,0,0.4,0,0.7-0.1c2.9-0.3,3.9-1.1,3.9-3.5
		v-29c0-2.4-1-3.2-3.9-3.5c-0.3-0.1-0.4-0.1-0.7-0.1l-0.1-0.8l0.8,0.1c2.1,0.2,3.1,0.3,4.7,0.3c1.5,0,6.3-0.3,9.3-0.3
		c8.2,0,13.1,4.2,13.1,9.3c0,5.2-3.7,9.2-8.8,11.1c4.7,3.1,16.4,18.8,28.6,23.1c4.4,1.6,9.4,0.5,12.2-0.8
		C250.7,198.9,246.3,201.3,241.7,201.3 M204.4,156.5c-3.8,0-4.5,0.2-4.5,2.9v15.5h8.7c3.7-1.6,6.6-4.7,6.6-9.1
		C215.2,161,211.6,156.5,204.4,156.5"/>
	<path class="st0" d="M257.4,156.5c0.2,1.3,0.2,2,0.2,2.2l-0.1,2.6c0,1.1-0.1,1.8-0.1,2.1c-0.2,0.1-0.3,0.1-0.4,0.1l-0.3-0.1
		c-0.6-2.7-1.7-4.7-3.2-6c-1.5-1.2-3.3-1.9-5.4-1.9c-2.2,0-4,0.6-5.5,1.9c-1.4,1.2-2.1,2.7-2.1,4.3c0,1.3,0.5,2.4,1.5,3.5
		c1,1.1,3.5,2.6,7.6,4.7c3.1,1.6,5.3,2.9,6.7,3.9c1.3,1,2.4,2.2,3,3.5c0.7,1.3,1,2.8,1,4.5c0,2.1-0.5,4-1.6,5.9
		c-1.1,1.8-2.5,3.2-4.4,4.1c-1.8,0.9-4.3,1.4-7.3,1.4c-2.6,0-5.1-0.4-7.6-1.3c-1.4-0.5-2.3-0.9-2.6-1.2c-0.3-0.3-0.5-0.6-0.5-1
		c0-0.2,0-0.5,0.1-0.8c0.3-2.3,0.4-4.2,0.4-5.7c0-0.9,0.1-1.4,0.2-1.6c0.1-0.1,0.2-0.2,0.4-0.2c0.2,0,0.3,0.1,0.4,0.2
		c0.1,0.1,0.2,0.4,0.2,0.7c0.2,2.4,1.3,4.5,3.3,6.4c2,1.9,4.2,2.8,6.7,2.8c1.5,0,3-0.3,4.2-1c1.3-0.6,2.3-1.6,3-2.8
		c0.7-1.2,1.1-2.4,1.1-3.5c0-1.6-0.6-3-1.7-4.3c-1.1-1.3-3.3-2.8-6.7-4.6c-3.3-1.7-5.5-3-6.5-3.8c-1.6-1.3-2.9-2.7-3.7-4.1
		c-0.6-1.1-0.9-2.4-0.9-3.9c0-2.7,1.1-5,3.2-6.9c2.1-1.9,5-2.8,8.6-2.8c2,0,3.7,0.2,5.1,0.7C255.2,155.1,256.3,155.7,257.4,156.5"/>
	<path class="st0" d="M324.3,156.8c0.2,1.5,0.3,3,0.3,4.6c0,0.3,0,0.7,0,1.3c-0.3,0.1-0.5,0.1-0.6,0.1c-0.1,0-0.3,0-0.5-0.1
		c-0.8-2.3-2.1-4-4-5.3c-1.8-1.2-4.1-1.8-6.9-1.8c-1.4,0-2.7,0.2-3.6,0.5c-1.7,0.6-3.3,1.4-4.6,2.5c-1.3,1.1-2.4,2.3-3.4,3.8
		c-0.9,1.5-1.6,3.3-2.2,5.3c-0.5,2.1-0.8,4.2-0.8,6.4c0,4.2,0.6,7.6,1.9,10.3c1.3,2.7,3,4.7,5.2,5.8c2.2,1.2,4.4,1.7,6.7,1.7l1.4,0
		c1.6-0.2,2.6-0.4,3.2-0.6c1.4-0.4,2.6-0.9,3.5-1.4c0.9-0.6,1.8-1.3,2.7-2.3c0.9-1,1.6-2.2,2.3-3.5l0.3-0.1c0.1,0,0.2,0.1,0.4,0.2
		c0,0.5,0,0.8-0.1,0.9c-0.8,3.3-1.4,5.5-1.8,6.7c-0.3,0.1-0.7,0.2-1.2,0.3c-2.3,0.8-5.3,1.2-9.1,1.2c-3.1,0-5.4-0.2-6.9-0.6
		c-1.5-0.4-3.2-1.1-5-2c-1.8-0.9-3.4-2.1-4.7-3.5c-1.4-1.5-2.5-3.3-3.3-5.5c-0.8-2.2-1.3-4.7-1.3-7.3c0-2.5,0.3-4.7,1-6.5
		c0.7-1.9,1.7-3.7,3.1-5.6c1.4-1.9,3-3.5,4.9-4.8c1.9-1.3,4-2.2,6.3-2.7c1.6-0.4,3.9-0.5,6.9-0.5c2.2,0,4.2,0.3,6.1,0.9
		C322.4,155.7,323.7,156.2,324.3,156.8"/>
	<path class="st0" d="M333.3,191.6c0.3-0.2,0.5-0.2,0.7-0.2h0.7c0.1,0,0.4,0,0.7,0c1.5-0.1,2.4-0.3,2.7-0.4c0.7-0.4,1.3-1,1.7-1.9
		c1-2,2.1-4.8,3.4-8.4c0.6-1.7,1-2.8,1.1-3.2c0.5-1.2,1-2.4,1.4-3.7l2.7-7.7c0.4-1.2,1.5-4,3.1-8.3c0.4-1.1,0.9-2.6,1.5-4.4l0.9-0.1
		l1,0c0.8,1.7,1.6,3.4,2.2,5.3c0.3,1,0.9,2.5,1.7,4.5l4.4,12l2.4,6.5c1.2,3.7,2.1,6,2.5,6.8c0.4,0.8,0.8,1.4,1.1,1.7
		c0.1,0.1,0.5,0.2,1.1,0.3c0.6,0.2,1.1,0.3,1.3,0.4c0.9,0.3,1.5,0.5,1.9,0.6c0.1,0.2,0.1,0.4,0.1,0.5c0,0.1,0,0.2-0.1,0.4
		c-0.6,0-1.1,0-1.3,0c-1,0-2.7,0-5.3-0.1l-2.9-0.1l-3.5,0c-0.2,0-0.5,0-0.7,0c-0.2,0-0.5,0-0.6,0h-0.6c-0.2,0-0.4-0.1-0.6-0.2
		c0-0.3,0-0.5,0.1-0.8c0.2-0.1,0.4-0.2,0.6-0.2l3.1-0.2c0.8,0,1.4-0.1,1.8-0.3c0.1-0.4,0.2-0.6,0.2-0.8c0-0.4-0.3-1.3-0.8-2.7
		c-0.3-1-0.7-1.9-0.9-2.8c-0.3-0.9-1.3-3.8-3.1-8.7c-0.8-0.1-1.5-0.2-2.1-0.2l-6.2,0.1l-1.8,0c-0.7,0-1.4,0.1-2.2,0.1
		c-0.3,0.6-0.4,1-0.5,1.3l-2.6,8c-1.1,3.1-1.6,4.7-1.6,5c0,0.2,0.1,0.5,0.3,0.9c0.4,0.1,1,0.2,1.6,0.3l4,0.4
		c0.2,0.2,0.3,0.3,0.3,0.5c0,0.1,0,0.2-0.1,0.4c-0.9,0-1.5,0-2,0c-1.6,0-3.4,0-5.4-0.1c-1,0-1.6-0.1-2-0.1c-0.4,0-1.1,0-2.1,0.1
		c-0.7,0-1.1,0.1-1.4,0.1c-0.5,0-1.1,0-1.8-0.1v-0.2C333.2,192,333.3,191.8,333.3,191.6 M347.3,174.1c2.1,0.1,4.5,0.2,7.1,0.2
		c1.5,0,2.8,0,4-0.1c-0.2-0.8-0.4-1.5-0.7-2.1c-1.3-3.4-2-5.3-2.1-5.6l-2.7-6.7l-0.3-0.5c-0.1,0.2-0.5,1.2-1.3,3
		c-1.2,3-2.1,5.4-2.7,7.1c-0.3,0.8-0.5,1.5-0.8,2.3c-0.3,0.7-0.4,1.3-0.5,1.6c-0.1,0.3-0.2,0.6-0.3,0.9L347.3,174.1z"/>
	<path class="st0" d="M403.3,156.5c0.2,1.3,0.2,2,0.2,2.2l-0.1,2.6c0,1.1-0.1,1.8-0.1,2.1c-0.2,0.1-0.3,0.1-0.4,0.1l-0.3-0.1
		c-0.6-2.7-1.7-4.7-3.2-6c-1.5-1.2-3.3-1.9-5.4-1.9c-2.2,0-4,0.6-5.5,1.9c-1.4,1.2-2.1,2.7-2.1,4.3c0,1.3,0.5,2.4,1.5,3.5
		c1,1.1,3.5,2.6,7.6,4.7c3.1,1.6,5.3,2.9,6.7,3.9c1.3,1,2.4,2.2,3,3.5c0.7,1.3,1,2.8,1,4.5c0,2.1-0.5,4-1.6,5.9
		c-1.1,1.8-2.5,3.2-4.4,4.1c-1.8,0.9-4.3,1.4-7.3,1.4c-2.6,0-5.1-0.4-7.6-1.3c-1.4-0.5-2.3-0.9-2.6-1.2c-0.3-0.3-0.5-0.6-0.5-1
		c0-0.2,0-0.5,0.1-0.8c0.3-2.3,0.4-4.2,0.4-5.7c0-0.9,0.1-1.4,0.2-1.6c0.1-0.1,0.2-0.2,0.4-0.2c0.2,0,0.3,0.1,0.4,0.2
		c0.1,0.1,0.2,0.4,0.2,0.7c0.2,2.4,1.3,4.5,3.3,6.4c2,1.9,4.2,2.8,6.7,2.8c1.5,0,3-0.3,4.2-1c1.3-0.6,2.3-1.6,3-2.8
		c0.7-1.2,1.1-2.4,1.1-3.5c0-1.6-0.6-3-1.7-4.3c-1.1-1.3-3.3-2.8-6.7-4.6c-3.3-1.7-5.5-3-6.5-3.8c-1.6-1.3-2.9-2.7-3.7-4.1
		c-0.6-1.1-0.9-2.4-0.9-3.9c0-2.7,1.1-5,3.2-6.9c2.1-1.9,5-2.8,8.6-2.8c2,0,3.7,0.2,5.1,0.7C401.1,155.1,402.2,155.7,403.3,156.5"/>
	<path class="st0" d="M415.8,159.5l1.2-4.4c0.1-0.6,0.2-1,0.3-1.1c0.1-0.2,0.3-0.2,0.5-0.2c0.4,0,0.7,0.4,1.2,1.3
		c0.3,0.6,0.6,1,0.8,1.2c0.2,0.2,0.5,0.3,0.9,0.3l0.3,0l1.3,0.1l6.9,0.1l8.1,0h2.4l4.5-0.1c0.2,0,0.4,0,0.7,0.1
		c1.3,0.1,2.1,0.2,2.4,0.2c0.3,0,0.5-0.1,0.7-0.3c0.1-0.1,0.4-0.7,1-1.9c0.3-0.5,0.6-0.8,0.9-0.8c0.2,0,0.4,0,0.6,0.1
		c0.1,0.4,0.1,0.7,0.1,1l0,1.2l0,2.5c0,0.6,0,2.5-0.1,5.8c0,0.2,0,0.4-0.1,0.6c-0.2,0.1-0.4,0.2-0.6,0.2s-0.3-0.1-0.4-0.2
		c-0.1-0.1-0.3-0.6-0.4-1.3c-0.4-1.7-0.9-3-1.5-3.7c-0.4-0.5-0.9-0.8-1.7-1c-0.7-0.2-2.5-0.3-5.2-0.3h-4.9c0,0.8-0.1,1.5-0.1,2.1
		l0.2,18.1c0,0.7,0,2.1-0.1,4.1l0,3.9l0,2.2c0,0.7,0.1,1.2,0.4,1.5c0.2,0.3,0.9,0.6,1.9,0.8c1.8,0.4,3,0.7,3.6,0.8
		c0.4,0,0.7,0.1,0.9,0.2v0.9l-4.1-0.1c-2.3,0-4-0.1-5.1-0.1l-4.3,0.2l-3.1,0.2c-0.9,0-1.4,0-1.6-0.1l-0.4-0.2c0-0.4,0.1-0.7,0.3-0.9
		c0.1-0.1,0.5-0.2,1.1-0.3c0.8-0.1,1.8-0.3,2.9-0.6c1.1-0.3,1.8-0.6,2.2-0.9c0.2-0.2,0.3-0.5,0.4-0.9c0.2-0.9,0.3-2.5,0.3-5v-5
		l-0.1-10.8l-0.1-2.3l0-7.8H426c-2.8,0-4.5,0.2-5.1,0.5c-1,0.5-2.4,2.1-4.3,4.6c-0.6,1-1.2,1.4-1.6,1.4l-0.3-0.1
		c-0.1-0.1-0.1-0.2-0.1-0.3c0-0.2,0.2-0.9,0.5-2.1C415.5,161.1,415.7,160.1,415.8,159.5"/>
	<path class="st0" d="M457.8,192.7c0-0.3,0.1-0.6,0.2-0.8c1.5-0.4,3-0.7,4.4-0.8c1-0.1,1.6-0.3,1.8-0.6c0.2-0.3,0.3-1.2,0.4-2.8
		l0.2-7.7l0-5.2l0-6.8V166c0-4.1,0-6.7-0.1-7.7c0-0.2-0.1-0.5-0.2-0.8c-0.5-0.2-0.9-0.4-1.3-0.5c-0.3-0.1-1.9-0.4-4.6-0.8
		c0-0.2,0-0.4,0-0.5c0-0.1,0-0.3,0-0.5c0.4,0,1,0,1.8,0.1l4.4,0.2l2.6,0.1l0.8,0c0.1,0,0.4,0,0.8,0.1c1.2,0,1.8,0,2,0l2.3-0.2
		c1.6,0,2.7,0,3.3,0.1c0,0.4-0.1,0.7-0.2,1.1c-0.2,0-1.2,0.1-3,0.2c-1.8,0.1-2.9,0.2-3.1,0.3c-0.4,0.3-0.7,1-0.7,2.3
		c0,0.3,0,0.9-0.1,1.9v1.8l0,5.4v1.8l0.1,9.7l-0.1,8.2l0,1.8c0,0.6,0.1,0.9,0.3,1.1c0.5,0,1.9,0,4.3,0.1h2l5-0.2
		c1.3,0,2.3-0.2,2.8-0.4c0.6-0.2,1.5-0.9,2.8-2c0.8-0.7,1.4-1.4,1.9-2.2c0.1-0.2,0.3-0.4,0.5-0.7c0.4-0.5,0.9-1.5,1.5-3h1
		c-0.1,0.7-0.2,1.4-0.4,2c-0.6,2.7-1,5-1.2,6.9c0,0.4-0.1,0.8-0.1,1.1l-10.9-0.3c-9.4,0-14.9,0.1-16.7,0.3c-0.5,0-1.1,0.1-1.7,0.1
		H457.8z"/>
	<path class="st0" d="M499.1,192.1c0.2-0.2,0.4-0.3,0.5-0.3c0.3-0.1,0.9-0.2,1.7-0.2c1.9-0.1,3.1-0.3,3.5-0.5
		c0.3-0.4,0.4-0.9,0.4-1.6l0-2l0-7.4l-0.1-3.5l0-7.3l-0.1-8.3c0-2-0.1-3.1-0.4-3.4c-0.4-0.4-1.4-0.6-3.1-0.6c-0.7,0-1.4-0.1-2-0.2
		c-0.3-0.1-0.4-0.3-0.4-0.5c0-0.2,0-0.3,0.1-0.6c0.2-0.1,0.3-0.1,0.5-0.1c0.3,0,0.6,0,1,0c1.1,0.1,2.3,0.2,3.6,0.2l2.2-0.1l5.1,0.1
		c2.6,0,4.6,0,6-0.1c1.4-0.1,2.4-0.1,2.9-0.1c0.4,0,1.6,0,3.3,0.1l4.1,0l0.5,0.1l2.4-0.1l0.3,0.1c0.1,0.2,0.2,0.3,0.2,0.5
		c0,0.3,0,0.7-0.1,1.3c-0.1,0.6-0.1,0.9-0.1,1.1c0,2,0.1,3.7,0.2,5.1c0,0.1-0.1,0.2-0.2,0.2c-0.2,0-0.4,0-0.6-0.1
		c-0.2-0.4-0.5-1-0.9-2c-0.4-0.9-0.9-2-1.6-3.2c-0.5-0.8-0.9-1.3-1.1-1.5c-0.3-0.2-0.8-0.2-1.7-0.2c-0.2,0-1.1,0-2.7-0.1
		c-0.4,0-0.8,0-1.3,0l-8.3,0.2h-0.7c-1.1,0-1.7,0.1-1.9,0.4c-0.3,0.5-0.5,1.8-0.5,4.1c0,0.2,0,2.6,0.1,7v4.1
		c0.2,0.1,0.4,0.1,0.7,0.1h0.5c0.3,0,0.8,0,1.5,0c1,0,1.7,0.1,2,0.1c0.2,0,0.4,0,0.6,0c2.1-0.1,4.8-0.1,8.1-0.1
		c1-0.2,1.6-0.4,1.8-0.6c0.3-0.3,0.5-1.3,0.7-2.7c0.1-1.5,0.5-2.3,1-2.5c0.3,0,0.5,0,0.7,0.1c0,0.2,0.1,0.3,0.1,0.4s0,0.4-0.1,0.7
		c-0.1,0.7-0.1,3-0.1,6.8c0,1,0.1,2.1,0.2,3.4c0.1,1.2,0.2,1.9,0.2,2c0,0.2,0,0.4-0.1,0.7c-0.2,0.1-0.3,0.1-0.4,0.1h-0.2
		c-0.3-0.5-0.6-1.4-0.9-2.5c-0.5-2-1-3.2-1.6-3.7c-0.6-0.5-1.5-0.7-2.7-0.7c-0.3,0-0.8,0-1.5,0c-0.7,0-1.8,0-3.2,0h-1.9
		c-2.7,0-4.5,0.1-5.3,0.2l0,1l0,5.4l0,3.4l0,3.3c0,2,0.1,3.1,0.4,3.4c0.3,0.4,1.1,0.6,2.2,0.6l1.8,0c0.2,0,0.8,0,1.8,0
		c1.1,0,2.4,0,3.9,0c3.8,0,6.3-0.2,7.5-0.5c1.2-0.3,2.3-0.9,3.1-1.7c0.8-0.8,1.8-2.6,3.1-5.3c0.4-0.8,0.7-1.2,1.1-1.2
		c0.2,0,0.4,0.1,0.6,0.2c-0.6,1.9-0.9,3.2-1,3.8c-0.2,1.4-0.3,2.8-0.4,4.2c0,0.6-0.2,1.2-0.5,1.6H533l-8.2,0.1l-3.7,0l-8.8,0.1h-3.6
		c-0.4,0-0.9,0-1.3,0c-3.5,0.2-6.1,0.2-7.7,0.2c-0.3,0-0.5,0-0.6-0.1c-0.1-0.1-0.2-0.2-0.2-0.4L499.1,192.1z"/>
</g>
</svg>
