<?xml version="1.0" encoding="utf-8"?>
<!-- Generator: Adobe Illustrator 19.0.0, SVG Export Plug-In . SVG Version: 6.00 Build 0)  -->
<svg version="1.1" id="Layer_1" xmlns="http://www.w3.org/2000/svg" xmlns:xlink="http://www.w3.org/1999/xlink" x="0px" y="0px"
	 viewBox="-35.5 -13 60 60" style="enable-background:new -35.5 -13 60 60;" xml:space="preserve">
<style type="text/css">
	.st0{fill:#003D47;}
	.st1{fill:#F1DCB8;}
</style>
<g>
	<path class="st0" d="M-5.6-11.9c-12.6,0-22.9,10.3-22.9,22.9c0,10.4,7.2,19.6,17.2,22.2l4.6,11.9c0.2,0.5,0.6,0.8,1.2,0.8l0,0
		c0.5,0,1-0.3,1.2-0.8L0,33.3c10.1-2.5,17.4-11.7,17.4-22.2C17.4-1.6,7.1-11.9-5.6-11.9z"/>
	<path class="st1" d="M-4.6-0.6C-5.1-1-5.8-1-6.4-0.6l-14.5,9.4l1.9,2.8l4.1-2.7v12.4H3.9V8.9L8,11.6l1.8-2.8L-4.6-0.6z M0.6,17.9
		h-12.1V6.7l6-3.9l6.1,3.9V17.9z"/>
</g>
</svg>
