<?xml version="1.0" encoding="utf-8"?>
<!-- Generator: Adobe Illustrator 19.0.0, SVG Export Plug-In . SVG Version: 6.00 Build 0)  -->
<svg version="1.1" id="Layer_1" xmlns="http://www.w3.org/2000/svg" xmlns:xlink="http://www.w3.org/1999/xlink" x="0px" y="0px"
	 viewBox="-203 9 310 302" style="enable-background:new -203 9 310 302;" xml:space="preserve">
<style type="text/css">
	.st0{opacity:0.2;fill:#003D47;enable-background:new    ;}
	.st1{fill:#003D47;}
	.st2{opacity:0.6;fill:#003D47;enable-background:new    ;}
</style>
<g id="Padding__x26__Artboard">
</g>
<g>
	<polygon class="st0" points="52.1,107.4 -141.4,107.4 -141.4,53.4 52.1,53.4 74.6,80.4 	"/>
	<g>
		<path class="st1" d="M-41.2,68.6h-19.1c-2.2,0-3.9-1.8-3.9-3.9s1.8-3.9,3.9-3.9h19.1c2.2,0,3.9,1.8,3.9,3.9S-39.1,68.6-41.2,68.6z
			"/>
	</g>
	<polygon class="st0" points="-148.1,159.2 45.4,159.2 45.4,213.1 -148.1,213.1 -170.6,186.2 	"/>
	<g>
		<path class="st1" d="M-41.2,174.3h-19.1c-2.2,0-3.9-1.8-3.9-3.9s1.8-3.9,3.9-3.9h19.1c2.2,0,3.9,1.8,3.9,3.9
			S-39.1,174.3-41.2,174.3z"/>
	</g>
	<path class="st2" d="M-60.4,43.3V21.9c0-5.6,4.5-9,9-9s9,4.5,9,9v21.4"/>
	<path class="st2" d="M-60.4,149v-31.5h19.1V149"/>
	<path class="st2" d="M-60.4,311v-87.7h19.1V311"/>
	<g>
		<path class="st1" d="M-42.4,47.2c-2.2,0-3.9-1.8-3.9-3.9V21.9c0-2.3-2.7-5.1-5.1-5.1c-2.5,0-5.1,1.8-5.1,5.1v21.4
			c0,2.2-1.8,3.9-3.9,3.9s-3.9-1.8-3.9-3.9V21.9c0-8.1,6.6-12.9,12.9-12.9c6.6,0,12.9,6.3,12.9,12.9v21.4
			C-38.4,45.5-40.2,47.2-42.4,47.2z"/>
	</g>
	<g>
		<g>
			<path class="st1" d="M-41.2,153c-2.2,0-3.9-1.8-3.9-3.9v-31.5c0-2.2,1.8-3.9,3.9-3.9s3.9,1.8,3.9,3.9V149
				C-37.3,151.2-39.1,153-41.2,153z"/>
		</g>
		<g>
			<path class="st1" d="M-60.4,153c-2.2,0-3.9-1.8-3.9-3.9v-31.5c0-2.2,1.8-3.9,3.9-3.9s3.9,1.8,3.9,3.9V149
				C-56.4,151.2-58.2,153-60.4,153z"/>
		</g>
	</g>
	<g>
		<g>
			<rect x="-45.2" y="223.3" class="st1" width="7.9" height="87.7"/>
		</g>
		<g>
			<rect x="-64.3" y="223.3" class="st1" width="7.9" height="87.7"/>
		</g>
	</g>
	<g>
		<path class="st1" d="M70.1,121.5h-211.5c-2.2,0-3.9-1.8-3.9-3.9V43.3c0-2.2,1.8-3.9,3.9-3.9H70.1c1.2,0,2.3,0.5,3,1.4l31.5,37.1
			c1.3,1.5,1.3,3.6,0,5.1l-31.5,37.1C72.4,121,71.3,121.5,70.1,121.5z M-137.4,113.6H68.3l28.2-33.2L68.3,47.2h-205.7V113.6z"/>
	</g>
	<g>
		<path class="st1" d="M45.4,227.2h-211.5c-1.2,0-2.3-0.5-3-1.4l-31.5-37.1c-1.2-1.5-1.2-3.6,0-5.1l31.5-37.1c0.8-0.9,1.8-1.4,3-1.4
			H45.4c2.2,0,3.9,1.8,3.9,3.9v74.2C49.3,225.4,47.5,227.2,45.4,227.2z M-164.3,219.3H41.4V153h-205.7l-28.2,33.2L-164.3,219.3z"/>
	</g>
</g>
</svg>
