<?xml version="1.0" encoding="utf-8"?>
<!-- Generator: Adobe Illustrator 19.0.0, SVG Export Plug-In . SVG Version: 6.00 Build 0)  -->
<svg version="1.1" id="Слой_1" xmlns="http://www.w3.org/2000/svg" xmlns:xlink="http://www.w3.org/1999/xlink" x="0px" y="0px"
	 viewBox="-466 268 26 26" style="enable-background:new -466 268 26 26;" xml:space="preserve">
<style type="text/css">
	.st0{fill:#111111;}
</style>
<path class="st0" d="M-451.9,281l10.7-10.7c0.3-0.3,0.3-0.8,0-1.1s-0.8-0.3-1.1,0l-10.7,10.7l-10.7-10.7c-0.3-0.3-0.8-0.3-1.1,0
	s-0.3,0.8,0,1.1l10.7,10.7l-10.7,10.7c-0.3,0.3-0.3,0.8,0,1.1c0.1,0.1,0.3,0.2,0.5,0.2s0.4-0.1,0.5-0.2l10.7-10.7l10.7,10.7
	c0.1,0.1,0.3,0.2,0.5,0.2s0.4-0.1,0.5-0.2c0.3-0.3,0.3-0.8,0-1.1L-451.9,281z"/>
</svg>
