<?xml version="1.0" encoding="utf-8"?>
<!-- Generator: Adobe Illustrator 19.0.0, SVG Export Plug-In . SVG Version: 6.00 Build 0)  -->
<svg version="1.1" id="Слой_1" xmlns="http://www.w3.org/2000/svg" xmlns:xlink="http://www.w3.org/1999/xlink" x="0px" y="0px"
	 viewBox="-386 288 26 26" style="enable-background:new -386 288 26 26;" xml:space="preserve">
<style type="text/css">
	.st0{fill:#F1DCB8;}
</style>
<path class="st0" d="M-385,299.1c0,5.5,4.5,10.1,10.1,10.1c2.5,0,4.8-0.9,6.5-2.4l6.1,6.1c0.1,0.1,0.3,0.2,0.5,0.2s0.4-0.1,0.5-0.2
	c0.3-0.3,0.3-0.8,0-1.1l-6.1-6.1c1.5-1.8,2.4-4,2.4-6.5c0-5.5-4.5-10.1-10.1-10.1C-380.5,289-385,293.5-385,299.1z M-383.5,299.1
	c0-4.7,3.8-8.6,8.6-8.6c4.7,0,8.6,3.8,8.6,8.6s-3.8,8.6-8.6,8.6C-379.7,307.6-383.5,303.8-383.5,299.1z"/>
</svg>
