<?xml version="1.0" encoding="utf-8"?>
<!-- Generator: Adobe Illustrator 19.0.0, SVG Export Plug-In . SVG Version: 6.00 Build 0)  -->
<svg version="1.1" id="Слой_1" xmlns="http://www.w3.org/2000/svg" xmlns:xlink="http://www.w3.org/1999/xlink" x="0px" y="0px"
	 viewBox="-466 268 26 26" style="enable-background:new -466 268 26 26;" xml:space="preserve">
<style type="text/css">
	.st0{fill:#003D47;}
</style>
<path class="st0" d="M-448.7,273.5v-0.3c0-0.4-0.3-0.8-0.8-0.8h-14.8c-0.4,0-0.8,0.3-0.8,0.8v13.6c0,0.4,0.3,0.8,0.8,0.8h3.1
	c0.3,1.2,1.4,2,2.6,2s2.3-0.8,2.6-2h6.5h1.3c0.3,1.2,1.4,2,2.6,2s2.3-0.8,2.6-2h1c0,0,0.1,0,0.1,0c0,0,0.1,0,0.1,0
	c0.4,0,0.8-0.3,0.8-0.8V281C-441,277.1-444.4,273.8-448.7,273.5z M-442.5,280.5h-2.8c-0.7-0.2-0.9-1.5-0.9-3.5v-1.4
	C-444.2,276.6-442.7,278.4-442.5,280.5z M-447.2,275.3v1.8c0,2.2,0.1,4.2,1.7,4.5c0,0,0.1,0,0.1,0h2.9v4.5h-0.4
	c-0.3-1.2-1.4-2-2.6-2s-2.3,0.8-2.6,2h-1.3h-6.5c-0.1-0.4-0.3-0.7-0.6-1h7c0.2,0,0.4-0.1,0.5-0.3c0.2-0.1,0.3-0.3,0.3-0.6V275
	C-448.2,275-447.7,275.1-447.2,275.3z M-450.2,284h-13.3v-10h13.3V284z M-463.5,285h2.9c-0.3,0.3-0.5,0.6-0.6,1h-2.3V285z
	 M-458.5,288c-0.7,0-1.3-0.6-1.3-1.3s0.6-1.3,1.3-1.3c0.7,0,1.2,0.6,1.2,1.2c0,0,0,0,0,0s0,0,0,0C-457.3,287.5-457.8,288-458.5,288z
	 M-445.5,288c-0.7,0-1.3-0.6-1.3-1.3s0.6-1.3,1.3-1.3s1.3,0.6,1.3,1.3S-444.9,288-445.5,288z"/>
</svg>
