<?xml version="1.0" encoding="utf-8"?>
<!-- Generator: Adobe Illustrator 19.0.0, SVG Export Plug-In . SVG Version: 6.00 Build 0)  -->
<svg version="1.1" id="Layer_1" xmlns="http://www.w3.org/2000/svg" xmlns:xlink="http://www.w3.org/1999/xlink" x="0px" y="0px"
	 viewBox="39 -138 408 302" style="enable-background:new 39 -138 408 302;" xml:space="preserve">
<style type="text/css">
	.st0{opacity:0.2;fill:#003D47;enable-background:new    ;}
	.st1{fill:#003D47;}
	.st2{opacity:0.4;enable-background:new    ;}
	.st3{opacity:0.2;}
	.st4{fill:#003F48;}
</style>
<g>
	<g>
		<path class="st0" d="M329.3-101.4c0-0.1,0-0.1,0-0.2c0-0.5-0.1-0.9-0.2-1.4c-1-5.8-3.3-10.7-7-14.4c-5.1-4.9-12.1-7.7-20.5-7.7
			c-0.2,0-0.5,0-0.7,0c-0.2,0-0.5,0-0.6,0s-0.1,0-0.2,0c-15.8,0.6-34.1,9.9-49.3,25.1c-2.7,2.7-5.3,5.7-7.8,8.8
			c-2.5-3.1-5.1-6-7.8-8.8c-15.3-15.3-33.7-24.6-49.5-25.1c-0.1,0-0.1,0-0.2,0c-0.1,0-0.1,0-0.2,0c-0.2,0-0.5,0-0.7,0
			c-8.3,0-15.2,2.6-20.2,7.4c0,0,0,0-0.1,0.1c0,0,0,0-0.1,0.1l0,0l0,0c-5.2,5.2-7.8,12.7-7.5,21.6c0,0.2,0,0.5,0.1,0.7
			c0.5,11.9,6,25.2,15.4,37.8c0.7,1,1.7,1.5,3,1.5h42.8l0,0h50.5l0,0H311c1.1,0,2.2-0.5,3-1.5c9.4-12.6,14.8-25.9,15.4-37.8
			c0-0.2,0.1-0.5,0.1-0.7C329.7-97.7,329.5-99.6,329.3-101.4z"/>
		<path class="st1" d="M350.3-107.7c0-0.1,0-0.2,0-0.2c0-0.6-0.1-1.1-0.2-1.6c-1.2-7.2-4.2-13.3-8.8-17.9
			c-6.2-6.2-15.1-9.5-25.4-9.5c-0.4,0-0.6,0-1,0c-0.2,0-0.6,0-0.7,0c-0.1,0-0.1,0-0.2,0c-19.5,0.7-42.2,12.2-61.1,31.1
			c-3.3,3.3-6.7,7-9.6,10.9c-3.1-3.8-6.3-7.4-9.6-10.9c-19-19-41.9-30.5-61.5-31.1c-0.1,0-0.2,0-0.4,0s-0.2,0-0.4,0
			c-0.4,0-0.6,0-1,0c-10.2,0-18.9,3.2-25.2,9.3c0,0-0.1,0-0.1,0.1l-0.1,0.1l0,0l0,0c-6.4,6.4-9.8,15.8-9.4,26.9c0,0.4,0,0.6,0.1,1
			c0.7,14.7,7.4,31.4,19.1,46.9c0.9,1.1,2.2,1.9,3.7,1.9h53.3l0,0h62.7l0,0h53.2c1.5,0,2.8-0.6,3.7-1.9
			c11.7-15.6,18.5-32.2,19.1-46.9c0.1-0.2,0.1-0.6,0.1-1C350.7-103.2,350.5-105.5,350.3-107.7z M259.2-99.5
			c17-17,37.9-27.8,54.9-28.4c0.1,0,0.1,0,0.2,0h0.1h0.9l0,0l0,0c0.2,0,0.4,0,0.6-0.1c1.1,0,2.2,0.1,3.3,0.1c0.1,0,0.2,0.1,0.4,0.1
			h0.6h0.6h0.1c1.7,0.2,3.3,0.6,4.8,1.1c0.1,0,0.1,0.1,0.2,0.1l0.5,0.2c0.1,0.1,0.4,0.1,0.5,0.1c0.9,0.4,1.7,0.7,2.6,1.2l0.1,0.1
			l0,0l0.2,0.1l0,0l1,0.6c0.1,0.1,0.2,0.1,0.4,0.2c1.1,0.7,2.1,1.5,3.1,2.5c0,0.1,0.1,0.1,0.1,0.2c0.9,1,1.7,2,2.6,3.3
			c0.1,0.2,0.2,0.4,0.4,0.5c0,0,0,0.1,0.1,0.1c0.1,0.2,0.1,0.4,0.2,0.6c0.6,1,1,2.1,1.5,3.2c0.1,0.2,0.2,0.5,0.2,0.6
			c0,0.1,0,0.1,0.1,0.2c0,0.1,0,0.1,0,0.2l0,0c0.2,0.7,0.4,1.5,0.6,2.1c0.2,0.9,0.4,1.7,0.5,2.6c0,0.1,0,0.1,0,0.2
			c0,0.1,0,0.2,0,0.4v0.1c0,0.1,0,0.4,0,0.5c0,0.4,0.1,0.7,0.1,1.1c-0.5,0-0.9,0.1-1.4,0.1c-0.6,0.1-1.4,0.1-2,0.2
			c-0.5,0.1-1,0.2-1.5,0.2c-2.8,0.5-5.6,1.2-8.4,2.1c-0.4,0.1-0.7,0.2-1.1,0.4c-0.9,0.2-1.6,0.6-2.5,0.9c-0.5,0.1-0.9,0.4-1.4,0.5
			c-0.7,0.2-1.6,0.6-2.3,1c-0.5,0.2-1,0.4-1.5,0.6c-0.7,0.4-1.5,0.7-2.3,1.1c-0.5,0.2-1,0.5-1.5,0.7c-0.7,0.4-1.5,0.7-2.2,1.1
			c-0.5,0.2-1,0.5-1.5,0.9c-0.7,0.4-1.5,0.9-2.2,1.2c-0.5,0.2-1,0.6-1.5,0.9c-0.7,0.5-1.5,0.9-2.2,1.4c-0.5,0.4-1,0.6-1.5,1
			c-0.7,0.5-1.5,1-2.2,1.5c-0.5,0.4-1,0.7-1.5,1c-0.7,0.5-1.5,1.1-2.2,1.6c-0.5,0.4-1,0.7-1.5,1.1c-0.7,0.6-1.5,1.1-2.2,1.7
			c-0.5,0.4-0.9,0.7-1.4,1.1c-0.7,0.6-1.5,1.2-2.2,1.9c-0.4,0.4-0.9,0.7-1.2,1.1c-0.7,0.6-1.5,1.4-2.2,2c-0.2,0.2-0.6,0.6-0.9,0.9
			c-0.9,0.7-1.6,1.6-2.5,2.3c-0.5,0.5-1,1-1.5,1.6c-0.6,0.6-1.2,1.2-1.9,1.9c-0.6,0.6-1.1,1.4-1.7,2c-0.5,0.6-1,1.1-1.6,1.7
			c-0.6,0.6-1.1,1.4-1.7,2c-0.5,0.6-1,1.2-1.5,1.9c-0.6,0.7-1.1,1.5-1.6,2.2c-0.2,0.4-0.5,0.6-0.7,1h-1.5c0.9-0.9,1.4-2,1.4-3.2
			c0-13-8.5-24-20.4-27.5C254-94,256.5-96.9,259.2-99.5z M242-83.2c0.6,0.1,1.4,0.1,2,0c10.4,0.5,18.8,9.1,18.8,19.6
			c0,1.2,0.5,2.3,1.4,3.2H222c0.9-0.9,1.4-2,1.4-3.2C223.2-74,231.6-82.6,242-83.2z M234.5-91.1c-11.7,3.7-20.4,14.7-20.4,27.5
			c0,1.2,0.5,2.3,1.4,3.2H214c-0.4-0.5-0.9-1.1-1.2-1.6c-0.2-0.4-0.6-0.7-0.9-1.1c-0.7-1-1.6-2-2.3-3c-0.2-0.4-0.5-0.6-0.9-1
			c-0.9-1.1-1.9-2.1-2.8-3.2c-0.1-0.2-0.4-0.4-0.5-0.6c-1.1-1.2-2.3-2.5-3.6-3.7c-1.1-1.1-2.3-2.3-3.6-3.5c-0.1-0.1-0.2-0.1-0.2-0.2
			c-1.1-1-2.2-2-3.2-3c-0.2-0.2-0.5-0.4-0.7-0.6c-1-0.9-1.9-1.6-2.8-2.3c-0.4-0.2-0.6-0.5-1-0.7c-0.9-0.7-1.9-1.5-2.7-2.1
			c-0.4-0.2-0.7-0.5-1-0.7c-0.9-0.6-1.9-1.4-2.7-2c-0.4-0.2-0.7-0.5-1.1-0.7c-0.9-0.6-1.9-1.2-2.7-1.7c-0.4-0.2-0.7-0.5-1.1-0.6
			c-1-0.6-1.9-1.1-2.8-1.6c-0.4-0.2-0.7-0.4-1-0.6c-1-0.5-2-1-3-1.6c-0.4-0.1-0.6-0.4-1-0.5c-1-0.5-2-1-3.1-1.5
			c-0.2-0.1-0.6-0.2-0.9-0.4c-1.1-0.5-2.1-1-3.2-1.4c-0.2-0.1-0.4-0.1-0.6-0.2c-1.2-0.5-2.5-0.9-3.6-1.4c-0.1,0-0.1,0-0.2-0.1
			c-3.8-1.4-7.8-2.3-11.5-2.8c-0.4,0-0.6-0.1-1-0.1c-0.7-0.1-1.5-0.2-2.1-0.2c0-0.4,0-0.7,0.1-1.1c0-0.1,0-0.4,0-0.5v-0.1
			c0-0.1,0-0.2,0-0.4v-0.1l0,0c0.1-0.9,0.2-1.7,0.5-2.6c0.1-0.7,0.4-1.5,0.6-2.1c0-0.1,0-0.1,0-0.2s0.1-0.2,0.1-0.4
			c0.1-0.1,0.1-0.4,0.2-0.5c0.4-1.1,0.9-2.2,1.5-3.2c0.1-0.1,0.2-0.4,0.2-0.6c0.1-0.1,0.1-0.2,0.2-0.4c0.1-0.1,0.1-0.1,0.2-0.2
			c0.9-1.2,1.6-2.3,2.6-3.3c0,0,0,0,0-0.1l0.1-0.1c1-1,2-1.7,3.2-2.6c0.1,0,0.1-0.1,0.2-0.1c0.4-0.2,0.9-0.5,1.2-0.7
			c0.1-0.1,0.2-0.1,0.4-0.2c0.7-0.4,1.6-0.7,2.3-1.1c0.1,0,0.2,0,0.4-0.1c0,0,0.6-0.2,1-0.4c1.6-0.5,3.5-1,5.3-1.2
			c0.1,0,0.1,0,0.2,0h0.6c0.1,0,0.1,0,0.2,0c1.1-0.1,2.3-0.2,3.5-0.2c0.2,0,0.4,0.1,0.6,0.1h0.9h0.1c0.1,0,0.1,0,0.2,0
			c17,0.6,37.9,11.4,54.9,28.4C229.5-96.9,232-94,234.5-91.1z M145.1-95.8c0.2,0,0.5,0,0.7,0.1c0.5,0.1,1,0.1,1.4,0.2
			c0.6,0.1,1.2,0.2,1.9,0.4c0.5,0.1,1,0.2,1.5,0.4c0.6,0.1,1.2,0.4,1.9,0.5c0.5,0.1,1,0.2,1.5,0.4c0.6,0.2,1.4,0.4,2,0.6
			c0.5,0.1,0.9,0.2,1.4,0.5c0.7,0.2,1.5,0.6,2.3,0.9c0.4,0.1,0.7,0.2,1.1,0.4c2.2,0.9,4.6,2,6.9,3.1c0.4,0.1,0.6,0.4,1,0.5
			c0.9,0.5,1.6,0.9,2.5,1.4c0.4,0.2,0.7,0.5,1.1,0.6c0.7,0.5,1.5,0.9,2.3,1.4c0.4,0.2,0.9,0.5,1.2,0.7c0.7,0.5,1.5,1,2.2,1.5
			c0.4,0.2,0.9,0.5,1.2,0.9c0.7,0.5,1.5,1,2.2,1.6c0.4,0.2,0.7,0.6,1.1,0.9c0.7,0.6,1.5,1.1,2.2,1.7c0.4,0.2,0.7,0.5,1,0.9
			c0.9,0.6,1.6,1.4,2.3,2c0.2,0.2,0.6,0.5,0.9,0.7c1,0.9,1.9,1.6,2.7,2.5c0.1,0.1,0.2,0.2,0.4,0.4c1.1,1,2.1,2,3.2,3.1
			c0.7,0.7,1.4,1.5,2.1,2.2c0.5,0.5,0.9,0.9,1.4,1.4c0.6,0.7,1.2,1.5,2,2.2c0.5,0.5,1,1,1.4,1.6c0.1,0.1,0.2,0.2,0.2,0.4h-41.6
			C152.1-72.1,146.7-84.7,145.1-95.8z M325.3-60.2h-41.6c0.1-0.1,0.1-0.1,0.1-0.2c0.7-0.9,1.5-1.7,2.2-2.6c0.4-0.4,0.7-0.9,1.1-1.2
			c1.1-1.2,2.3-2.5,3.5-3.6c1.6-1.6,3.3-3.2,5.1-4.8c0.4-0.2,0.6-0.6,1-0.9c0.6-0.6,1.4-1.1,2-1.6c0.4-0.4,0.9-0.7,1.2-1
			c0.6-0.5,1.2-1,1.9-1.5c0.5-0.4,0.9-0.7,1.4-1.1c0.6-0.5,1.2-0.9,1.9-1.4c0.5-0.4,1-0.7,1.5-1c0.6-0.4,1.2-0.9,1.9-1.2
			c0.5-0.4,1-0.6,1.5-1c0.6-0.4,1.2-0.7,1.9-1.1c0.5-0.4,1.1-0.6,1.6-1c0.6-0.4,1.2-0.7,1.9-1c0.5-0.4,1.1-0.6,1.6-0.9
			c0.6-0.4,1.1-0.6,1.7-0.9c0.6-0.4,1.2-0.6,1.9-0.9c0.9-0.5,1.9-0.9,2.7-1.2c0.7-0.2,1.4-0.6,2.1-0.9c0.5-0.2,1.1-0.4,1.6-0.6
			c0.6-0.2,1.2-0.5,1.9-0.7c0.5-0.2,1.1-0.4,1.6-0.5c0.6-0.2,1.1-0.4,1.7-0.6c0.5-0.1,1.1-0.2,1.6-0.5c0.6-0.1,1.1-0.2,1.7-0.5
			c0.5-0.1,1.1-0.2,1.6-0.4c0.6-0.1,1.1-0.2,1.7-0.4c0.5-0.1,1.1-0.2,1.6-0.2c0.2,0,0.5,0,0.6-0.1C339.3-84.7,333.9-72.1,325.3-60.2
			z"/>
		<g class="st2">
			<g>
				<path class="st1" d="M195.7-72.9l-31.2-21.9l-8-1.6c0,0.2,0,0.5,0,0.7c0,0.2,0,0.5,0.1,0.7c0.5,11.9,6,25.2,15.4,37.8
					c0.7,1,1.7,1.5,3,1.5h36.5L195.7-72.9z"/>
				<path class="st1" d="M328.3-96.9l-25.9,12.3l-21.9,20.1l-3,8.6h33.6c1.1,0,2.2-0.5,3-1.5c9.4-12.6,14.8-25.9,15.4-37.8
					c0-0.2,0.1-0.5,0.1-0.7c0-0.5,0-0.9,0-1.4L328.3-96.9z"/>
			</g>
			<g>
				<path class="st0" d="M195.7-72.9l-31.2-21.9l-8-1.6c0,0.2,0,0.5,0,0.7c0,0.2,0,0.5,0.1,0.7c0.5,11.9,6,25.2,15.4,37.8
					c0.7,1,1.7,1.5,3,1.5h36.5L195.7-72.9z"/>
				<path class="st0" d="M328.3-96.9l-25.9,12.3l-21.9,20.1l-3,8.6h33.6c1.1,0,2.2-0.5,3-1.5c9.4-12.6,14.8-25.9,15.4-37.8
					c0-0.2,0.1-0.5,0.1-0.7c0-0.5,0-0.9,0-1.4L328.3-96.9z"/>
			</g>
		</g>
	</g>
	<g>
		<path class="st0" d="M70.7-13.7h-4.9c-11.2,0-20.5-9.1-20.5-20.5v-1.6c0-11.2,9.1-20.5,20.5-20.5h23.2h309.6h23.2
			c10.2,0,18.8,7.7,20.2,17.5v4.4c0,11.2-9.1,20.5-20.5,20.5h-4.9L70.7-13.7L70.7-13.7z"/>
		<path class="st0" d="M62.5-11.7H59c-7.8,0-14.2-6.4-14.2-14.2V-27c0-7.8,6.4-14.2,14.2-14.2h16.2h289.1h16.2
			c7.2,0,13.1,5.3,14.1,12.2v3.1c0,7.8-6.4,14.2-14.2,14.2H377H62.5z"/>
		<g id="Layer_2_1_" class="st3">
			<g>
				<path class="st1" d="M385.7-11.7h-5.3l-14.2,139.1c-0.6,1.9-2.3,3.1-4.2,3.1H95.7c-2,0-3.7-1.2-4.2-3.1L73.6-11.7h-5.3"/>
			</g>
		</g>
		<path class="st1" d="M421.8-59.8c12.2,0,22.3,9.1,24.1,20.9v5.3c0,13.5-10.9,24.3-24.3,24.3h-5.9l-23.2,168.8
			c-0.6,2-2.6,3.5-4.8,3.5h-289v0.1c-2.2,0-4.1-1.4-4.8-3.5L70.4-9.3h-5.9C51-9.3,40.2-20.2,40.2-33.7v-1.9
			C40.2-49,51-59.8,64.5-59.8H421.8z M102.3,153.1h282L405.5-9.3H80.8L102.3,153.1z M64.7-50c-8,0-14.4,6.4-14.4,14.4v1.9
			c0,8,6.4,14.4,14.4,14.4h357.2c8,0,14.4-6.4,14.4-14.4V-38h-0.5c-1.2-6.8-7.2-12-14.2-12H64.7z"/>
		<g>
			<g>
				<path class="st1" d="M187.6,78.1h-27.2c-2.7,0-4.9-2.2-4.9-4.9s2.2-4.9,4.9-4.9h27.2c2.7,0,4.9,2.2,4.9,4.9
					S190.3,78.1,187.6,78.1z M140.7,78.1H88.2c-2.7,0-4.9-2.2-4.9-4.9s2.2-4.9,4.9-4.9h52.5c2.7,0,4.9,2.2,4.9,4.9
					S143.4,78.1,140.7,78.1z"/>
			</g>
			<g>
				<path class="st1" d="M397.7,78.1h-52.5c-2.7,0-4.9-2.2-4.9-4.9s2.2-4.9,4.9-4.9h52.5c2.7,0,4.9,2.2,4.9,4.9
					S400.4,78.1,397.7,78.1z M325.5,78.1h-27.2c-2.7,0-4.9-2.2-4.9-4.9s2.2-4.9,4.9-4.9h27.2c2.7,0,4.9,2.2,4.9,4.9
					S328.2,78.1,325.5,78.1z"/>
			</g>
		</g>
		<g>
			<g>
				<rect x="278.2" y="-54.7" class="st1" width="9.9" height="40.1"/>
			</g>
			<g>
				<rect x="197.9" y="-54.7" class="st1" width="9.9" height="40.1"/>
			</g>
		</g>
		<g>
			<path class="st4" d="M217.9,27.8c1.1,0.6,2.8,1.2,6,1.7c4.3,0.7,10.4,1.1,16.9,1.1c6.5,0,12.6-0.4,16.9-1.1
				c3.3-0.5,5.2-1.2,6.3-1.9c-3.3-1.4-11.2-2.3-23-2.3C229,25.3,221.1,26.5,217.9,27.8 M219.4,23.1L219.4,23.1L219.4,23.1
				L219.4,23.1c1.1-0.2,2.3-0.5,3.7-0.7c4.6-0.7,10.9-1.1,17.9-1.1c6.9,0,13.3,0.4,17.9,1.1c1.4,0.2,2.6,0.5,3.6,0.7l0,0h0.1l0,0
				c1,0.2,1.7,0.6,2.3,0.9c0-0.2,0-0.5,0.1-0.7v-0.4l0.2-1.9l0.1-1.4c-0.5-0.5-2-1.4-6.5-2.1c-1.5-0.2-3-0.4-4.7-0.6
				c-0.5,0-0.9-0.1-1.4-0.1l0,0c-3.2-0.2-6.7-0.4-10.5-0.4l-1.1-0.7c-0.1,0-0.1,0-0.2,0l-1.1,0.7c-3.8,0-7.4,0.1-10.5,0.5
				c-0.5,0-1,0.1-1.5,0.1c-1.6,0.1-3.1,0.4-4.4,0.6c-5.8,0.9-6.7,2-6.8,2.3l0.1,1.4l0.1,1.4l0,0v0.5c0,0.2,0,0.6-0.1,0.9
				C217.6,23.7,218.4,23.4,219.4,23.1 M262.8,19.5l1.5,2.1l-1.5,1l-1.7-2.1L262.8,19.5z M251.6,18.8c0.1-0.7,0.6-1.2,1.4-1.4
				c0.5-0.1,1.1,0.1,1.5,0.5c0.4,0.4,0.5,0.9,0.5,1.5c-0.1,0.6-0.6,1.2-1.4,1.4c-0.5,0.1-1.1-0.1-1.5-0.5
				C251.8,19.9,251.6,19.3,251.6,18.8 M240.7,16.7l0.5-0.4l0,0l2.8,2l-2.8,2.1l-2.8-2.1L240.7,16.7z M227.7,17.9
				c0.4-0.4,0.7-0.5,1.1-0.5c0.1,0,0.1,0,0.2,0c0.4,0,0.6,0.2,0.9,0.5c0.2,0.2,0.4,0.5,0.5,0.9c0.1,0.5-0.1,1.1-0.5,1.5
				c-0.4,0.4-0.9,0.5-1.5,0.5c-0.6-0.1-1.2-0.6-1.4-1.4C227.1,18.8,227.3,18.3,227.7,17.9 M219.3,19.5l1.7,1l-1.7,2.1l-1.5-1
				L219.3,19.5z M276.6,6.2c-0.4-0.7-1.7-0.1-2.1-0.6c-0.2-0.2-0.1,0-0.4-0.2c-1.5-0.9-1.9,1.2-1.9,1.2s-0.1-1.7-1.6-1.2
				c-0.5,0.1-0.9,0.9-0.2,2.3s0.1,1.7-0.1,1.6c-0.2-0.1-0.4-0.2-0.6-0.9c-0.2-0.6-1.4-1.6-2.3-1.2c-0.4,0.2-0.5,1-0.1,1.4
				c-0.1,0-1.1-0.6-1.6,0.2c-0.4,0.6-0.2,1.5,0.6,2c0,0-1.6,0.1-0.4,1.5c0.4,0.4,0.7,0.6,1.2,0.7c-1.7,0.7-4.1,1.4-5.8,0.9
				c-1.5-0.4-2.2-1.4-2.7-2.3c0.1,0.1,0.4,0.1,0.5,0.1c1.2,0.2,1.2-0.9,1.2-0.9s1.9,0.7,2.2-0.9c0.6-2.1-1.4-2.1-1.4-2.1
				c0.6-2.1-2.3-1.5-2.3-1.5s0.9-0.7,1.5-1.1c0.6-0.4,0.7-1.7-0.7-1.7c0,0-0.1-1.5-1.5-1.6c-1.4-0.2-2,1.1-2,1.1
				c-1.4-0.4-1.7,0.9-1.2,1.5C255.3,5,256,6,256,6.1c-0.1,0-2.7-1.4-2.7,0.7c0,0-1.9-0.6-2,1.6c-0.1,1.6,1.9,1.5,1.9,1.5
				s-0.4,1.1,0.9,1.2c0.4,0,0.9,0,1.4-0.2c-1,1.1-3,2.2-6.4,2.1c-3.8-0.1-5.7-1.4-6.4-2.6c0.4,0.1,0.7,0.2,1,0.2
				c1.2,0.1,1.1-1.1,1.1-1.1s1.9,0.4,2.1-1.1c0.2-2.2-1.6-1.9-1.6-1.9c0.4-2.2-2.6-1.1-2.6-1.1s0.7-0.9,1.4-1.4
				c0.6-0.5,0.4-1.9-1-1.6c0,0-0.4-1.4-1.7-1.4s-1.7,1.4-1.7,1.4c-1.5-0.1-1.6,1.1-1,1.6c0.6,0.5,1.4,1.4,1.4,1.4s-2.8-1-2.6,1.1
				c0,0-1.9-0.4-1.6,1.9c0.1,1.6,2.1,1.1,2.1,1.1s-0.1,1.2,1.1,1.1c0.4,0,0.6-0.1,1-0.2c-0.9,1.1-2.6,2.3-6.4,2.6
				c-3.5,0.1-5.4-1.1-6.4-2.1c0.5,0.1,0.9,0.2,1.4,0.2c1.2-0.1,0.9-1.2,0.9-1.2s2,0.1,1.9-1.5c-0.1-2.2-2-1.6-2-1.6
				c0-2.1-2.6-0.7-2.7-0.7c0,0,0.6-1,1.1-1.6c0.5-0.5,0.1-1.9-1.2-1.5c0,0-0.6-1.4-2-1.1s-1.5,1.6-1.5,1.6c-1.5,0-1.4,1.4-0.7,1.7
				c0.6,0.4,1.5,1.1,1.5,1.1s-3-0.5-2.3,1.5c0,0-2-0.1-1.4,2.1c0.4,1.5,2.2,0.9,2.2,0.9s0,1.2,1.2,0.9c0.1,0,0.4-0.1,0.5-0.1
				c-0.4,1-1.2,2-2.7,2.3c-1.9,0.5-4.1-0.1-5.8-0.9c0.5-0.1,0.9-0.4,1.2-0.7c1.2-1.4-0.4-1.5-0.4-1.5c0.9-0.4,1-1.2,0.6-2
				c-0.5-0.9-1.6-0.4-1.6-0.2c0.4-0.4,0.4-1.1-0.1-1.4c-1-0.5-2,0.6-2.3,1.2c-0.2,0.6-0.4,0.7-0.6,0.9c-0.2,0.1-0.7-0.1-0.1-1.6
				c0.6-1.5,0.2-2.2-0.2-2.3c-1.4-0.5-1.6,1.2-1.6,1.2s-0.4-2.1-1.9-1.2c-0.4,0.1-0.1,0-0.4,0.2c-0.5,0.5-1.7-0.1-2.1,0.6
				c-0.4,0.7,0.1,1.9,2.3,3.5c1.5,1.1,2.8,2.5,3.6,3.1c0,0.1,0.1,0.2,0.2,0.4c0,0,0,0,0.1,0l0,0l0,0l0,0c2.7,1.6,3.5,3.8,3.5,3.8
				c0,0.1,0.1,0.2,0.1,0.2l0,0c-0.5,0.5-0.4,1.2,0,1.6c0.1,0.1,0.1,0.1,0.2,0.2c0.9-1.1,3.3-2,7.5-2.6c4.6-0.7,11-1.1,17.9-1.1
				s13.3,0.4,17.9,1.1c4.1,0.6,6.4,1.5,7.4,2.6c0,0,0.1,0,0.1-0.1c0.2-0.2,0.4-0.5,0.4-0.9c0-0.4-0.1-0.6-0.4-0.9l0,0
				c0.1-0.1,0.1-0.1,0.1-0.2c0,0,0.7-2.2,3.5-3.8l0,0l0,0l0,0h0.1c0.1-0.1,0.2-0.2,0.2-0.4c0.6-0.6,2-2,3.6-3.1
				C276.3,8.1,277,7,276.6,6.2 M216.7,16.5c0-0.1-0.2-0.7-0.9-1.6c1,0.4,2.2,0.6,3.3,0.6C218.1,16,217.2,16.2,216.7,16.5 M223.4,9.2
				c-0.2-1.2,0.9-2.2,2.1-2.1c0.7,0.1,1.4,0.7,1.5,1.5c0.2,1.2-0.9,2.2-2.1,2.1C224.1,10.5,223.5,9.9,223.4,9.2 M222.9,14.7
				c1.4-0.9,2.1-2.1,2.5-3.3c0.7,0.9,2,2,4,2.5C226.7,14.2,224.6,14.5,222.9,14.7 M239.4,8.2c-0.2-1.2,0.9-2.2,2.1-2.1
				c0.7,0.1,1.4,0.7,1.5,1.5c0.2,1.2-0.9,2.2-2.1,2.1C240.2,9.5,239.5,8.9,239.4,8.2 M241,13.5c-1.1,0-2.2,0-3.3,0
				c1.7-0.7,2.7-1.7,3.3-2.7c0.6,1,1.6,2,3.3,2.7C243.4,13.6,242.3,13.5,241,13.5 M257.4,7.2c0.7,0.1,1.4,0.7,1.5,1.5
				c0.2,1.2-0.9,2.2-2.1,2.1c-0.7-0.1-1.4-0.7-1.5-1.5C255.2,8.1,256.2,7,257.4,7.2 M252.9,14c2-0.6,3.2-1.6,4-2.5
				c0.4,1.2,1.1,2.5,2.5,3.3C257.6,14.5,255.5,14.2,252.9,14 M265.5,16.5c-0.6-0.2-1.4-0.6-2.5-0.9c1.1-0.1,2.2-0.4,3.3-0.6
				C265.7,15.7,265.5,16.3,265.5,16.5 M264.7,24.5c-0.1,0-1.9-0.7-3.1-1c0,0,0,0-0.1,0c-0.7-0.1-1.6-0.4-2.6-0.5
				c-4.6-0.7-11-1.1-18-1.1l0,0c-7,0-13.3,0.4-18,1.1c-0.9,0.1-1.7,0.2-2.6,0.5c0,0,0,0-0.1,0c-1.2,0.2-3,1-3.1,1
				c-1.2,0.5-2.1,1.5-1.7,2.1c0.1,0.5,0.7,0.6,1.5,0.6c0.4,0,0.6-0.1,1-0.2c0.1,0,0.1-0.1,0.2-0.1l0,0l0,0c1.2-0.4,2.8-0.7,4.8-1.1
				c4.6-0.7,10.9-1.1,17.9-1.1l0,0c6.9,0,13.3,0.4,17.9,1.1c2,0.4,3.6,0.7,4.8,1.1l0,0l0,0c0.1,0,0.1,0,0.2,0.1
				c0.4,0.1,0.7,0.1,1,0.2c0.7,0,1.4-0.1,1.5-0.6C266.8,26,266,25,264.7,24.5 M224.1,25.5c-0.6,0-1.1-0.5-1.1-1.1
				c0-0.6,0.5-1.1,1.1-1.1s1.1,0.5,1.1,1.1C225.2,25,224.7,25.5,224.1,25.5 M234.9,24.5c-0.6,0-1.1-0.5-1.1-1.1
				c0-0.6,0.5-1.1,1.1-1.1s1.1,0.5,1.1,1.1C236,24,235.5,24.5,234.9,24.5 M247.3,24.5c-0.6,0-1.1-0.5-1.1-1.1c0-0.6,0.5-1.1,1.1-1.1
				c0.6,0,1.1,0.5,1.1,1.1C248.4,24,247.9,24.5,247.3,24.5 M257.9,25.5c-0.6,0-1.1-0.5-1.1-1.1c0-0.6,0.5-1.1,1.1-1.1
				s1.1,0.5,1.1,1.1C259,25,258.6,25.5,257.9,25.5"/>
			<path class="st4" d="M293,117.7l-0.4,1.7c-12.1-0.6-21-0.2-27.5-7.3c-7.5-8-13.5-18.4-15.8-23.3c-4.6-9.8-8.6-6.9-16.7-8.3v18.8
				c0,12.8,0.2,15.2,15.8,17.4v1.7h-39.9v-1.7c13.7-1.9,13.8-5.4,14.1-17.4v-18l-0.1-14.7V54.9v-0.1h-0.1l-0.1-0.1h0.1
				c0,0,0,0-0.1-0.1l0,0v-0.1l0,0l-0.1-0.1H222l-0.1-0.1h0.2v-3L222,51h0.1v-0.2l-0.1-0.1l0,0l-0.1-0.2h0.2l0,0H222
				c0.1,0,0.1-0.1,0.2-0.4c0.1-0.2,0.2-0.4,0.5-0.4c0.1,0,0.2-0.2,0.2-0.2c0-0.1,0.1-0.6,0.1-0.7l0,0c0,0,0,0,0.1,0v-0.2l-0.1-0.1
				l0,0l0,0c0-0.1,0.1-0.1,0.1-0.1l0,0v-0.2v-0.2l0,0v0.2v0.2l0,0c0.1,0,0.1,0.1,0.1,0.1l0,0l0,0c0,0.1,0,0.1-0.1,0.1v0.2h0.1
				c0,0,0,0-0.1,0c0,0.1,0,0.6,0.1,0.7c0,0.1,0.1,0.2,0.2,0.2c0.1,0,0.4,0.1,0.5,0.4c0.1,0.2,0.1,0.4,0.2,0.4h-0.2l0,0h0.2l-0.1,0.2
				l0,0l-0.1,0.1V51h0.1l-0.1,0.1v0.7h0.5v0.6h0.5v0.6h0.6v-0.6h0.5v-0.6h0.5v-1.4l0,0v-0.1l0,0v-0.1l0,0v-0.1l0,0l-0.1-0.2h0.2l0,0
				h0.1v-0.1h0.5v0.1h0.1l0,0h0.2l-0.1,0.2l0,0v0.1l0,0v0.1l0,0v0.1l0,0v1.4h0.5v-1.4l0,0v-0.1l0,0v-0.1l0,0v-0.1l0,0l-0.1-0.2h0.2
				l0,0h0.1v-0.1h0.5v0.1h0.1l0,0h0.2l-0.1,0.2l0,0v0.1l0,0v0.1l0,0v0.1l0,0v1.4h0.5v0.6h0.5v0.6h0.6v-0.6h-0.1v-0.6h0.5v-0.7
				L231,51h0.1v-0.2l-0.1-0.1h0.1l0,0H231l-0.1-0.2l0,0c0.1,0,0.1-0.1,0.2-0.4c0.1-0.2,0.2-0.4,0.5-0.4c0.1,0,0.2-0.2,0.2-0.2
				c0-0.1,0.1-0.6,0.1-0.7h-0.1c0,0,0,0,0.1,0v-0.2l-0.1-0.1l0,0l0,0c0-0.1,0.1-0.1,0.1-0.2l0,0v-0.2v-0.2l0,0v0.2v0.2l0,0
				c0.1,0,0.1,0.1,0.1,0.2l0,0l0,0c0,0.1,0,0.1-0.1,0.1v0.2h0.1l0,0c0,0.1,0,0.6,0.1,0.7c0,0.1,0.1,0.2,0.2,0.2l0,0
				c0.1,0,0.4,0.1,0.4,0.4c0.1,0.2,0.1,0.4,0.1,0.4l-0.1,0.2h-0.1l0,0h0.4l-0.1,0.1V51h0.1l-0.1,0.1v3l0,0h0.2l-0.1,0.1H233
				l-0.1,0.1l0,0c0,0,0,0.1-0.1,0.1c-0.1,0-0.1,0.1-0.1,0.1h0.1l-0.1,0.1h-0.1v0.1v23.7c11-0.1,23.7-5.3,23.7-18.3
				c0-13.5-11.5-19-23.2-19h-0.5l-23.3,0.1v-1.6l27.8-1c28.8-1,31,13.5,31,19c0,9.9-5.9,15.4-14.1,19.1l0.6,0.9
				C263.2,93.6,274.2,113.6,293,117.7"/>
		</g>
	</g>
</g>
</svg>
