<?xml version="1.0" encoding="utf-8"?>
<!-- Generator: Adobe Illustrator 19.0.0, SVG Export Plug-In . SVG Version: 6.00 Build 0)  -->
<svg version="1.1" id="Layer_1" xmlns="http://www.w3.org/2000/svg" xmlns:xlink="http://www.w3.org/1999/xlink" x="0px" y="0px"
	 viewBox="-503 277 304 302" style="enable-background:new -503 277 304 302;" xml:space="preserve">
<style type="text/css">
	.st0{opacity:0.2;fill:#003D47;enable-background:new    ;}
	.st1{opacity:0.6;fill:#003D47;enable-background:new    ;}
	.st2{fill:#003D47;}
</style>
<g>
	<path class="st0" d="M-232.3,361.5c-7.1,7.1-12.8,9.5-23.7,9.5c-21.8,0-38-16.2-38-38c0-10.9,2.4-16.6,9.5-23.7l-12.8-12.8
		l-185.1,185.1l12.8,12.8c7.1-7.1,12.8-9.5,23.7-9.5c21.8,0,38,16.2,38,38c0,10.9-2.4,16.6-9.5,23.7l12.8,12.8l185.1-185.1
		L-232.3,361.5z"/>
	<polygon class="st1" points="-393.1,431.7 -374.2,438.1 -358.3,426.2 -358.5,446.1 -342.3,457.6 -361.3,463.5 -367.2,482.5 
		-378.7,466.3 -398.6,466.5 -386.7,450.6 	"/>
	<g>
		<path class="st2" d="M-389,579c-1,0-2-0.4-2.7-1.1l-28.5-28.5c-0.7-0.7-1.1-1.7-1.1-2.7c0-1,0.4-2,1.1-2.8
			c6.5-6.5,8.4-11.2,8.4-21c0-19.7-14.3-34.1-34.1-34.1c-9.8,0-14.5,1.9-21,8.4c-1.5,1.5-4,1.5-5.5,0l-28.5-28.5
			c-1.5-1.5-1.5-4,0-5.5l185.1-185.1c1.5-1.5,4-1.5,5.5,0l28.5,28.5c1.5,1.5,1.5,4,0,5.5c-6.5,6.5-8.4,11.2-8.4,21
			c0,19.7,14.3,34.1,34.1,34.1c9.8,0,14.5-1.9,21-8.4c1.5-1.5,4-1.5,5.5,0l28.5,28.5c1.5,1.5,1.5,4,0,5.5l-185.1,185.1
			C-387,578.6-388,579-389,579z M-412,546.6l23.1,23.1L-209.4,390l-23.1-23.1c-6.8,5.9-13.2,8-23.6,8c-23.9,0-41.9-18-41.9-41.9
			c0-10.4,2.1-16.8,8-23.6l-23.1-23.1L-492.6,466l23.1,23.1c6.8-5.9,13.2-8,23.6-8c23.9,0,41.9,18,41.9,41.9
			C-404.1,533.3-406.1,539.8-412,546.6z"/>
	</g>
	<g>
		<g>
			<path class="st2" d="M-360.5,370.2c-1,0-2-0.4-2.7-1.1l-19-19c-1.5-1.5-1.5-4,0-5.5s4-1.5,5.5,0l19,19c1.5,1.5,1.5,4,0,5.5
				C-358.5,369.8-359.5,370.2-360.5,370.2z"/>
		</g>
		<g>
			<path class="st2" d="M-270.3,460.3c-1,0-2-0.4-2.7-1.1l-19-19c-1.5-1.5-1.5-4,0-5.5c1.5-1.5,4-1.5,5.5,0l19,19
				c1.5,1.5,1.5,4,0,5.5C-268.3,460-269.3,460.3-270.3,460.3z"/>
		</g>
		<g>
			<path class="st2" d="M-330.4,400.2c-1,0-2-0.4-2.7-1.1l-19-19c-1.5-1.5-1.5-4,0-5.5s4-1.5,5.5,0l19,19c1.5,1.5,1.5,4,0,5.5
				C-328.4,399.8-329.4,400.2-330.4,400.2z"/>
		</g>
		<g>
			<path class="st2" d="M-300.4,430.3c-1,0-2-0.4-2.7-1.1l-19-19c-1.5-1.5-1.5-4,0-5.5c1.5-1.5,4-1.5,5.5,0l19,19
				c1.5,1.5,1.5,4,0,5.5C-298.4,429.9-299.4,430.3-300.4,430.3z"/>
		</g>
	</g>
	<g>
		<path class="st2" d="M-367.2,486.4c-1.2,0-2.4-0.6-3.2-1.6l-10.3-14.6l-17.9,0.2c-1.3-0.1-2.8-0.8-3.5-2.1
			c-0.7-1.3-0.5-2.9,0.4-4.1l10.7-14.3l-5.7-16.9c-0.5-1.4-0.1-2.9,0.9-4s2.6-1.4,4-0.9l16.9,5.7l14.3-10.7c1.2-0.9,2.8-1,4.1-0.4
			c1.3,0.7,2.1,2,2.1,3.5l-0.2,17.9l14.6,10.3c1.2,0.9,1.8,2.3,1.6,3.8c-0.2,1.5-1.3,2.7-2.7,3.1l-17.1,5.3l-5.3,17.1
			c-0.4,1.4-1.6,2.5-3.1,2.7C-366.8,486.4-367,486.4-367.2,486.4z M-378.7,462.4c1.3,0,2.4,0.6,3.2,1.6l6.9,9.8l3.6-11.5
			c0.4-1.2,1.3-2.2,2.6-2.6l11.5-3.6l-9.8-6.9c-1-0.7-1.7-1.9-1.6-3.2l0.2-12l-9.6,7.2c-1,0.8-2.4,1-3.6,0.6l-11.4-3.9l3.9,11.4
			c0.4,1.2,0.2,2.5-0.6,3.6l-7.2,9.6L-378.7,462.4C-378.7,462.4-378.7,462.4-378.7,462.4z"/>
	</g>
</g>
</svg>
