<?xml version="1.0" encoding="utf-8"?>
<!-- Generator: Adobe Illustrator 19.0.0, SVG Export Plug-In . SVG Version: 6.00 Build 0)  -->
<svg version="1.1" id="Layer_1" xmlns="http://www.w3.org/2000/svg" xmlns:xlink="http://www.w3.org/1999/xlink" x="0px" y="0px"
	 viewBox="-387 289 24 24" style="enable-background:new -387 289 24 24;" xml:space="preserve">
<style type="text/css">
	.st0{fill:none;}
	.st1{fill:#FFFFFF;}
</style>
<g>
	<path class="st0" d="M-387,289h24v24h-24V289z"/>
	<path class="st1" d="M-385,293c0-0.6,0.4-1,1-1h18c0.6,0,1,0.4,1,1v5.5c-1.4,0-2.5,1.1-2.5,2.5s1.1,2.5,2.5,2.5v5.5
		c0,0.6-0.4,1-1,1h-18c-0.6,0-1-0.4-1-1V293z M-378.9,308c0.3-0.8,1.1-1.2,1.9-0.9c0.4,0.2,0.8,0.5,0.9,0.9h9.1v-3
		c-2.2-1.1-3.1-3.8-2-6c0.4-0.9,1.2-1.6,2-2v-3h-9.1c-0.3,0.8-1.1,1.2-1.9,0.9c-0.4-0.2-0.8-0.5-0.9-0.9h-4.1v14H-378.9z
		 M-377.5,300c-0.8,0-1.5-0.7-1.5-1.5s0.7-1.5,1.5-1.5s1.5,0.7,1.5,1.5S-376.7,300-377.5,300z M-377.5,305c-0.8,0-1.5-0.7-1.5-1.5
		s0.7-1.5,1.5-1.5s1.5,0.7,1.5,1.5S-376.7,305-377.5,305z"/>
</g>
</svg>
