<?xml version="1.0" encoding="utf-8"?>
<!-- Generator: Adobe Illustrator 19.0.0, SVG Export Plug-In . SVG Version: 6.00 Build 0)  -->
<svg version="1.1" id="Layer_1" xmlns="http://www.w3.org/2000/svg" xmlns:xlink="http://www.w3.org/1999/xlink" x="0px" y="0px"
	 viewBox="-361 271 44 36" style="enable-background:new -361 271 44 36;" xml:space="preserve">
<style type="text/css">
	.st0{fill:#E8E4DA;}
</style>
<path class="st0" d="M-320.1,284c0.4-1.2,1-2.7,1.9-3.5h-7.1c-0.1,0-0.2-0.1-0.4-0.1c-0.4-0.6-3-4-13.5-4c-11.6,0-13.6,4.1-13.6,4.1
	h-7.4c0.9,0.9,1.6,2.6,2,3.9c-1.4,1.8-2.2,4.1-2.2,6.5c0,6,4.8,10.9,10.8,10.9c3.3,0,6.2-1.5,8.2-3.9l2.4,3.5l2.1-3.6
	c2,2.4,5,4,8.3,4c5.9,0,10.8-4.9,10.8-10.9C-317.7,288.2-318.6,285.8-320.1,284z M-349.4,299.4c-4.8,0-8.7-3.9-8.7-8.7
	c0-4.8,3.9-8.7,8.7-8.7c4.8,0,8.7,3.9,8.7,8.7C-340.7,295.5-344.6,299.4-349.4,299.4z M-353.1,287.1c-1,1-1.5,2.3-1.5,3.7
	c0,1.4,0.5,2.7,1.5,3.7c1,1,2.3,1.5,3.7,1.5c2.9,0,5.2-2.3,5.2-5.2c0-2.9-2.3-5.2-5.2-5.2C-350.8,285.5-352.1,286.1-353.1,287.1z
	 M-352.2,293.6c-0.8-0.8-1.2-1.8-1.2-2.9c0-1.1,0.4-2.1,1.2-2.9c0.8-0.8,1.8-1.2,2.9-1.2c2.2,0,4,1.8,4,4c0,2.2-1.8,4-4,4
	C-350.5,294.8-351.5,294.3-352.2,293.6C-352.2,293.6-351.5,294.3-352.2,293.6z M-351.1,290.7c0,1,0.8,1.7,1.7,1.7
	c1,0,1.7-0.8,1.7-1.7c0-1-0.8-1.7-1.7-1.7C-350.3,289-351.1,289.8-351.1,290.7z M-328.6,299.4c-4.8,0-8.7-3.9-8.7-8.7
	c0-4.8,3.9-8.7,8.7-8.7s8.7,3.9,8.7,8.7C-320,295.5-323.8,299.4-328.6,299.4z M-332.3,287.1c-1,1-1.5,2.3-1.5,3.7
	c0,1.4,0.5,2.7,1.5,3.7c1,1,2.3,1.5,3.7,1.5c2.9,0,5.2-2.3,5.2-5.2c0-2.9-2.3-5.2-5.2-5.2C-330,285.5-331.3,286.1-332.3,287.1z
	 M-331.5,293.6c-0.8-0.8-1.2-1.8-1.2-2.9c0-1.1,0.4-2.1,1.2-2.9c0.8-0.8,1.8-1.2,2.9-1.2c2.2,0,4,1.8,4,4c0,2.2-1.8,4-4,4
	C-329.7,294.8-330.7,294.3-331.5,293.6C-331.5,293.6-330.7,294.3-331.5,293.6z M-330.3,290.7c0,1,0.8,1.7,1.7,1.7
	c1,0,1.7-0.8,1.7-1.7c0-1-0.8-1.7-1.7-1.7C-329.6,289-330.3,289.8-330.3,290.7z M-339.2,277.5c7.3,0,10,3.1,10,3.1
	s-7.8-1.3-10.4,8.5c-2.6-9.8-10.4-8.5-10.4-8.5s2.7-3.1,10-3.1H-339.2z"/>
</svg>
