<?xml version="1.0" encoding="utf-8"?>
<!-- Generator: Adobe Illustrator 19.0.0, SVG Export Plug-In . SVG Version: 6.00 Build 0)  -->
<svg version="1.1" id="Слой_1" xmlns="http://www.w3.org/2000/svg" xmlns:xlink="http://www.w3.org/1999/xlink" x="0px" y="0px"
	 viewBox="-386 288 26 26" style="enable-background:new -386 288 26 26;" xml:space="preserve">
<style type="text/css">
	.st0{fill:#003D47;}
</style>
<path class="st0" d="M-385,299.1c0,5.5,4.5,10.1,10.1,10.1c2.5,0,4.8-0.9,6.5-2.4l6.1,6.1c0.3,0.3,0.8,0.3,1.1,0
	c0.1-0.1,0.2-0.3,0.2-0.5s-0.1-0.4-0.2-0.5l-6.1-6.1c1.5-1.8,2.4-4,2.4-6.5c0-5.5-4.5-10.1-10.1-10.1S-385,293.5-385,299.1z
	 M-366.4,299.1c0,4.7-3.8,8.6-8.6,8.6s-8.6-3.8-8.6-8.6c0-4.7,3.8-8.6,8.6-8.6S-366.4,294.3-366.4,299.1z"/>
</svg>
